<?xml version="1.0" encoding="UTF-8"?>
<svg version="1.1" xmlns="http://www.w3.org/2000/svg" width="1063" height="1802">
<path d="M0 0 C8.31840099 1.33176708 16.41967516 3.3233337 24.56607819 5.43901825 C46.31097849 11.0595464 68.2620196 15.61573213 90.25714111 20.13421631 C96.26377971 21.37008817 102.26809397 22.61720365 108.27280426 23.86240387 C113.07343847 24.8573423 117.87467834 25.84910386 122.6776123 26.83288574 C130.38010627 28.41185115 138.0771781 29.9977028 145.74804688 31.72460938 C146.85146423 31.96930969 147.95488159 32.21401001 149.09173584 32.46612549 C150.99093948 32.89063348 152.88749729 33.32734376 154.77984619 33.78143311 C166.05148495 36.28150515 176.99452598 33.32868113 188.05908203 30.87304688 C189.54349179 30.54881628 191.02803352 30.22518943 192.51269531 29.90211487 C195.68856275 29.20971912 198.86348552 28.51319706 202.03772354 27.81336975 C207.06349049 26.70543908 212.09138244 25.60737429 217.11959839 24.51062012 C226.88367398 22.37948062 236.6455538 20.2383891 246.40722656 18.09627533 C258.83936191 15.36868387 271.27253497 12.64585681 283.70756805 9.93150568 C288.6995344 8.84150825 293.6904308 7.74677496 298.68052316 6.64823151 C301.78980688 5.96465525 304.89991274 5.28487871 308.01023865 4.60606194 C309.44522678 4.29205171 310.87987133 3.9764663 312.31412888 3.65913582 C327.26303363 0.3533576 327.26303363 0.3533576 334 0 C336.56640625 1.73828125 336.56640625 1.73828125 338.5625 4.3125 C339.30886719 5.240625 340.05523438 6.16875 340.82421875 7.125 C341.90123047 8.548125 341.90123047 8.548125 343 10 C344.28941458 11.60597744 345.58102989 13.21019078 346.875 14.8125 C347.52339844 15.63492187 348.17179687 16.45734375 348.83984375 17.3046875 C351.31817066 20.39699414 353.86904824 23.42003368 356.4375 26.4375 C359.83201985 30.42684578 363.19376401 34.43670103 366.5 38.5 C369.78823483 42.53983137 373.12721426 46.53092065 376.5 50.5 C380.62101634 55.34959381 384.66991354 60.25160806 388.6875 65.1875 C391.26146392 68.31799666 393.87569086 71.41172461 396.5 74.5 C400.62101634 79.34959381 404.66991354 84.25160806 408.6875 89.1875 C411.26146545 92.31799851 413.87576903 95.41165634 416.5 98.5 C420.6540137 103.39071444 424.75231562 108.32196804 428.80078125 113.30078125 C430.33174005 115.17980884 431.87148627 117.05169667 433.41796875 118.91796875 C434.20816406 119.87316406 434.99835937 120.82835937 435.8125 121.8125 C436.52019531 122.66457031 437.22789062 123.51664063 437.95703125 124.39453125 C440.14111504 127.17996889 442.07251194 130.03296782 444 133 C435.74971982 145.04331153 427.42374098 157.03311158 419.08056641 169.01220703 C415.71856102 173.84020773 412.35939081 178.67017987 409 183.5 C407.66668098 185.41667662 406.33334763 187.33334328 405 189.25 C404.34 190.19875 403.68 191.1475 403 192.125 C401 195 399 197.875 397 200.75 C396.33919434 201.6999585 395.67838867 202.64991699 394.99755859 203.62866211 C393.67255426 205.53325462 392.34736088 207.43771563 391.02197266 209.34204102 C387.55959373 214.31734568 384.10114249 219.29531981 380.6484375 224.27734375 C379.93300781 225.30859375 379.21757813 226.33984375 378.48046875 227.40234375 C377.11986596 229.36373219 375.76041015 231.32591701 374.40234375 233.2890625 C373.17988744 235.05031452 371.95072974 236.80694038 370.71386719 238.55810547 C369.59251936 240.15578653 368.49308867 241.76913384 367.41894531 243.39892578 C363.73429972 248.78242971 363.73429972 248.78242971 359.625 250 C358.75875 250 357.8925 250 357 250 C357.16604736 250.54188965 357.33209473 251.0837793 357.50317383 251.64208984 C374.01085609 306.02639997 368.66247753 361.76544491 342 412 C316.27588687 457.55688328 272.74730053 491.10423577 222.73828125 505.72265625 C175.19790872 518.89056138 120.32946779 515.35939778 76.82275391 491.01367188 C74.91189062 489.95100052 72.98041515 488.93517786 71.04296875 487.921875 C48.61714696 475.9999383 28.7388239 458.8345244 13 439 C12.18144531 437.98679687 11.36289062 436.97359375 10.51953125 435.9296875 C-13.97524584 405.24104756 -29.85517709 364.35328764 -31 325 C-31.02578125 324.27151855 -31.0515625 323.54303711 -31.078125 322.79248047 C-31.77407517 300.66561485 -29.14143285 279.4565073 -23.3046875 258.1171875 C-21.6082349 251.6414459 -21.6082349 251.6414459 -21 245 C-22.59854169 242.02857956 -22.59854169 242.02857956 -25.1875 239.5 C-26.12387218 238.46984014 -27.05596709 237.43578072 -27.984375 236.3984375 C-28.7259082 235.58004395 -28.7259082 235.58004395 -29.48242188 234.74511719 C-32.15022772 231.67731214 -34.52937664 228.39778905 -36.9375 225.125 C-41.55542177 218.90253986 -46.27787219 212.7784924 -51.08203125 206.69921875 C-59.26924832 196.33855449 -67.33406737 185.88062277 -75.375 175.40625 C-78.56628041 171.25758547 -81.78432875 167.12976633 -85 163 C-95.73421691 149.20797323 -95.73421691 149.20797323 -99.9296875 143.7109375 C-101.19117858 142.05909823 -102.46433179 140.4159738 -103.7578125 138.7890625 C-107.05637255 134.51715686 -107.05637255 134.51715686 -106.78662109 132.04248047 C-105.89867198 129.73689937 -104.82446221 128.26473851 -103.2265625 126.3828125 C-102.36877197 125.35957886 -102.36877197 125.35957886 -101.49365234 124.31567383 C-100.87699707 123.59275146 -100.2603418 122.8698291 -99.625 122.125 C-98.33718094 120.59098506 -97.05073883 119.05581319 -95.765625 117.51953125 C-94.8055957 116.37411865 -94.8055957 116.37411865 -93.82617188 115.20556641 C-91.27571671 112.12524395 -88.82083466 108.97604531 -86.375 105.8125 C-82.2354343 100.48107991 -77.90628857 95.34805192 -73.48217773 90.25146484 C-69.52999326 85.67605865 -65.78581662 80.96491412 -62.08081055 76.18847656 C-58.47453917 71.55695011 -54.72016353 67.07032206 -50.90942383 62.60644531 C-47.60121437 58.72667277 -44.39080657 54.78340397 -41.22265625 50.7890625 C-38.35853172 47.19506441 -35.46170086 43.62822672 -32.5625 40.0625 C-31.9967627 39.36664795 -31.43102539 38.6707959 -30.84814453 37.95385742 C-27.03923456 33.27177385 -23.21927023 28.59884937 -19.39453125 23.9296875 C-16.31897311 20.16676971 -13.25249988 16.3965199 -10.1875 12.625 C-9.63578125 11.94630859 -9.0840625 11.26761719 -8.515625 10.56835938 C-5.66302294 7.05665977 -2.8205092 3.53758781 0 0 Z M108.375 260.6875 C91.85051684 279.81035595 87.39406878 301.45699877 89 326 C90.71952903 340.5882624 98.48275684 355.00985016 108 366 C108.59683594 366.79277344 109.19367188 367.58554688 109.80859375 368.40234375 C118.00021454 378.11255378 129.26070802 384.56680746 141 389 C142.134375 389.433125 143.26875 389.86625 144.4375 390.3125 C164.05000328 396.61651891 185.19444801 394.0592991 203.4375 385.125 C209.04819338 382.24047014 214.20058015 379.12159745 219 375 C219.63808594 374.50371094 220.27617188 374.00742188 220.93359375 373.49609375 C236.36837803 361.00986475 244.87530073 341.99460186 247.75 322.6875 C247.8325 321.470625 247.915 320.25375 248 319 C248.0515625 318.30648437 248.103125 317.61296875 248.15625 316.8984375 C248.97206136 296.57113773 241.30097546 275.73924256 227.6875 260.75 C211.84271142 243.98597178 191.65645289 234.49497972 168.5 233.75 C145.29671509 234.01334119 124.24756535 243.88926188 108.375 260.6875 Z " fill="#F1793C" transform="translate(363,1289)"/>
<path d="M0 0 C5.0326632 1.44456073 9.106196 3.6134724 13.5 6.375 C14.19343506 6.80981689 14.88687012 7.24463379 15.60131836 7.69262695 C22.99613094 12.45611522 29.53762412 18.05686197 36 24 C36.68449219 24.61359375 37.36898438 25.2271875 38.07421875 25.859375 C57.15758562 43.83065755 68.55919746 69.79350258 74 95 C74.16516113 95.74604492 74.33032227 96.49208984 74.50048828 97.26074219 C76.95590672 108.8649431 77.26084215 120.43270265 77.25 132.25 C77.24940582 132.97141174 77.24881165 133.69282349 77.24819946 134.43609619 C77.23395771 138.96033363 77.14439765 143.47769871 77 148 C76.98598145 148.84691406 76.97196289 149.69382813 76.95751953 150.56640625 C76.73417945 154.37664184 76.02743218 155.96780829 73.5234375 158.90625 C72.4897898 159.78969965 71.43941333 160.6538705 70.375 161.5 C69.26932446 162.44332977 68.16644704 163.38994917 67.06640625 164.33984375 C66.53418457 164.79343262 66.00196289 165.24702148 65.45361328 165.71435547 C62.94088484 167.93673169 60.82636059 170.44783422 58.6796875 173.015625 C57.51438716 174.39230541 56.30756774 175.7344828 55.0703125 177.046875 C24.18439976 209.85608634 4.69876295 252.81896037 5.71484375 298.12890625 C6.77863662 325.4447927 16.43509045 350.14118362 31 373 C30.89042969 372.30519531 30.78085937 371.61039062 30.66796875 370.89453125 C30.31782995 368.64851893 29.97809181 366.40087791 29.64453125 364.15234375 C29.21848272 361.31949475 28.72701612 358.50695163 28.19921875 355.69140625 C24.2086644 333.15664943 23.50327821 307.3086465 29 285 C29.17160645 284.29359375 29.34321289 283.5871875 29.52001953 282.859375 C35.6369427 258.54474205 46.84336522 237.31382716 64 219 C64.47518066 218.48244141 64.95036133 217.96488281 65.43994141 217.43164062 C81.22881382 200.33741032 102.73549592 185.18479306 125 178 C125.66 178 126.32 178 127 178 C126.87882812 178.63421875 126.75765625 179.2684375 126.6328125 179.921875 C118.71760172 224.00351041 123.36746705 277.46920338 149.2890625 315.48828125 C151.44540405 318.40415891 153.68233366 321.21136403 156 324 C157.37556558 325.74955547 158.75058485 327.49954063 160.125 329.25 C165.74831699 336.20226496 171.70802207 342.78305243 177.8125 349.3125 C178.42472412 349.96822998 179.03694824 350.62395996 179.66772461 351.29956055 C182.34992203 354.17108118 185.03592312 357.03781651 187.7421875 359.88671875 C224.07147525 398.71146876 239.66293356 451.22396419 245.875 502.9375 C245.99520508 503.92347168 246.11541016 504.90944336 246.23925781 505.92529297 C247.73405171 519.73709604 247.04955804 533.66160054 246.25 547.5 C246.20709839 548.24645782 246.16419678 548.99291565 246.11999512 549.76199341 C243.19625939 599.25843541 236.03020498 661.78189256 198 698 C195.7243254 699.78151492 193.40301201 701.38800441 191 703 C187.11909423 695.50477479 183.71165823 687.8601653 180.421875 680.08984375 C179.89727699 678.85735992 179.37234707 677.62501732 178.84710693 676.39280701 C177.76332186 673.84942553 176.68101768 671.30542194 175.59985352 668.76092529 C173.12570414 662.94084196 170.63216097 657.12906193 168.140625 651.31640625 C167.15878398 649.0241186 166.17701345 646.73180076 165.1953125 644.43945312 C164.70836914 643.30258057 164.22142578 642.16570801 163.71972656 640.99438477 C162.74684989 638.72266925 161.77419046 636.45086069 160.80175781 634.17895508 C151.92012543 613.42972737 142.95848135 592.71648813 134 572 C46.22 571.67 -41.56 571.34 -132 571 C-132.99 573.97 -133.98 576.94 -135 580 C-135.82638409 582.04822836 -136.68255591 584.08480364 -137.57421875 586.10546875 C-138.06825195 587.2332373 -138.56228516 588.36100586 -139.07128906 589.52294922 C-139.3333313 590.11686462 -139.59537354 590.71078003 -139.86535645 591.32269287 C-141.32519457 594.6339352 -142.76998713 597.95173025 -144.21484375 601.26953125 C-144.52197296 601.97444702 -144.82910217 602.67936279 -145.14553833 603.40563965 C-148.75093886 611.69898184 -152.25122145 620.03625521 -155.75 628.375 C-157.09727574 631.58479531 -158.44488882 634.79444861 -159.79296875 638.00390625 C-160.13281799 638.81301453 -160.47266724 639.6221228 -160.82281494 640.45574951 C-165.56064545 651.7251308 -170.35696168 662.96978615 -175.15332031 674.21435547 C-179.51313654 684.44496737 -183.79026812 694.70671719 -188 705 C-188.99 705 -189.98 705 -191 705 C-192.34350586 703.63330078 -192.34350586 703.63330078 -193.71484375 701.6953125 C-194.22990479 700.97625732 -194.74496582 700.25720215 -195.27563477 699.51635742 C-196.09825806 698.3326355 -196.09825806 698.3326355 -196.9375 697.125 C-197.51234131 696.31071533 -198.08718262 695.49643066 -198.67944336 694.6574707 C-200.46604566 692.11382109 -202.23492215 689.55862126 -204 687 C-204.52368164 686.24734863 -205.04736328 685.49469727 -205.58691406 684.71923828 C-240.69134457 634.09960009 -265.25868018 573.40739385 -257 511 C-256.83725586 509.7315625 -256.67451172 508.463125 -256.50683594 507.15625 C-251.94254641 471.90854632 -243.62513426 438.12465046 -228 406 C-227.66645508 405.30406738 -227.33291016 404.60813477 -226.98925781 403.89111328 C-224.74368821 399.21563628 -222.40372206 394.59597956 -220 390 C-219.64921387 389.32356445 -219.29842773 388.64712891 -218.93701172 387.95019531 C-209.37902442 369.66793924 -197.84167522 352.14635503 -185 336 C-184.51998535 335.39285156 -184.0399707 334.78570312 -183.54541016 334.16015625 C-177.1104206 326.04174336 -170.49258739 318.17685297 -163.421875 310.60546875 C-161.35300812 308.37976841 -159.35140442 306.11981617 -157.375 303.8125 C-151.72439082 297.31227656 -145.5562605 291.42218846 -139.03515625 285.80859375 C-133.2797006 280.69386061 -128.00971191 275.12719858 -123.00390625 269.28515625 C-120.94345569 266.93551965 -118.82585256 264.65022798 -116.69287109 262.36669922 C-111.71596118 257.03639925 -106.9596785 251.61391446 -102.39453125 245.921875 C-100.11909228 243.14531978 -97.77765167 240.44714414 -95.40454102 237.75463867 C-88.45799714 229.86302863 -82.00548861 221.68316262 -75.70654297 213.26855469 C-73.95563391 210.94102294 -72.18489443 208.62971381 -70.41015625 206.3203125 C-55.95972031 187.42769844 -42.83775162 167.63002353 -31 147 C-30.50016602 146.13197754 -30.00033203 145.26395508 -29.48535156 144.36962891 C-7.5683586 106.0322636 14.28170436 55.7222783 2.8515625 10.63671875 C2.02839107 7.96906159 2.02839107 7.96906159 0.8984375 5.33203125 C0 3 0 3 0 0 Z " fill="#F18A39" transform="translate(536,0)"/>
<path d="M0 0 C0.66 0 1.32 0 2 0 C2.35078613 0.63164063 2.70157227 1.26328125 3.06298828 1.9140625 C10.12136393 14.60862085 17.26400344 27.24191443 24.61035156 39.77246094 C29.08048677 47.40409741 33.49236809 55.06788203 37.875 62.75 C38.20803131 63.33365326 38.54106262 63.91730652 38.88418579 64.51864624 C40.57799047 67.48759504 42.27095762 70.45702023 43.96337891 73.42675781 C47.32652051 79.32801689 50.69378067 85.2269235 54.0625 91.125 C54.39393005 91.70536011 54.72536011 92.28572021 55.0668335 92.88366699 C59.85607663 101.26841262 64.66948791 109.6389612 69.5 118 C74.66823094 126.94558975 79.81431341 135.90354844 84.9375 144.875 C85.26894012 145.45538025 85.60038025 146.0357605 85.94186401 146.63372803 C88.63234108 151.3455141 91.32138652 156.05811682 94.01037598 160.77075195 C96.36041657 164.88921585 98.7110209 169.00735725 101.0625 173.125 C101.39402069 173.70554138 101.72554138 174.28608276 102.06710815 174.88421631 C106.85626544 183.26877531 111.6695903 191.63913843 116.5 200 C121.66823094 208.94558975 126.81431341 217.90354844 131.9375 226.875 C132.26894012 227.45538025 132.60038025 228.0357605 132.94186401 228.63372803 C135.63234108 233.3455141 138.32138652 238.05811682 141.01037598 242.77075195 C143.36041657 246.88921585 145.7110209 251.00735725 148.0625 255.125 C148.39402069 255.70554138 148.72554138 256.28608276 149.06710815 256.88421631 C153.85626544 265.26877531 158.6695903 273.63913843 163.5 282 C168.66823094 290.94558975 173.81431341 299.90354844 178.9375 308.875 C179.43466019 309.74557037 179.43466019 309.74557037 179.94186401 310.63372803 C182.63234108 315.3455141 185.32138652 320.05811682 188.01037598 324.77075195 C190.36041657 328.88921585 192.7110209 333.00735725 195.0625 337.125 C195.55978104 337.99581207 195.55978104 337.99581207 196.06710815 338.88421631 C200.85626544 347.26877531 205.6695903 355.63913843 210.5 364 C215.66823094 372.94558975 220.81431341 381.90354844 225.9375 390.875 C226.26894012 391.45538025 226.60038025 392.0357605 226.94186401 392.63372803 C229.63234108 397.3455141 232.32138652 402.05811682 235.01037598 406.77075195 C237.36041658 410.88921586 239.71109365 415.0073157 242.0625 419.125 C242.71702148 420.27121826 243.37154297 421.41743652 244.04589844 422.59838867 C249.34947527 431.8783386 254.68554195 441.13920844 260.04125977 450.38916016 C261.17677325 452.35253022 262.3082939 454.31821712 263.43505859 456.28662109 C264.46126375 458.06591034 265.50535737 459.83502717 266.56884766 461.59228516 C267.03726074 462.38296387 267.50567383 463.17364258 267.98828125 463.98828125 C268.40247314 464.67059814 268.81666504 465.35291504 269.2434082 466.0559082 C270.19660008 468.50517148 269.94801771 469.57667566 269 472 C267.44836658 474.18043795 265.87511983 476.2429086 264.1875 478.3125 C263.45370117 479.22902344 263.45370117 479.22902344 262.70507812 480.1640625 C261.66741032 481.45883987 260.62680768 482.75126988 259.58349609 484.04150391 C257.54464213 486.5631947 255.52015895 489.09621917 253.49560547 491.62939453 C252.49167779 492.88504159 251.48678144 494.13991475 250.48095703 495.39404297 C247.14641089 499.55336574 243.84580473 503.73766069 240.5625 507.9375 C236.64512972 512.94774443 232.65331342 517.89113974 228.625 522.8125 C224.15833253 528.2729349 219.81931944 533.81214025 215.5625 539.4375 C210.56470723 546.03815846 205.38542578 552.45995264 200.09667969 558.82910156 C194.60132195 565.45360036 189.28684068 572.20878968 184 579 C177.69669016 587.0811071 171.31870728 595.09219114 164.84082031 603.03417969 C159.47486814 609.62299573 154.22838345 616.30185136 149 623 C142.693822 631.07892496 136.31876609 639.09211903 129.84082031 647.03417969 C124.47486814 653.62299573 119.22838345 660.30185136 114 667 C108.27831596 674.3301223 102.51420794 681.61594588 96.625 688.8125 C92.15840331 694.2729954 87.81932183 699.81213709 83.5625 705.4375 C78.56470723 712.03815846 73.38542578 718.45995264 68.09667969 724.82910156 C64.44095475 729.23597489 60.84184634 733.67876959 57.3125 738.1875 C56.87599121 738.74348877 56.43948242 739.29947754 55.98974609 739.87231445 C53.62778129 742.88950286 51.29427512 745.92618522 48.98046875 748.98046875 C48.48184326 749.63184814 47.98321777 750.28322754 47.46948242 750.9543457 C46.50988485 752.20856636 45.55784575 753.46861643 44.61450195 754.73510742 C43.47913509 756.21280879 42.24638796 757.61465662 41 759 C40.01 759 39.02 759 38 759 C36.1953125 757.15625 36.1953125 757.15625 34.125 754.5 C33.3309375 753.49582031 32.536875 752.49164062 31.71875 751.45703125 C31.28433594 750.90225098 30.84992188 750.3474707 30.40234375 749.77587891 C28.39264928 747.23087237 26.3363253 744.72489508 24.28295898 742.21508789 C19.64695069 736.54551804 15.06593615 730.83786722 10.5625 725.0625 C5.80748974 718.96649073 0.90970382 712.99524433 -4.01708984 707.03759766 C-7.68372768 702.60307755 -11.31095116 698.14190655 -14.890625 693.63671875 C-17.67525684 690.15592895 -20.49574972 686.70481217 -23.3125 683.25 C-27.40577313 678.22649091 -31.45376519 673.17326101 -35.4375 668.0625 C-40.18535205 661.97542018 -45.07588955 656.01301458 -49.99511719 650.06396484 C-55.44782502 643.46882824 -60.89157153 636.86782679 -66 630 C-64.29957897 625.85586014 -61.35850595 622.75616765 -58.4375 619.4375 C-57.34144897 618.17664893 -56.24640511 616.91492167 -55.15234375 615.65234375 C-54.61335449 615.03085449 -54.07436523 614.40936523 -53.51904297 613.76904297 C-51.46864567 611.38119681 -49.48066779 608.94585215 -47.5 606.5 C-44.06791987 602.2720752 -40.55448829 598.1247211 -37 594 C-32.68065728 588.98685227 -28.44902723 583.91462485 -24.27734375 578.77734375 C-21.25580056 575.09240857 -18.16964049 571.46431679 -15.08349609 567.83349609 C-12.20442157 564.44026525 -9.36788508 561.0172328 -6.5625 557.5625 C-2.60556582 552.69950576 1.46435942 547.94299797 5.55615234 543.19384766 C9.35163367 538.77968234 13.05277913 534.29666802 16.72265625 529.77734375 C19.74419944 526.09240857 22.83035951 522.46431679 25.91650391 518.83349609 C28.79557843 515.44026525 31.63211492 512.0172328 34.4375 508.5625 C38.39443418 503.69950576 42.46435942 498.94299797 46.55615234 494.19384766 C50.35401501 489.77691282 54.05680041 485.29046003 57.73046875 480.76953125 C62.54688939 474.89200589 67.494943 469.12388086 72.41601562 463.33398438 C78.0064935 456.75376768 83.5816763 450.16791139 88.97265625 443.421875 C91 441 91 441 92.99609375 439.078125 C94.70985977 437.41397804 95.90448122 436.11832271 97 434 C96.78227944 432.01127353 96.78227944 432.01127353 95.92285156 429.96582031 C95.47818542 428.7709198 95.47818542 428.7709198 95.02453613 427.55187988 C94.51739075 426.28869934 94.51739075 426.28869934 94 425 C93.66609253 424.16722534 93.33218506 423.33445068 92.98815918 422.47644043 C91.84514444 419.69709892 90.66912164 416.93367917 89.484375 414.171875 C89.04077133 413.13039307 88.59716766 412.08891113 88.14012146 411.01586914 C86.68046553 407.59231221 85.21541016 404.17109744 83.75 400.75 C82.71903198 398.33631638 81.68819099 395.92257849 80.6574707 393.50878906 C72.60259261 374.65953159 64.45089843 355.852471 56.27612305 337.05493164 C50.50371634 323.78043416 44.75804477 310.49516349 39.0625 297.1875 C38.70766541 296.35856232 38.35283081 295.52962463 37.98724365 294.67556763 C35.73853542 289.42145366 33.49153174 284.1666117 31.24487305 278.91162109 C26.93688607 268.83571353 22.62618957 258.76096751 18.3125 248.6875 C17.80733856 247.50777618 17.30217712 246.32805237 16.78170776 245.11257935 C9.27845031 227.59532518 1.72168545 210.10192449 -5.875 192.625 C-13.47273404 175.14501161 -21.06392147 157.66246479 -28.53173828 140.12646484 C-29.2424536 138.4579825 -29.95322812 136.78952537 -30.6640625 135.12109375 C-31.01324738 134.30129028 -31.36243225 133.48148682 -31.72219849 132.63684082 C-34.01615015 127.26499095 -36.35049067 121.91216384 -38.70779419 116.56782532 C-40.34209734 112.85726107 -41.96184931 109.14043741 -43.57989502 105.42276001 C-44.35221629 103.65861966 -45.13134446 101.89744169 -45.91766357 100.13949585 C-46.99918221 97.72007589 -48.05663213 95.29142424 -49.109375 92.859375 C-49.43432953 92.14890518 -49.75928406 91.43843536 -50.09408569 90.70643616 C-51.50803715 87.37794001 -52.07592271 85.37529877 -51.35131836 81.79345703 C-50.10760304 79.22243794 -48.8280396 76.83702842 -47.26953125 74.4453125 C-46.44787476 73.17131592 -46.44787476 73.17131592 -45.60961914 71.87158203 C-45.01656982 70.96520996 -44.42352051 70.05883789 -43.8125 69.125 C-42.53550651 67.14644733 -41.25949813 65.16725858 -39.984375 63.1875 C-39.32501953 62.1665625 -38.66566406 61.145625 -37.98632812 60.09375 C-34.80058507 55.13188471 -31.68069821 50.12949027 -28.5625 45.125 C-27.94745605 44.13959229 -27.33241211 43.15418457 -26.69873047 42.13891602 C-24.12229602 38.01039244 -21.54829103 33.8803602 -18.97558594 29.74951172 C-17.61894663 27.57144188 -16.26177463 25.39370375 -14.90405273 23.21630859 C-13.63409507 21.17964651 -12.36529419 19.14226244 -11.09790039 17.10400391 C-9.40894936 14.39595939 -7.70869373 11.69562473 -6 9 C-5.44070801 8.11296387 -4.88141602 7.22592773 -4.30517578 6.31201172 C-3.77263184 5.48588379 -3.24008789 4.65975586 -2.69140625 3.80859375 C-1.98479858 2.70535767 -1.98479858 2.70535767 -1.26391602 1.57983398 C-0.84682373 1.05848877 -0.42973145 0.53714355 0 0 Z M136.1875 424.25 C129.13098323 434.01424995 127.69396614 444.25735625 129 456 C131.54358528 466.45560297 138.11182664 475.01736959 147.0625 480.9375 C156.70881105 486.32193004 166.28566471 488.17609764 177.203125 485.84765625 C187.11829689 482.84263907 195.51298316 476.92336048 200.7890625 467.9609375 C205.99397887 457.82245111 207.71124459 448.21603578 205.3515625 436.88671875 C201.97698275 426.69087308 195.18578797 418.53153534 186 413 C167.77276394 404.35931867 148.99763547 409.0786743 136.1875 424.25 Z " fill="#F37640" transform="translate(793,643)"/>
<path d="M0 0 C3.85975386 1.28658462 4.30028026 2.66804379 6.37109375 6.1171875 C7.02150635 7.1892041 7.67191895 8.2612207 8.34204102 9.36572266 C9.04053005 10.53548016 9.73901631 11.70523931 10.4375 12.875 C11.52596174 14.67533605 12.61755418 16.47375059 13.70915222 18.27218628 C14.44066089 19.47804414 15.1711371 20.68452891 15.90058899 21.89163208 C18.89342392 26.8424627 21.95724143 31.74415812 25.0625 36.625 C30.30478974 44.8885302 35.52642755 53.1650497 40.67553711 61.48706055 C43.31635644 65.75118976 45.95158211 69.99315779 48.8359375 74.09765625 C49.23200195 74.67789551 49.62806641 75.25813477 50.03613281 75.85595703 C51.02554886 77.29305057 52.04629697 78.70844583 53.0703125 80.12109375 C55.10598521 86.42483655 50.09199146 94.40230495 47.54296875 100.2734375 C47.20810959 101.05285706 46.87325043 101.83227661 46.52824402 102.63531494 C45.41814748 105.21672601 44.30282768 107.7958453 43.1875 110.375 C42.38656294 112.23472611 41.58595276 114.09459304 40.78564453 115.95458984 C38.63638226 120.94692964 36.48250035 125.93726229 34.32720947 130.92700195 C32.13725655 135.99758137 29.94963029 141.06916449 27.76171875 146.140625 C25.0406677 152.44760762 22.31920824 158.75441269 19.59619141 165.06054688 C13.22756421 179.81318963 6.89175414 194.57965783 0.56994629 209.35241699 C-7.85923265 229.0496246 -16.33365636 248.72615715 -24.875 268.375 C-31.5970204 283.83950401 -38.30198603 299.31065588 -44.9375 314.8125 C-45.29043121 315.63696625 -45.64336243 316.4614325 -46.00698853 317.31088257 C-48.25114102 322.55442077 -50.49355894 327.79869989 -52.73571777 333.04309082 C-56.65584131 342.21149406 -60.57854161 351.37879206 -64.503479 360.5451355 C-66.04761063 364.15271373 -67.5900001 367.76103348 -69.13232422 371.36938477 C-73.8111861 382.30514641 -78.51900677 393.22536685 -83.34375 404.09765625 C-83.75177353 405.02011642 -84.15979706 405.9425766 -84.58018494 406.89299011 C-86.46097634 411.14492955 -88.35155499 415.39180256 -90.26391602 419.62963867 C-90.91733173 421.10182794 -91.57027682 422.57422622 -92.22265625 424.046875 C-92.67378784 425.02860435 -92.67378784 425.02860435 -93.1340332 426.03016663 C-94.22886312 428.52743407 -95.03800835 430.47811388 -94.83764648 433.22924805 C-93.89513785 435.22167448 -92.84738126 436.64373657 -91.375 438.28515625 C-90.5694165 439.19612061 -90.5694165 439.19612061 -89.74755859 440.12548828 C-89.17086426 440.76470215 -88.59416992 441.40391602 -88 442.0625 C-86.80349945 443.41431396 -85.60819161 444.76718451 -84.4140625 446.12109375 C-83.82786133 446.78351074 -83.24166016 447.44592773 -82.63769531 448.12841797 C-80.49164696 450.58095325 -78.4261373 453.09277777 -76.375 455.625 C-73.13270988 459.62738744 -69.83611799 463.57599958 -66.5 467.5 C-63.14547904 471.44646124 -59.82778038 475.41642235 -56.5625 479.4375 C-53.10725849 483.68392382 -49.57302166 487.85296294 -46 492 C-41.67832458 497.01596403 -37.44520959 502.09175108 -33.26953125 507.23046875 C-28.91494206 512.54441666 -24.44921565 517.76526766 -20 523 C-14.0399173 530.01234558 -8.12241205 537.04960805 -2.3125 544.1875 C0.7243277 547.8809391 3.81960955 551.52298486 6.91625977 555.16625977 C9.7954532 558.55954109 12.63204237 561.98267786 15.4375 565.4375 C18.89274151 569.68392382 22.42697834 573.85296294 26 578 C30.32167542 583.01596403 34.55479041 588.09175108 38.73046875 593.23046875 C42.61730215 597.97360968 46.5958661 602.63892794 50.56640625 607.31201172 C53.0058926 610.18439057 55.44038966 613.06098836 57.875 615.9375 C58.31505371 616.45683105 58.75510742 616.97616211 59.20849609 617.51123047 C62.15657812 620.99308467 65.08292214 624.49218773 68 628 C66.28606242 631.98612911 63.62484608 635.20171616 60.9375 638.5625 C60.44362793 639.18527832 59.94975586 639.80805664 59.44091797 640.44970703 C55.8139933 645.01170735 52.13919681 649.53362853 48.4375 654.03515625 C41.39446383 662.60192621 34.38229871 671.19154678 27.5625 679.9375 C22.80748974 686.03350927 17.90970382 692.00475567 12.98291016 697.96240234 C9.32042457 702.39190062 5.69755001 706.84824354 2.12109375 711.34765625 C-0.73195967 714.91528658 -3.61650674 718.45695613 -6.5 722 C-10.01580965 726.32090365 -13.5272445 730.64434055 -17 735 C-20.56951949 739.46952654 -24.15444778 743.92640102 -27.75 748.375 C-28.58337891 749.41140625 -28.58337891 749.41140625 -29.43359375 750.46875 C-32.14673614 753.81911954 -34.8623194 757.02986545 -38 760 C-43.88739831 753.16121603 -49.63971009 746.27150029 -55.09399414 739.08032227 C-58.40865677 734.72639833 -61.8431004 730.48127666 -65.3125 726.25 C-69.80168685 720.7695912 -74.16363591 715.21226379 -78.4375 709.5625 C-83.43517398 702.96175568 -88.61457885 696.54004178 -93.90332031 690.17089844 C-99.39867805 683.54639964 -104.71315932 676.79121032 -110 670 C-115.7646762 662.60944377 -121.57558956 655.26341786 -127.5 648 C-133.88133442 640.17638634 -140.12198695 632.24928465 -146.33398438 624.29101562 C-151.65868334 617.4738463 -157.03241947 610.7033374 -162.5 604 C-168.88133442 596.17638634 -175.12198695 588.24928465 -181.33398438 580.29101562 C-186.65868334 573.4738463 -192.03241947 566.7033374 -197.5 560 C-203.88133442 552.17638634 -210.12198695 544.24928465 -216.33398438 536.29101562 C-221.61304861 529.53227207 -226.9435821 522.82463919 -232.375 516.1875 C-237.39940635 510.04507218 -242.24285965 503.78561571 -247.0300293 497.45727539 C-251.69804918 491.32028336 -256.5681918 485.36356724 -261.50756836 479.44360352 C-262.3449353 478.43898071 -262.3449353 478.43898071 -263.19921875 477.4140625 C-263.69252686 476.8257666 -264.18583496 476.2374707 -264.6940918 475.63134766 C-268.03974663 471.45193737 -268.03974663 471.45193737 -267.79174805 468.63208008 C-266.9345182 465.7823129 -265.79925246 463.4755512 -264.33203125 460.88671875 C-263.77596191 459.89889404 -263.21989258 458.91106934 -262.64697266 457.89331055 C-261.73890869 456.30643433 -261.73890869 456.30643433 -260.8125 454.6875 C-260.1839209 453.57737549 -259.5553418 452.46725098 -258.90771484 451.32348633 C-254.13467817 442.91920523 -249.27662655 434.56463861 -244.3894043 426.22631836 C-239.91857905 418.59554081 -235.50730897 410.93184709 -231.125 403.25 C-230.62495453 402.3735231 -230.62495453 402.3735231 -230.11480713 401.4793396 C-228.4199651 398.5080802 -226.72592016 395.53636728 -225.03222656 392.56445312 C-221.36157718 386.12464014 -217.68120089 379.69037884 -214.00256348 373.25512695 C-213.00425164 371.50866145 -212.00600579 369.76215826 -211.0078125 368.015625 C-210.67821533 367.43893066 -210.34861816 366.86223633 -210.0090332 366.26806641 C-207.98680507 362.72904377 -205.96689891 359.18870644 -203.94869995 355.64738464 C-202.25820925 352.68116606 -200.56684065 349.7154488 -198.875 346.75 C-198.54244202 346.1670517 -198.20988403 345.58410339 -197.86724854 344.98348999 C-193.25211953 336.89754031 -188.58378188 328.84427229 -183.875 320.8125 C-179.1547159 312.75985815 -174.54065335 304.65523578 -170 296.5 C-164.90151124 287.34286452 -159.68692184 278.26307238 -154.38623047 269.22167969 C-149.91721265 261.5920119 -145.50638369 253.93022514 -141.125 246.25 C-140.79163635 245.66568207 -140.45827271 245.08136414 -140.11480713 244.4793396 C-138.4199651 241.5080802 -136.72592016 238.53636728 -135.03222656 235.56445312 C-131.36157718 229.12464014 -127.68120089 222.69037884 -124.00256348 216.25512695 C-123.00425164 214.50866145 -122.00600579 212.76215826 -121.0078125 211.015625 C-120.51341675 210.1505835 -120.51341675 210.1505835 -120.0090332 209.26806641 C-117.98680507 205.72904377 -115.96689891 202.18870644 -113.94869995 198.64738464 C-112.25820925 195.68116606 -110.56684065 192.7154488 -108.875 189.75 C-108.54244202 189.1670517 -108.20988403 188.58410339 -107.86724854 187.98348999 C-103.25211953 179.89754031 -98.58378188 171.84427229 -93.875 163.8125 C-89.1547159 155.75985815 -84.54065335 147.65523578 -80 139.5 C-74.90151124 130.34286452 -69.68692184 121.26307238 -64.38623047 112.22167969 C-59.91721168 104.59201024 -55.50651115 96.93015345 -51.125 89.25 C-50.79196869 88.66634674 -50.45893738 88.08269348 -50.11581421 87.48135376 C-48.42200953 84.51240496 -46.72904238 81.54297977 -45.03662109 78.57324219 C-41.67347949 72.67198311 -38.306218 66.77307727 -34.9375 60.875 C-34.44234894 60.00794937 -34.44234894 60.00794937 -33.93719482 59.12338257 C-28.45059439 49.51772231 -22.92997522 39.93194882 -17.39599609 30.35351562 C-11.5635287 20.2549524 -5.77445501 10.13182579 0 0 Z M-203.625 421.0078125 C-209.5660329 429.7425454 -211.11508373 439.61343357 -210 450 C-207.28313377 461.61959172 -201.06328514 470.62768951 -191 477 C-181.0653113 482.23800094 -170.79627492 483.81836479 -159.75 480.875 C-149.72365811 477.37064749 -141.50544203 470.44549019 -136.42578125 461.10546875 C-131.87185734 450.94069302 -130.88635976 441.75202863 -134 431 C-138.45550228 419.77213425 -145.4804403 412.60867611 -156.05078125 406.890625 C-173.65178075 399.64516501 -192.20248011 406.89441053 -203.625 421.0078125 Z " fill="#F37640" transform="translate(268,643)"/>
<path d="M0 0 C4.94945648 4.56680943 7.98636787 7.93235561 8.48828125 14.76953125 C7.89825386 22.88568578 1.07918394 28.95153956 -4.1953125 34.5390625 C-6.36337798 36.84305685 -8.408696 39.19945211 -10.4375 41.625 C-14.29736012 45.99651599 -17.7972677 49.30160555 -23.8125 49.875 C-32.3181029 49.46113677 -39.48943122 43.14056272 -46 38.1875 C-64.69719725 24.31277869 -88.4013475 20.73979694 -111.16015625 23.68359375 C-123.40938735 25.61975314 -134.83174781 29.56571831 -144.6875 37.1875 C-145.37457031 37.71085938 -146.06164062 38.23421875 -146.76953125 38.7734375 C-158.36008315 48.21430769 -165.15141913 62.38138713 -166.6875 77.1875 C-167.86599574 95.83298623 -163.56815321 113.32398929 -151.375 127.75 C-137.81702026 141.58656837 -119.18377101 147.1119138 -100.29101562 147.59228516 C-73.53465274 147.8485282 -53.16772163 139.09218031 -31.4765625 123.9453125 C-27.81261583 121.63610241 -24.97895519 120.9971532 -20.6875 121.1875 C-15.5169007 122.80331228 -12.4147088 126.26523264 -8.7578125 130.08203125 C-6.81456116 132.0582812 -4.80716503 133.84198765 -2.6875 135.625 C3.64162433 141.07681997 9.65523691 146.34018468 10.8125 154.875 C10.687044 159.47505325 8.95138684 161.77711718 5.78515625 165 C-21.19356496 188.86743109 -56.00653992 200.21745026 -91.6875 201.1875 C-92.67492187 201.22746094 -93.66234375 201.26742188 -94.6796875 201.30859375 C-128.61919381 202.05790753 -164.53867967 194.44081993 -191.6875 173.1875 C-192.26097168 172.73890625 -192.83444336 172.2903125 -193.42529297 171.828125 C-216.03665697 153.8624246 -230.7182665 130.08611195 -234.6875 101.1875 C-235.09112778 96.07390183 -235.16592249 91.00287856 -235.125 85.875 C-235.12162628 85.20184753 -235.11825256 84.52869507 -235.11477661 83.83514404 C-235.03546065 72.8642377 -234.22143924 62.61173284 -230.6875 52.1875 C-230.45144043 51.48028809 -230.21538086 50.77307617 -229.97216797 50.04443359 C-219.61864299 20.11867443 -195.68247029 -2.38169069 -167.66503906 -16.11645508 C-117.82673635 -39.59355385 -42.70022257 -37.53189592 0 0 Z " fill="#F1793C" transform="translate(643.6875,890.8125)"/>
<path d="M0 0 C25.09295129 -1.41147851 45.42691577 9.37067256 63.8984375 25.67578125 C82.47904276 43.25320829 99.94222856 73.49324741 101.4609375 99.3203125 C101.35924497 105.68799601 98.89736699 109.42063166 95.125 114.375 C94.53074219 115.19589111 93.93648438 116.01678223 93.32421875 116.86254883 C91.57556474 119.26248245 89.79359522 121.63355137 88 124 C87.12181863 125.18316555 86.24414901 126.36671126 85.3671875 127.55078125 C82.95985573 130.74069447 80.49968809 133.88245244 78 137 C77.50000488 137.62471191 77.00000977 138.24942383 76.48486328 138.89306641 C69.58253615 147.49526736 62.55594164 155.98782251 55.39013672 164.37158203 C53.93465989 166.07653996 52.48473947 167.7861233 51.03515625 169.49609375 C45.30558207 176.23785576 39.4565069 182.84077548 33.44921875 189.3359375 C31.43126221 191.53090777 29.45196555 193.7466621 27.5 196 C23.2405395 200.90852115 18.82363689 205.67271692 14.421875 210.453125 C13.0697197 211.9241511 11.72223031 213.39946205 10.375 214.875 C-9.76548673 236.93362832 -9.76548673 236.93362832 -19.296875 246.2578125 C-21.80330346 248.82172785 -24.08552559 251.56537342 -26.359375 254.3359375 C-28.11294849 256.11456204 -29.71881589 257.01809901 -32 258 C-30.64087043 253.48915917 -28.82146005 249.33073144 -26.82836914 245.07714844 C6.51464475 173.90251436 30.53249085 88.72234514 3.1875 11.9375 C2.87329102 11.08559082 2.55908203 10.23368164 2.23535156 9.35595703 C1.94499023 8.56688965 1.65462891 7.77782227 1.35546875 6.96484375 C1.09403076 6.2699585 0.83259277 5.57507324 0.56323242 4.85913086 C0 3 0 3 0 0 Z " fill="#EEAA2D" transform="translate(377,43)"/>
</svg>
