<svg xmlns="http://www.w3.org/2000/svg" xmlns:xlink="http://www.w3.org/1999/xlink" version="1.1" x="0px" y="0px" viewBox="0 0 64 80" enable-background="new 0 0 64 64" xml:space="preserve"><g><g><path d="M56,57H8c-0.553,0-1-0.447-1-1V8c0-0.553,0.447-1,1-1h48c0.553,0,1,0.447,1,1v48C57,56.553,56.553,57,56,57z M9,55h46V9H9    V55z"/></g><g><path d="M32,29c-1.71,0-3-2.149-3-5s1.29-5,3-5s3,2.149,3,5S33.71,29,32,29z M32,21c-0.249,0-1,1.064-1,3s0.751,3,1,3s1-1.064,1-3    S32.249,21,32,21z"/></g><g><path d="M36,13h-8c-0.553,0-1-0.447-1-1s0.447-1,1-1h8c0.553,0,1,0.447,1,1S36.553,13,36,13z"/></g><g><path d="M24,17c-0.553,0-1-0.447-1-1v-3h-3c-0.553,0-1-0.447-1-1s0.447-1,1-1h4c0.553,0,1,0.447,1,1v4C25,16.553,24.553,17,24,17z    "/></g><g><path d="M40,17c-0.553,0-1-0.447-1-1v-4c0-0.553,0.447-1,1-1h4c0.553,0,1,0.447,1,1s-0.447,1-1,1h-3v3C41,16.553,40.553,17,40,17z    "/></g><g><path d="M34,17h-4c-0.553,0-1-0.447-1-1s0.447-1,1-1h4c0.553,0,1,0.447,1,1S34.553,17,34,17z"/></g><g><path d="M32,45c-1.71,0-3-2.149-3-5s1.29-5,3-5s3,2.149,3,5S33.71,45,32,45z M32,37c-0.249,0-1,1.064-1,3s0.751,3,1,3s1-1.064,1-3    S32.249,37,32,37z"/></g><g><path d="M36,53h-8c-0.553,0-1-0.447-1-1s0.447-1,1-1h8c0.553,0,1,0.447,1,1S36.553,53,36,53z"/></g><g><path d="M24,53h-4c-0.553,0-1-0.447-1-1s0.447-1,1-1h3v-3c0-0.553,0.447-1,1-1s1,0.447,1,1v4C25,52.553,24.553,53,24,53z"/></g><g><path d="M44,53h-4c-0.553,0-1-0.447-1-1v-4c0-0.553,0.447-1,1-1s1,0.447,1,1v3h3c0.553,0,1,0.447,1,1S44.553,53,44,53z"/></g><g><path d="M34,49h-4c-0.553,0-1-0.447-1-1s0.447-1,1-1h4c0.553,0,1,0.447,1,1S34.553,49,34,49z"/></g><g><path d="M24,35c-2.851,0-5-1.29-5-3s2.149-3,5-3s5,1.29,5,3S26.851,35,24,35z M24,31c-1.936,0-3,0.751-3,1s1.064,1,3,1    s3-0.751,3-1S25.936,31,24,31z"/></g><g><path d="M12,37c-0.553,0-1-0.447-1-1v-8c0-0.553,0.447-1,1-1s1,0.447,1,1v8C13,36.553,12.553,37,12,37z"/></g><g><path d="M12,45c-0.553,0-1-0.447-1-1v-4c0-0.553,0.447-1,1-1h4c0.553,0,1,0.447,1,1s-0.447,1-1,1h-3v3C13,44.553,12.553,45,12,45z    "/></g><g><path d="M16,25h-4c-0.553,0-1-0.447-1-1v-4c0-0.553,0.447-1,1-1s1,0.447,1,1v3h3c0.553,0,1,0.447,1,1S16.553,25,16,25z"/></g><g><path d="M16,35c-0.553,0-1-0.447-1-1v-4c0-0.553,0.447-1,1-1s1,0.447,1,1v4C17,34.553,16.553,35,16,35z"/></g><g><path d="M40,35c-2.851,0-5-1.29-5-3s2.149-3,5-3s5,1.29,5,3S42.851,35,40,35z M40,31c-1.936,0-3,0.751-3,1s1.064,1,3,1    s3-0.751,3-1S41.936,31,40,31z"/></g><g><path d="M52,37c-0.553,0-1-0.447-1-1v-8c0-0.553,0.447-1,1-1s1,0.447,1,1v8C53,36.553,52.553,37,52,37z"/></g><g><path d="M52,45c-0.553,0-1-0.447-1-1v-3h-3c-0.553,0-1-0.447-1-1s0.447-1,1-1h4c0.553,0,1,0.447,1,1v4C53,44.553,52.553,45,52,45z    "/></g><g><path d="M52,25h-4c-0.553,0-1-0.447-1-1s0.447-1,1-1h3v-3c0-0.553,0.447-1,1-1s1,0.447,1,1v4C53,24.553,52.553,25,52,25z"/></g><g><path d="M48,35c-0.553,0-1-0.447-1-1v-4c0-0.553,0.447-1,1-1s1,0.447,1,1v4C49,34.553,48.553,35,48,35z"/></g></g></svg>