<svg width="500" height="500" viewBox="0 0 500 500" fill="none" xmlns="http://www.w3.org/2000/svg">
<g clip-path="url(#clip0_0_5)">
<rect width="25" height="25" fill="#FF0DAD"/>
<rect y="25" width="25" height="25" fill="#E2E2E2"/>
<rect y="50" width="25" height="25" fill="#FF0DAD"/>
<rect y="75" width="25" height="25" fill="#E2E2E2"/>
<rect y="100" width="25" height="25" fill="#E2E2E2"/>
<rect y="125" width="25" height="25" fill="#FF0DAD"/>
<rect y="150" width="25" height="25" fill="#E2E2E2"/>
<rect y="175" width="25" height="25" fill="#E2E2E2"/>
<rect y="200" width="25" height="25" fill="#E2E2E2"/>
<rect y="225" width="25" height="25" fill="#FF0DAD"/>
<rect x="25" width="25" height="25" fill="#E2E2E2"/>
<rect x="25" y="25" width="25" height="25" fill="#E2E2E2"/>
<rect x="25" y="50" width="25" height="25" fill="#FF0DAD"/>
<rect x="25" y="75" width="25" height="25" fill="#E2E2E2"/>
<rect x="25" y="100" width="25" height="25" fill="#E2E2E2"/>
<rect x="25" y="125" width="25" height="25" fill="#E2E2E2"/>
<rect x="25" y="150" width="25" height="25" fill="#FF0DAD"/>
<rect x="25" y="175" width="25" height="25" fill="#E2E2E2"/>
<rect x="25" y="200" width="25" height="25" fill="#E2E2E2"/>
<rect x="25" y="225" width="25" height="25" fill="#FF0DAD"/>
<rect x="50" width="25" height="25" fill="#FF0DAD"/>
<rect x="50" y="25" width="25" height="25" fill="#FF0DAD"/>
<rect x="50" y="50" width="25" height="25" fill="#E2E2E2"/>
<rect x="50" y="75" width="25" height="25" fill="#FF0DAD"/>
<rect x="50" y="100" width="25" height="25" fill="#FF0DAD"/>
<rect x="50" y="125" width="25" height="25" fill="#E2E2E2"/>
<rect x="50" y="150" width="25" height="25" fill="#E2E2E2"/>
<rect x="50" y="175" width="25" height="25" fill="#FF0DAD"/>
<rect x="50" y="200" width="25" height="25" fill="#FF0DAD"/>
<rect x="50" y="225" width="25" height="25" fill="#E2E2E2"/>
<rect x="75" width="25" height="25" fill="#E2E2E2"/>
<rect x="75" y="25" width="25" height="25" fill="#E2E2E2"/>
<rect x="75" y="50" width="25" height="25" fill="#FF0DAD"/>
<rect x="75" y="75" width="25" height="25" fill="#E2E2E2"/>
<rect x="75" y="100" width="25" height="25" fill="#FF0DAD"/>
<rect x="75" y="125" width="25" height="25" fill="#E2E2E2"/>
<rect x="75" y="150" width="25" height="25" fill="#E2E2E2"/>
<rect x="75" y="175" width="25" height="25" fill="#FF0DAD"/>
<rect x="75" y="200" width="25" height="25" fill="#E2E2E2"/>
<rect x="75" y="225" width="25" height="25" fill="#FF0DAD"/>
<rect x="100" width="25" height="25" fill="#E2E2E2"/>
<rect x="100" y="25" width="25" height="25" fill="#E2E2E2"/>
<rect x="100" y="50" width="25" height="25" fill="#FF0DAD"/>
<rect x="100" y="75" width="25" height="25" fill="#FF0DAD"/>
<rect x="100" y="100" width="25" height="25" fill="#FF0DAD"/>
<rect x="100" y="125" width="25" height="25" fill="#E2E2E2"/>
<rect x="100" y="150" width="25" height="25" fill="#E2E2E2"/>
<rect x="100" y="175" width="25" height="25" fill="#FF0DAD"/>
<rect x="100" y="200" width="25" height="25" fill="#E2E2E2"/>
<rect x="100" y="225" width="25" height="25" fill="#FF0DAD"/>
<rect x="125" width="25" height="25" fill="#FF0DAD"/>
<rect x="125" y="25" width="25" height="25" fill="#E2E2E2"/>
<rect x="125" y="50" width="25" height="25" fill="#E2E2E2"/>
<rect x="125" y="75" width="25" height="25" fill="#E2E2E2"/>
<rect x="125" y="100" width="25" height="25" fill="#E2E2E2"/>
<rect x="125" y="125" width="25" height="25" fill="#FF0DAD"/>
<rect x="125" y="150" width="25" height="25" fill="#FF0DAD"/>
<rect x="125" y="175" width="25" height="25" fill="#E2E2E2"/>
<rect x="125" y="200" width="25" height="25" fill="#FF0DAD"/>
<rect x="125" y="225" width="25" height="25" fill="#E2E2E2"/>
<rect x="150" width="25" height="25" fill="#E2E2E2"/>
<rect x="150" y="25" width="25" height="25" fill="#FF0DAD"/>
<rect x="150" y="50" width="25" height="25" fill="#E2E2E2"/>
<rect x="150" y="75" width="25" height="25" fill="#E2E2E2"/>
<rect x="150" y="100" width="25" height="25" fill="#E2E2E2"/>
<rect x="150" y="125" width="25" height="25" fill="#FF0DAD"/>
<rect x="150" y="150" width="25" height="25" fill="#FF0DAD"/>
<rect x="150" y="175" width="25" height="25" fill="#E2E2E2"/>
<rect x="150" y="200" width="25" height="25" fill="#E2E2E2"/>
<rect x="150" y="225" width="25" height="25" fill="#FF0DAD"/>
<rect x="175" width="25" height="25" fill="#E2E2E2"/>
<rect x="175" y="25" width="25" height="25" fill="#E2E2E2"/>
<rect x="175" y="50" width="25" height="25" fill="#FF0DAD"/>
<rect x="175" y="75" width="25" height="25" fill="#FF0DAD"/>
<rect x="175" y="100" width="25" height="25" fill="#FF0DAD"/>
<rect x="175" y="125" width="25" height="25" fill="#FF0DAD"/>
<rect x="175" y="150" width="25" height="25" fill="#E2E2E2"/>
<rect x="175" y="175" width="25" height="25" fill="#FF0DAD"/>
<rect x="175" y="200" width="25" height="25" fill="#E2E2E2"/>
<rect x="175" y="225" width="25" height="25" fill="#FF0DAD"/>
<rect x="200" width="25" height="25" fill="#E2E2E2"/>
<rect x="200" y="25" width="25" height="25" fill="#FF0DAD"/>
<rect x="200" y="50" width="25" height="25" fill="#FF0DAD"/>
<rect x="200" y="75" width="25" height="25" fill="#FF0DAD"/>
<rect x="200" y="100" width="25" height="25" fill="#E2E2E2"/>
<rect x="200" y="125" width="25" height="25" fill="#E2E2E2"/>
<rect x="200" y="150" width="25" height="25" fill="#FF0DAD"/>
<rect x="200" y="175" width="25" height="25" fill="#E2E2E2"/>
<rect x="200" y="200" width="25" height="25" fill="#FF0DAD"/>
<rect x="200" y="225" width="25" height="25" fill="#E2E2E2"/>
<rect x="225" width="25" height="25" fill="#FF0DAD"/>
<rect x="225" y="25" width="25" height="25" fill="#E2E2E2"/>
<rect x="225" y="50" width="25" height="25" fill="#E2E2E2"/>
<rect x="225" y="75" width="25" height="25" fill="#E2E2E2"/>
<rect x="225" y="100" width="25" height="25" fill="#FF0DAD"/>
<rect x="225" y="125" width="25" height="25" fill="#FF0DAD"/>
<rect x="225" y="150" width="25" height="25" fill="#E2E2E2"/>
<rect x="225" y="175" width="25" height="25" fill="#FF0DAD"/>
<rect x="225" y="200" width="25" height="25" fill="#E2E2E2"/>
<rect x="225" y="225" width="25" height="25" fill="#FF0DAD"/>
<rect x="250" width="25" height="25" fill="#FF0DAD"/>
<rect x="250" y="25" width="25" height="25" fill="#E2E2E2"/>
<rect x="250" y="50" width="25" height="25" fill="#E2E2E2"/>
<rect x="250" y="75" width="25" height="25" fill="#E2E2E2"/>
<rect x="250" y="100" width="25" height="25" fill="#FF0DAD"/>
<rect x="250" y="125" width="25" height="25" fill="#FF0DAD"/>
<rect x="250" y="150" width="25" height="25" fill="#E2E2E2"/>
<rect x="250" y="175" width="25" height="25" fill="#FF0DAD"/>
<rect x="250" y="200" width="25" height="25" fill="#E2E2E2"/>
<rect x="250" y="225" width="25" height="25" fill="#FF0DAD"/>
<rect x="275" width="25" height="25" fill="#E2E2E2"/>
<rect x="275" y="25" width="25" height="25" fill="#FF0DAD"/>
<rect x="275" y="50" width="25" height="25" fill="#FF0DAD"/>
<rect x="275" y="75" width="25" height="25" fill="#FF0DAD"/>
<rect x="275" y="100" width="25" height="25" fill="#E2E2E2"/>
<rect x="275" y="125" width="25" height="25" fill="#E2E2E2"/>
<rect x="275" y="150" width="25" height="25" fill="#FF0DAD"/>
<rect x="275" y="175" width="25" height="25" fill="#E2E2E2"/>
<rect x="275" y="200" width="25" height="25" fill="#FF0DAD"/>
<rect x="275" y="225" width="25" height="25" fill="#E2E2E2"/>
<rect x="300" width="25" height="25" fill="#E2E2E2"/>
<rect x="300" y="25" width="25" height="25" fill="#E2E2E2"/>
<rect x="300" y="50" width="25" height="25" fill="#FF0DAD"/>
<rect x="300" y="75" width="25" height="25" fill="#FF0DAD"/>
<rect x="300" y="100" width="25" height="25" fill="#FF0DAD"/>
<rect x="300" y="125" width="25" height="25" fill="#FF0DAD"/>
<rect x="300" y="150" width="25" height="25" fill="#E2E2E2"/>
<rect x="300" y="175" width="25" height="25" fill="#FF0DAD"/>
<rect x="300" y="200" width="25" height="25" fill="#E2E2E2"/>
<rect x="300" y="225" width="25" height="25" fill="#FF0DAD"/>
<rect x="325" width="25" height="25" fill="#E2E2E2"/>
<rect x="325" y="25" width="25" height="25" fill="#FF0DAD"/>
<rect x="325" y="50" width="25" height="25" fill="#E2E2E2"/>
<rect x="325" y="75" width="25" height="25" fill="#E2E2E2"/>
<rect x="325" y="100" width="25" height="25" fill="#E2E2E2"/>
<rect x="325" y="125" width="25" height="25" fill="#FF0DAD"/>
<rect x="325" y="150" width="25" height="25" fill="#FF0DAD"/>
<rect x="325" y="175" width="25" height="25" fill="#E2E2E2"/>
<rect x="325" y="200" width="25" height="25" fill="#E2E2E2"/>
<rect x="325" y="225" width="25" height="25" fill="#FF0DAD"/>
<rect x="350" width="25" height="25" fill="#FF0DAD"/>
<rect x="350" y="25" width="25" height="25" fill="#E2E2E2"/>
<rect x="350" y="50" width="25" height="25" fill="#E2E2E2"/>
<rect x="350" y="75" width="25" height="25" fill="#E2E2E2"/>
<rect x="350" y="100" width="25" height="25" fill="#E2E2E2"/>
<rect x="350" y="125" width="25" height="25" fill="#FF0DAD"/>
<rect x="350" y="150" width="25" height="25" fill="#FF0DAD"/>
<rect x="350" y="175" width="25" height="25" fill="#E2E2E2"/>
<rect x="350" y="200" width="25" height="25" fill="#FF0DAD"/>
<rect x="350" y="225" width="25" height="25" fill="#E2E2E2"/>
<rect x="375" width="25" height="25" fill="#E2E2E2"/>
<rect x="375" y="25" width="25" height="25" fill="#E2E2E2"/>
<rect x="375" y="50" width="25" height="25" fill="#FF0DAD"/>
<rect x="375" y="75" width="25" height="25" fill="#FF0DAD"/>
<rect x="375" y="100" width="25" height="25" fill="#FF0DAD"/>
<rect x="375" y="125" width="25" height="25" fill="#E2E2E2"/>
<rect x="375" y="150" width="25" height="25" fill="#E2E2E2"/>
<rect x="375" y="175" width="25" height="25" fill="#FF0DAD"/>
<rect x="375" y="200" width="25" height="25" fill="#E2E2E2"/>
<rect x="375" y="225" width="25" height="25" fill="#FF0DAD"/>
<rect x="400" width="25" height="25" fill="#E2E2E2"/>
<rect x="400" y="25" width="25" height="25" fill="#E2E2E2"/>
<rect x="400" y="50" width="25" height="25" fill="#FF0DAD"/>
<rect x="400" y="75" width="25" height="25" fill="#E2E2E2"/>
<rect x="400" y="100" width="25" height="25" fill="#FF0DAD"/>
<rect x="400" y="125" width="25" height="25" fill="#E2E2E2"/>
<rect x="400" y="150" width="25" height="25" fill="#E2E2E2"/>
<rect x="400" y="175" width="25" height="25" fill="#FF0DAD"/>
<rect x="400" y="200" width="25" height="25" fill="#E2E2E2"/>
<rect x="400" y="225" width="25" height="25" fill="#FF0DAD"/>
<rect x="425" width="25" height="25" fill="#FF0DAD"/>
<rect x="425" y="25" width="25" height="25" fill="#FF0DAD"/>
<rect x="425" y="50" width="25" height="25" fill="#E2E2E2"/>
<rect x="425" y="75" width="25" height="25" fill="#FF0DAD"/>
<rect x="425" y="100" width="25" height="25" fill="#FF0DAD"/>
<rect x="425" y="125" width="25" height="25" fill="#E2E2E2"/>
<rect x="425" y="150" width="25" height="25" fill="#E2E2E2"/>
<rect x="425" y="175" width="25" height="25" fill="#FF0DAD"/>
<rect x="425" y="200" width="25" height="25" fill="#FF0DAD"/>
<rect x="425" y="225" width="25" height="25" fill="#E2E2E2"/>
<rect x="450" width="25" height="25" fill="#E2E2E2"/>
<rect x="450" y="25" width="25" height="25" fill="#E2E2E2"/>
<rect x="450" y="50" width="25" height="25" fill="#FF0DAD"/>
<rect x="450" y="75" width="25" height="25" fill="#E2E2E2"/>
<rect x="450" y="100" width="25" height="25" fill="#E2E2E2"/>
<rect x="450" y="125" width="25" height="25" fill="#E2E2E2"/>
<rect x="450" y="150" width="25" height="25" fill="#FF0DAD"/>
<rect x="450" y="175" width="25" height="25" fill="#E2E2E2"/>
<rect x="450" y="200" width="25" height="25" fill="#E2E2E2"/>
<rect x="450" y="225" width="25" height="25" fill="#FF0DAD"/>
<rect x="475" width="25" height="25" fill="#FF0DAD"/>
<rect x="475" y="25" width="25" height="25" fill="#E2E2E2"/>
<rect x="475" y="50" width="25" height="25" fill="#FF0DAD"/>
<rect x="475" y="75" width="25" height="25" fill="#E2E2E2"/>
<rect x="475" y="100" width="25" height="25" fill="#E2E2E2"/>
<rect x="475" y="125" width="25" height="25" fill="#FF0DAD"/>
<rect x="475" y="150" width="25" height="25" fill="#E2E2E2"/>
<rect x="475" y="175" width="25" height="25" fill="#E2E2E2"/>
<rect x="475" y="200" width="25" height="25" fill="#E2E2E2"/>
<rect x="475" y="225" width="25" height="25" fill="#FF0DAD"/>
<rect y="250" width="25" height="25" fill="#FF0DAD"/>
<rect y="275" width="25" height="25" fill="#E2E2E2"/>
<rect y="300" width="25" height="25" fill="#E2E2E2"/>
<rect y="325" width="25" height="25" fill="#E2E2E2"/>
<rect y="350" width="25" height="25" fill="#FF0DAD"/>
<rect y="375" width="25" height="25" fill="#E2E2E2"/>
<rect y="400" width="25" height="25" fill="#E2E2E2"/>
<rect y="425" width="25" height="25" fill="#FF0DAD"/>
<rect y="450" width="25" height="25" fill="#E2E2E2"/>
<rect y="475" width="25" height="25" fill="#FF0DAD"/>
<rect x="25" y="250" width="25" height="25" fill="#FF0DAD"/>
<rect x="25" y="275" width="25" height="25" fill="#E2E2E2"/>
<rect x="25" y="300" width="25" height="25" fill="#E2E2E2"/>
<rect x="25" y="325" width="25" height="25" fill="#FF0DAD"/>
<rect x="25" y="350" width="25" height="25" fill="#E2E2E2"/>
<rect x="25" y="375" width="25" height="25" fill="#E2E2E2"/>
<rect x="25" y="400" width="25" height="25" fill="#E2E2E2"/>
<rect x="25" y="425" width="25" height="25" fill="#FF0DAD"/>
<rect x="25" y="450" width="25" height="25" fill="#E2E2E2"/>
<rect x="25" y="475" width="25" height="25" fill="#E2E2E2"/>
<rect x="50" y="250" width="25" height="25" fill="#E2E2E2"/>
<rect x="50" y="275" width="25" height="25" fill="#FF0DAD"/>
<rect x="50" y="300" width="25" height="25" fill="#FF0DAD"/>
<rect x="50" y="325" width="25" height="25" fill="#E2E2E2"/>
<rect x="50" y="350" width="25" height="25" fill="#E2E2E2"/>
<rect x="50" y="375" width="25" height="25" fill="#FF0DAD"/>
<rect x="50" y="400" width="25" height="25" fill="#FF0DAD"/>
<rect x="50" y="425" width="25" height="25" fill="#E2E2E2"/>
<rect x="50" y="450" width="25" height="25" fill="#FF0DAD"/>
<rect x="50" y="475" width="25" height="25" fill="#FF0DAD"/>
<rect x="75" y="250" width="25" height="25" fill="#FF0DAD"/>
<rect x="75" y="275" width="25" height="25" fill="#E2E2E2"/>
<rect x="75" y="300" width="25" height="25" fill="#FF0DAD"/>
<rect x="75" y="325" width="25" height="25" fill="#E2E2E2"/>
<rect x="75" y="350" width="25" height="25" fill="#E2E2E2"/>
<rect x="75" y="375" width="25" height="25" fill="#FF0DAD"/>
<rect x="75" y="400" width="25" height="25" fill="#E2E2E2"/>
<rect x="75" y="425" width="25" height="25" fill="#FF0DAD"/>
<rect x="75" y="450" width="25" height="25" fill="#E2E2E2"/>
<rect x="75" y="475" width="25" height="25" fill="#E2E2E2"/>
<rect x="100" y="250" width="25" height="25" fill="#FF0DAD"/>
<rect x="100" y="275" width="25" height="25" fill="#E2E2E2"/>
<rect x="100" y="300" width="25" height="25" fill="#FF0DAD"/>
<rect x="100" y="325" width="25" height="25" fill="#E2E2E2"/>
<rect x="100" y="350" width="25" height="25" fill="#E2E2E2"/>
<rect x="100" y="375" width="25" height="25" fill="#FF0DAD"/>
<rect x="100" y="400" width="25" height="25" fill="#FF0DAD"/>
<rect x="100" y="425" width="25" height="25" fill="#FF0DAD"/>
<rect x="100" y="450" width="25" height="25" fill="#E2E2E2"/>
<rect x="100" y="475" width="25" height="25" fill="#E2E2E2"/>
<rect x="125" y="250" width="25" height="25" fill="#E2E2E2"/>
<rect x="125" y="275" width="25" height="25" fill="#FF0DAD"/>
<rect x="125" y="300" width="25" height="25" fill="#E2E2E2"/>
<rect x="125" y="325" width="25" height="25" fill="#FF0DAD"/>
<rect x="125" y="350" width="25" height="25" fill="#FF0DAD"/>
<rect x="125" y="375" width="25" height="25" fill="#E2E2E2"/>
<rect x="125" y="400" width="25" height="25" fill="#E2E2E2"/>
<rect x="125" y="425" width="25" height="25" fill="#E2E2E2"/>
<rect x="125" y="450" width="25" height="25" fill="#E2E2E2"/>
<rect x="125" y="475" width="25" height="25" fill="#FF0DAD"/>
<rect x="150" y="250" width="25" height="25" fill="#FF0DAD"/>
<rect x="150" y="275" width="25" height="25" fill="#E2E2E2"/>
<rect x="150" y="300" width="25" height="25" fill="#E2E2E2"/>
<rect x="150" y="325" width="25" height="25" fill="#FF0DAD"/>
<rect x="150" y="350" width="25" height="25" fill="#FF0DAD"/>
<rect x="150" y="375" width="25" height="25" fill="#E2E2E2"/>
<rect x="150" y="400" width="25" height="25" fill="#E2E2E2"/>
<rect x="150" y="425" width="25" height="25" fill="#E2E2E2"/>
<rect x="150" y="450" width="25" height="25" fill="#FF0DAD"/>
<rect x="150" y="475" width="25" height="25" fill="#E2E2E2"/>
<rect x="175" y="250" width="25" height="25" fill="#FF0DAD"/>
<rect x="175" y="275" width="25" height="25" fill="#E2E2E2"/>
<rect x="175" y="300" width="25" height="25" fill="#FF0DAD"/>
<rect x="175" y="325" width="25" height="25" fill="#E2E2E2"/>
<rect x="175" y="350" width="25" height="25" fill="#FF0DAD"/>
<rect x="175" y="375" width="25" height="25" fill="#FF0DAD"/>
<rect x="175" y="400" width="25" height="25" fill="#FF0DAD"/>
<rect x="175" y="425" width="25" height="25" fill="#FF0DAD"/>
<rect x="175" y="450" width="25" height="25" fill="#E2E2E2"/>
<rect x="175" y="475" width="25" height="25" fill="#E2E2E2"/>
<rect x="200" y="250" width="25" height="25" fill="#E2E2E2"/>
<rect x="200" y="275" width="25" height="25" fill="#FF0DAD"/>
<rect x="200" y="300" width="25" height="25" fill="#E2E2E2"/>
<rect x="200" y="325" width="25" height="25" fill="#FF0DAD"/>
<rect x="200" y="350" width="25" height="25" fill="#E2E2E2"/>
<rect x="200" y="375" width="25" height="25" fill="#E2E2E2"/>
<rect x="200" y="400" width="25" height="25" fill="#FF0DAD"/>
<rect x="200" y="425" width="25" height="25" fill="#FF0DAD"/>
<rect x="200" y="450" width="25" height="25" fill="#FF0DAD"/>
<rect x="200" y="475" width="25" height="25" fill="#E2E2E2"/>
<rect x="225" y="250" width="25" height="25" fill="#FF0DAD"/>
<rect x="225" y="275" width="25" height="25" fill="#E2E2E2"/>
<rect x="225" y="300" width="25" height="25" fill="#FF0DAD"/>
<rect x="225" y="325" width="25" height="25" fill="#E2E2E2"/>
<rect x="225" y="350" width="25" height="25" fill="#FF0DAD"/>
<rect x="225" y="375" width="25" height="25" fill="#FF0DAD"/>
<rect x="225" y="400" width="25" height="25" fill="#E2E2E2"/>
<rect x="225" y="425" width="25" height="25" fill="#E2E2E2"/>
<rect x="225" y="450" width="25" height="25" fill="#E2E2E2"/>
<rect x="225" y="475" width="25" height="25" fill="#FF0DAD"/>
<rect x="250" y="250" width="25" height="25" fill="#FF0DAD"/>
<rect x="250" y="275" width="25" height="25" fill="#E2E2E2"/>
<rect x="250" y="300" width="25" height="25" fill="#FF0DAD"/>
<rect x="250" y="325" width="25" height="25" fill="#E2E2E2"/>
<rect x="250" y="350" width="25" height="25" fill="#FF0DAD"/>
<rect x="250" y="375" width="25" height="25" fill="#FF0DAD"/>
<rect x="250" y="400" width="25" height="25" fill="#E2E2E2"/>
<rect x="250" y="425" width="25" height="25" fill="#E2E2E2"/>
<rect x="275" y="450" width="25" height="25" fill="#FF0DAD"/>
<rect x="250" y="475" width="25" height="25" fill="#FF0DAD"/>
<rect x="275" y="250" width="25" height="25" fill="#E2E2E2"/>
<rect x="275" y="275" width="25" height="25" fill="#FF0DAD"/>
<rect x="275" y="300" width="25" height="25" fill="#E2E2E2"/>
<rect x="275" y="325" width="25" height="25" fill="#FF0DAD"/>
<rect x="275" y="350" width="25" height="25" fill="#E2E2E2"/>
<rect x="275" y="375" width="25" height="25" fill="#E2E2E2"/>
<rect x="275" y="400" width="25" height="25" fill="#FF0DAD"/>
<rect x="275" y="425" width="25" height="25" fill="#FF0DAD"/>
<rect x="250" y="450" width="25" height="25" fill="#E2E2E2"/>
<rect x="275" y="475" width="25" height="25" fill="#E2E2E2"/>
<rect x="300" y="250" width="25" height="25" fill="#FF0DAD"/>
<rect x="300" y="275" width="25" height="25" fill="#E2E2E2"/>
<rect x="300" y="300" width="25" height="25" fill="#FF0DAD"/>
<rect x="300" y="325" width="25" height="25" fill="#E2E2E2"/>
<rect x="300" y="350" width="25" height="25" fill="#FF0DAD"/>
<rect x="300" y="375" width="25" height="25" fill="#FF0DAD"/>
<rect x="300" y="400" width="25" height="25" fill="#FF0DAD"/>
<rect x="300" y="425" width="25" height="25" fill="#FF0DAD"/>
<rect x="300" y="450" width="25" height="25" fill="#E2E2E2"/>
<rect x="300" y="475" width="25" height="25" fill="#E2E2E2"/>
<rect x="325" y="250" width="25" height="25" fill="#FF0DAD"/>
<rect x="325" y="275" width="25" height="25" fill="#E2E2E2"/>
<rect x="325" y="300" width="25" height="25" fill="#E2E2E2"/>
<rect x="325" y="325" width="25" height="25" fill="#FF0DAD"/>
<rect x="325" y="350" width="25" height="25" fill="#FF0DAD"/>
<rect x="325" y="375" width="25" height="25" fill="#E2E2E2"/>
<rect x="325" y="400" width="25" height="25" fill="#E2E2E2"/>
<rect x="325" y="425" width="25" height="25" fill="#E2E2E2"/>
<rect x="325" y="450" width="25" height="25" fill="#FF0DAD"/>
<rect x="325" y="475" width="25" height="25" fill="#E2E2E2"/>
<rect x="350" y="250" width="25" height="25" fill="#E2E2E2"/>
<rect x="350" y="275" width="25" height="25" fill="#FF0DAD"/>
<rect x="350" y="300" width="25" height="25" fill="#E2E2E2"/>
<rect x="350" y="325" width="25" height="25" fill="#FF0DAD"/>
<rect x="350" y="350" width="25" height="25" fill="#FF0DAD"/>
<rect x="350" y="375" width="25" height="25" fill="#E2E2E2"/>
<rect x="350" y="400" width="25" height="25" fill="#E2E2E2"/>
<rect x="350" y="425" width="25" height="25" fill="#E2E2E2"/>
<rect x="350" y="450" width="25" height="25" fill="#E2E2E2"/>
<rect x="350" y="475" width="25" height="25" fill="#FF0DAD"/>
<rect x="375" y="250" width="25" height="25" fill="#FF0DAD"/>
<rect x="375" y="275" width="25" height="25" fill="#E2E2E2"/>
<rect x="375" y="300" width="25" height="25" fill="#FF0DAD"/>
<rect x="375" y="325" width="25" height="25" fill="#E2E2E2"/>
<rect x="375" y="350" width="25" height="25" fill="#E2E2E2"/>
<rect x="375" y="375" width="25" height="25" fill="#FF0DAD"/>
<rect x="375" y="400" width="25" height="25" fill="#FF0DAD"/>
<rect x="375" y="425" width="25" height="25" fill="#FF0DAD"/>
<rect x="375" y="450" width="25" height="25" fill="#E2E2E2"/>
<rect x="375" y="475" width="25" height="25" fill="#E2E2E2"/>
<rect x="400" y="250" width="25" height="25" fill="#FF0DAD"/>
<rect x="400" y="275" width="25" height="25" fill="#E2E2E2"/>
<rect x="400" y="300" width="25" height="25" fill="#FF0DAD"/>
<rect x="400" y="325" width="25" height="25" fill="#E2E2E2"/>
<rect x="400" y="350" width="25" height="25" fill="#E2E2E2"/>
<rect x="400" y="375" width="25" height="25" fill="#FF0DAD"/>
<rect x="400" y="400" width="25" height="25" fill="#E2E2E2"/>
<rect x="400" y="425" width="25" height="25" fill="#FF0DAD"/>
<rect x="400" y="450" width="25" height="25" fill="#E2E2E2"/>
<rect x="400" y="475" width="25" height="25" fill="#E2E2E2"/>
<rect x="425" y="250" width="25" height="25" fill="#E2E2E2"/>
<rect x="425" y="275" width="25" height="25" fill="#FF0DAD"/>
<rect x="425" y="300" width="25" height="25" fill="#FF0DAD"/>
<rect x="425" y="325" width="25" height="25" fill="#E2E2E2"/>
<rect x="425" y="350" width="25" height="25" fill="#E2E2E2"/>
<rect x="425" y="375" width="25" height="25" fill="#FF0DAD"/>
<rect x="425" y="400" width="25" height="25" fill="#FF0DAD"/>
<rect x="425" y="425" width="25" height="25" fill="#E2E2E2"/>
<rect x="425" y="450" width="25" height="25" fill="#FF0DAD"/>
<rect x="425" y="475" width="25" height="25" fill="#FF0DAD"/>
<rect x="450" y="250" width="25" height="25" fill="#FF0DAD"/>
<rect x="450" y="275" width="25" height="25" fill="#E2E2E2"/>
<rect x="450" y="300" width="25" height="25" fill="#E2E2E2"/>
<rect x="450" y="325" width="25" height="25" fill="#FF0DAD"/>
<rect x="450" y="350" width="25" height="25" fill="#E2E2E2"/>
<rect x="450" y="375" width="25" height="25" fill="#E2E2E2"/>
<rect x="450" y="400" width="25" height="25" fill="#E2E2E2"/>
<rect x="450" y="425" width="25" height="25" fill="#FF0DAD"/>
<rect x="450" y="450" width="25" height="25" fill="#E2E2E2"/>
<rect x="450" y="475" width="25" height="25" fill="#E2E2E2"/>
<rect x="475" y="250" width="25" height="25" fill="#FF0DAD"/>
<rect x="475" y="275" width="25" height="25" fill="#E2E2E2"/>
<rect x="475" y="300" width="25" height="25" fill="#E2E2E2"/>
<rect x="475" y="325" width="25" height="25" fill="#E2E2E2"/>
<rect x="475" y="350" width="25" height="25" fill="#FF0DAD"/>
<rect x="475" y="375" width="25" height="25" fill="#E2E2E2"/>
<rect x="475" y="400" width="25" height="25" fill="#E2E2E2"/>
<rect x="475" y="425" width="25" height="25" fill="#FF0DAD"/>
<rect x="475" y="450" width="25" height="25" fill="#E2E2E2"/>
<rect x="475" y="475" width="25" height="25" fill="#FF0DAD"/>
</g>
<defs>
<clipPath id="clip0_0_5">
<rect width="500" height="500" fill="white"/>
</clipPath>
</defs>
</svg>
