<svg xmlns="http://www.w3.org/2000/svg" width="560" height="559.988">
    <g>
        <path d="M281.916 116.508s-170.861-28.4-215.479-37.516c-51.655-10.557-99.068 48.827-36.856 65.794s-26.834 68.44 36.1 53.728c79.839-18.664 210.766-56.556 210.766-56.556l1.132-13.2Z" fill="#ef8c2e"/>
        <path d="M298.505 117.637s106.874-19.407 141.58-26.959c38.553-8.389 127.266-22.874 119.428-8.389-39.684 73.335 3.864 130.551-80.593 107.928-7.33-1.963-171.083-49.11-171.083-49.11l-7.447-20.265" fill="#ef8c2e"/>
        <g>
            <path d="M254.942 193.147q-.992 8.962-1.98 17.924-2.574 23.323-5.134 46.645-3.549 32.336-7.074 64.674-3.922 36-7.8 72.012-3.7 34.326-7.32 68.66-.4 3.759-.79 7.52a2.135 2.135 0 0 0 2.121 2.121 2.17 2.17 0 0 0 2.121-2.121q3.54-33.774 7.18-67.537 3.878-36.09 7.809-72.174 3.6-33.063 7.227-66.122 2.707-24.689 5.43-49.377l1.657-15.007c.255-2.3.645-4.625.767-6.935 0-.093.021-.187.031-.282a2.134 2.134 0 0 0-2.121-2.121 2.171 2.171 0 0 0-2.121 2.121Z" fill="#030504"/>
        </g>
        <g>
            <path d="M323.248 193.147q.992 8.962 1.98 17.924 2.574 23.323 5.134 46.645 3.549 32.336 7.074 64.674 3.922 36 7.8 72.012 3.694 34.326 7.32 68.66.4 3.759.79 7.52a2.183 2.183 0 0 0 2.121 2.121 2.135 2.135 0 0 0 2.121-2.121q-3.541-33.774-7.181-67.537-3.877-36.09-7.809-72.174-3.6-33.063-7.226-66.122-2.709-24.689-5.431-49.377c-.806-7.314-1.573-14.633-2.423-21.943l-.032-.282a2.183 2.183 0 0 0-2.121-2.121 2.135 2.135 0 0 0-2.121 2.121Z" fill="#030504"/>
        </g>
        <g>
            <path d="M238.462 191.673a142.117 142.117 0 0 0 20.931 3.621c7.114.816 14.275 1.29 21.43 1.545a291.367 291.367 0 0 0 43.163-1.751q6-.681 11.968-1.6 2.852-.442 5.695-.944a20.6 20.6 0 0 0 6.011-1.573c1.865-.957.8-3.5-.988-3.65a20.567 20.567 0 0 0-5.3.644q-2.552.462-5.114.873-5.057.812-10.146 1.43-10.534 1.276-21.141 1.786a315.1 315.1 0 0 1-42.656-.805c-7.838-.684-15.635-1.738-23.469-2.442-1.667-.15-1.947 2.45-.389 2.87Z" fill="#030504"/>
        </g>
        <g>
            <path d="M238.462 188.185a142.334 142.334 0 0 0 20.931 3.621c7.114.815 14.275 1.289 21.43 1.544a291.358 291.358 0 0 0 43.163-1.751q6-.681 11.968-1.6 2.852-.443 5.695-.944a20.652 20.652 0 0 0 6.011-1.573c1.865-.958.8-3.5-.988-3.65a20.5 20.5 0 0 0-5.3.644q-2.552.461-5.114.872-5.057.813-10.146 1.431-10.534 1.275-21.141 1.786a315.093 315.093 0 0 1-42.656-.806c-7.838-.683-15.635-1.738-23.469-2.442-1.667-.149-1.947 2.45-.389 2.871Z" fill="#030504"/>
        </g>
        <g>
            <path d="M234.881 158.32a200 200 0 0 0 22.261 2.428c7.587.515 15.192.794 22.795.96 15.231.333 30.5-.059 45.708-1q6.315-.389 12.621-.926 3.063-.262 6.123-.56a24.167 24.167 0 0 0 6.387-1.006 2.035 2.035 0 0 0 1.437-1.888 1.962 1.962 0 0 0-1.437-1.888 11.063 11.063 0 0 0-2.783-.154c-.948.087-1.9.2-2.843.289q-2.768.275-5.54.518-5.511.485-11.035.854-11.234.753-22.493 1.055-22.886.626-45.794-.422c-8.337-.383-16.674-1-25.019-1.134-1.606-.025-2.042 2.57-.389 2.871Z" fill="#030504"/>
        </g>
        <g>
            <path d="M285.968 198.743a.043.043 0 0 0 0-.085.043.043 0 0 0 0 .085Z" fill="#030504"/>
        </g>
        <g>
            <path d="M238.484 190.074a23.718 23.718 0 0 1 4.581 3.2 39.082 39.082 0 0 1 3.89 4.383c1.35 1.7 2.659 3.426 3.942 5.173q1.032 1.4 2.084 2.792c.661.875 1.516 2.358 2.68 2.523a1.363 1.363 0 0 0 1.639-.931c.289-1.293-.657-2.493-1.356-3.525-.651-.96-1.325-1.9-2.022-2.828-1.479-1.971-2.978-3.931-4.54-5.837-2.5-3.045-5.8-6.635-9.855-7.419a1.359 1.359 0 0 0-1.042 2.471Z" fill="#030504"/>
        </g>
        <g>
            <path d="m251.46 193.425.07-.879-.3.715a1.522 1.522 0 0 0 .484-.822h-2.406c.121.655.733 1.139 1.153 1.627.335.39.669.8.974 1.2.724.934 1.429 1.86 2.08 2.887a34.633 34.633 0 0 1 1.711 3.019c.258.518.509 1.035.8 1.536a6.456 6.456 0 0 0 1.063 1.656 1.37 1.37 0 0 0 2.306-.955 5.055 5.055 0 0 0-.4-1.95 12.024 12.024 0 0 0-.808-1.9 26.869 26.869 0 0 0-1.955-3.213 27.974 27.974 0 0 0-2.42-3.029 23.223 23.223 0 0 0-1.316-1.272c-.238-.216-.479-.43-.726-.638a2.186 2.186 0 0 0-1.25-.542 1.255 1.255 0 0 0-1.2 1.58 1.534 1.534 0 0 0 .492.822l-.3-.715.083.879a.935.935 0 0 0 1.868 0Z" fill="#030504"/>
        </g>
        <g>
            <path d="M258.591 194.082c.717 1.515 1.778 2.832 2.462 4.375.033.075.083.2.023.054l.109.276a23.429 23.429 0 0 1 .583 1.765c.113.406.19.824.293 1.234a9.164 9.164 0 0 0 .338 1.289 1.5 1.5 0 0 0 1.394 1.06 1.46 1.46 0 0 0 1.393-1.06c.359-1.994-.561-4.265-1.5-5.988-.893-1.649-2.121-3.448-3.889-4.216a.893.893 0 0 0-1.211 1.211Z" fill="#030504"/>
        </g>
        <g>
            <path d="M266.493 194.878a17.793 17.793 0 0 1 .411.83l.081.2c.079.206.161.41.251.612.021.047.207.481.1.207.056.138.11.277.161.417q.143.394.257.8a17.161 17.161 0 0 1 .386 1.695c.011.06.1.539.035.2.028.146.033.3.051.447a1.943 1.943 0 0 0 .524 1.374 1.2 1.2 0 0 0 1.625 0c.651-.533.5-1.636.4-2.378a9.873 9.873 0 0 0-.47-2.1 13.122 13.122 0 0 0-.839-1.9 8.426 8.426 0 0 0-1.327-1.673 1.044 1.044 0 0 0-1.371-.082 1.05 1.05 0 0 0-.269 1.346Z" fill="#030504"/>
        </g>
        <g>
            <path d="M272.84 196.68q.108.216.206.436c.073.162.033.109-.008-.023.025.081.067.164.1.242q.166.426.3.865a11.952 11.952 0 0 1 .4 1.836l-.049-.37c.03.23.051.461.078.691.012.115.021.232.033.347a2.7 2.7 0 0 0 .256.858 1.277 1.277 0 0 0 .485.486 1.336 1.336 0 0 0 .864.16 1.356 1.356 0 0 0 1.126-.97 3.973 3.973 0 0 0-.093-1.857 11.812 11.812 0 0 0-.35-1.306 13.517 13.517 0 0 0-1.192-2.649 1.258 1.258 0 0 0-1.7-.446 1.274 1.274 0 0 0-.446 1.7Z" fill="#030504"/>
        </g>
        <g>
            <path d="m280.451 196.439-.008 1v.5a1.5 1.5 0 0 0 .04.357 1.122 1.122 0 0 0 .271.46 1.009 1.009 0 0 0 .687.293 1.028 1.028 0 0 0 .688-.293 1.106 1.106 0 0 0 .309-.8c.006-.172.006-.344.005-.518l-.008-1a1.027 1.027 0 0 0-.291-.7 1.013 1.013 0 0 0-.7-.291 1.006 1.006 0 0 0-.7.291 1.042 1.042 0 0 0-.291.7Z" fill="#030504"/>
        </g>
        <g>
            <path d="m305.213 194.888-.4 1.155-.2.563a4.05 4.05 0 0 0-.088.284 2.143 2.143 0 0 0-.013.947v-.734a6.222 6.222 0 0 0-.121 1.1 1.2 1.2 0 0 0 .874 1.148 1.419 1.419 0 0 0 .632 0 1.276 1.276 0 0 0 .711-.546 4.385 4.385 0 0 0 .428-.634l-.216.279a2.506 2.506 0 0 0 .586-1.039l.217-.588.426-1.148a1.492 1.492 0 0 0-.148-1.133 1.5 1.5 0 0 0-.88-.676 1.49 1.49 0 0 0-1.133.148 1.63 1.63 0 0 0-.676.879Z" fill="#030504"/>
        </g>
        <g>
            <path d="m314.514 193.959-.02.09.206-.353-.1.091.416-.243a1.609 1.609 0 0 0-.936 1.164l.313-.538a1.751 1.751 0 0 0-.4.711c-.024.092-.045.183-.07.275q-.087.323-.2.639c-.143.409-.265.825-.418 1.231-.039.1-.208.449 0 .025-.042.086-.078.176-.118.261q-.141.3-.293.6c-.1.2-.207.4-.321.591-.049.083-.1.164-.15.247a1.735 1.735 0 0 0-.15 1.319 1.592 1.592 0 0 0 1.921 1.09c.858-.182 1.277-1.094 1.6-1.828a9.474 9.474 0 0 0 .609-1.855 7.035 7.035 0 0 0 .152-1.872 9.716 9.716 0 0 0-.027-.383 2.574 2.574 0 0 0-.055-.435l-.128-.305.057.136a2.455 2.455 0 0 1-.1-.314 1.177 1.177 0 0 0-.178-.322 1.3 1.3 0 0 0-.608-.44l.417.243-.106-.091.206.353-.026-.09a.782.782 0 0 0-1.5 0Z" fill="#030504"/>
        </g>
        <g>
            <path d="m322.35 192.086-.155.143c-.031.028-.242.232-.106.106.2-.181-.309.245-.271.21a2.048 2.048 0 0 0-.141.155c-.288.316-.549.648-.808.988-.387.511-.779 1.027-1.116 1.573a27.552 27.552 0 0 0-1.777 3.4c-.439 1-1.058 2.227-.283 3.231a1.783 1.783 0 0 0 1.9.648 2.273 2.273 0 0 0 1.357-1.323c.095-.19.168-.376.252-.579 0 .011-.139.321-.051.124l.171-.39q.2-.456.418-.9c.277-.578.552-1.157.847-1.726.337-.654.673-1.31 1.021-1.958.168-.314.343-.622.5-.941.095-.19.189-.376.272-.57-.035.081.158-.487.094-.267-.045.155.09-.208.091-.21a1.436 1.436 0 0 0-.363-1.821 1.423 1.423 0 0 0-1.854.11Z" fill="#030504"/>
        </g>
        <g>
            <path d="M332.249 190.8a3.851 3.851 0 0 0-1.594.9 8.469 8.469 0 0 0-1.277 1.217 15.035 15.035 0 0 0-2.016 3.08 18.383 18.383 0 0 0-1.274 3.411 7.728 7.728 0 0 0-.246 4.047 1.588 1.588 0 0 0 1.315 1.133 1.56 1.56 0 0 0 1.577-.755 17.308 17.308 0 0 0 .834-3.271c.125-.515.26-1.028.419-1.534.085-.267.174-.533.272-.8.042-.117.088-.233.132-.349l.07-.174c-.048.108-.047.106 0-.007a25.419 25.419 0 0 1 1.427-2.846c.266-.454.508-.92.768-1.379a5.161 5.161 0 0 0 .715-1.547.93.93 0 0 0-1.125-1.126Z" fill="#030504"/>
        </g>
        <g>
            <path d="M344.52 186.912c-.881.807-1.655 1.705-2.557 2.5-.96.846-1.913 1.687-2.823 2.589a55.509 55.509 0 0 0-5.093 5.932 58.373 58.373 0 0 0-7.665 13.632c-.894 2.234 2.8 3.769 3.885 1.638a4.267 4.267 0 0 0 .383-3.333 1.752 1.752 0 0 0-3.347 0 2.991 2.991 0 0 1-.375.757l3.553 2.068a59.745 59.745 0 0 1 7.462-13.1 61.182 61.182 0 0 1 4.768-5.535c1.645-1.718 4.029-3.634 4.048-6.221a1.327 1.327 0 0 0-2.239-.927Z" fill="#030504"/>
        </g>
        <g>
            <path d="M233.96 157.309a44.612 44.612 0 0 0 1.022 7.5c.4 2.52.752 5.048 1.072 7.579a125.335 125.335 0 0 1 .97 15.344 1.931 1.931 0 0 0 3.255 1.348 4.068 4.068 0 0 0 .884-4.839 1.038 1.038 0 0 0-1.769 0c-.209.316-.315.758-.547 1.045a10.84 10.84 0 0 1-1.266 1.1l3.255 1.348a122.852 122.852 0 0 0-1.312-15.814 79.442 79.442 0 0 0-1.5-7.53 27.353 27.353 0 0 0-2.551-7.492.822.822 0 0 0-1.519.411Z" fill="#030504"/>
        </g>
        <g>
            <path d="M349.907 155.094c-.806.772-.956 2.094-1.151 3.153-.225 1.228-.462 2.453-.652 3.686-.394 2.559-.718 5.126-1.062 7.691-.676 5.037-1.339 10.076-2.021 15.111l3.074-.812q-.281-.234-.573-.452-.426-.248-.044.113.268.451.163-.048a1.116 1.116 0 0 0-.132-.564 1.21 1.21 0 0 0-1.739-.707c-1.52.761-1.138 3.206-.275 4.26a1.847 1.847 0 0 0 3.074-.812c.7-5.14 1.377-10.283 1.994-15.434.3-2.491.616-4.98.844-7.478.121-1.315.2-2.631.276-3.949.064-1.12.277-2.591-.354-3.574a.917.917 0 0 0-1.421-.183Z" fill="#030504"/>
        </g>
        <g>
            <path d="M258.928 99.538c.082 4.961.122 9.921.219 14.883q.068 3.492.194 6.981c.094 2.536.015 5.3.773 7.747a.792.792 0 0 0 1.515 0 31.143 31.143 0 0 0 .165-7.558c-.088-2.391-.182-4.78-.294-7.17q-.349-7.452-.9-14.883c-.078-1.059-1.688-1.087-1.67 0Z" fill="#030504"/>
        </g>
        <g>
            <path d="M262.575 141.525c-1.294.064-1.674 1.467-1.805 2.551-.185 1.542-.164 3.107-.2 4.657a548.4 548.4 0 0 0-.125 10.259q-.01 5.159.012 10.318.012 2.478.02 4.957a31.234 31.234 0 0 0 .11 4.9 1.5 1.5 0 0 0 2.871 0 26.638 26.638 0 0 0 .09-4.388q-.012-2.285-.03-4.572-.038-4.869-.125-9.737c-.055-3.158-.12-6.314-.214-9.472q-.069-2.237-.129-4.473c-.035-1.307-.509-2.925.011-4.15a.574.574 0 0 0-.489-.853Z" fill="#030504"/>
        </g>
        <g>
            <path d="M319.508 141.525c-1.294.064-1.674 1.467-1.8 2.551-.186 1.542-.164 3.107-.2 4.657a575.375 575.375 0 0 0-.125 10.259q-.01 5.159.011 10.318.012 2.478.02 4.957a31.234 31.234 0 0 0 .111 4.9 1.5 1.5 0 0 0 2.87 0 26.692 26.692 0 0 0 .09-4.388q-.012-2.285-.03-4.572-.037-4.869-.125-9.737c-.055-3.158-.12-6.314-.214-9.472q-.068-2.237-.128-4.473c-.036-1.307-.509-2.925.01-4.15a.575.575 0 0 0-.489-.853Z" fill="#030504"/>
        </g>
        <g>
            <path d="M262.968 174.236a.043.043 0 0 0 0-.085.043.043 0 0 0 0 .085Z" fill="#030504"/>
        </g>
        <g>
            <path d="M261.838 174.236a.043.043 0 0 0 0-.085.043.043 0 0 0 0 .085Z" fill="#030504"/>
        </g>
        <g>
            <path d="M255.804 175.907c-2.326 1.63-.773 4.332 1.507 4.94 1.173.314 2.453.414 3.653.607q1.926.312 3.856.6a222.51 222.51 0 0 0 15.2 1.775 148.521 148.521 0 0 0 30.118-.4 112.452 112.452 0 0 0 16.934-3.382c2.679-.761 1.54-4.945-1.152-4.18-17.541 4.987-35.84 4.842-53.833 2.9-2.583-.278-5.16-.6-7.737-.923q-1.771-.225-3.539-.47c-.682-.094-1.366-.18-2.045-.288-.052-.008-.641-.121-.646-.114.057-.076.23.247.247.327v1.016l.04-.166-.486.833.13-.16a1.884 1.884 0 0 0 .146-2.441 1.846 1.846 0 0 0-2.4-.479Z" fill="#030504"/>
        </g>
        <g>
            <path d="M320.668 99.608c-1.178 4.309-1.308 8.909-1.524 13.354-.107 2.224-.229 4.457-.214 6.683q.011 1.672.047 3.344a9.636 9.636 0 0 0 .306 3.4 1.024 1.024 0 0 0 1.955 0 9.477 9.477 0 0 0 .291-3.2q.052-1.672.123-3.343c.1-2.227.126-4.457.223-6.684.193-4.43.748-8.909.453-13.338a.849.849 0 0 0-1.659-.225Z" fill="#030504"/>
        </g>
        <g>
            <path d="M258.899 97.651a355.779 355.779 0 0 1 33.088-22.5h-1.566q9.22 6.26 18.48 12.458c6.17 4.113 12.272 8.388 18.578 12.291l.473-3.614c-.364.128-.444.162-.787-.041-1.751-1.032-3.927 1.569-2.241 2.9a4.465 4.465 0 0 0 4.079.95 2 2 0 0 0 .473-3.614c-6.1-4.211-12.459-8.087-18.7-12.091s-12.515-7.969-18.793-11.923a1.538 1.538 0 0 0-1.566 0 369.355 369.355 0 0 0-32.834 23.48c-.952.76.335 2.453 1.313 1.7Z" fill="#030504"/>
        </g>
        <g>
            <path d="M255.979 99.181a4.922 4.922 0 0 0 3.209.828c1.4.031 2.811.025 4.212 0 2.668-.047 5.336-.1 8-.177 5.337-.158 10.675-.279 16.011-.448q15.8-.5 31.608-.885 2.318-.055 4.636-.105c1.338-.029 2.882-.065 3.651-1.38 1.806-3.088-3.716-5.261-4.1-1.571-.18 1.736 2.5 2.371 3.261.883l.064-.126-1.062.817.116-.036h-.957l-.417-.221-.55-1.328-.012.143.268-.992-.068.132.728-.729c-.513.338-.166.088-.124.1.177.036-.4-.007-.377-.007-.562 0-1.125.029-1.686.043l-3.583.095q-3.371.09-6.744.188-6.848.2-13.7.425c-9.133.3-18.264.663-27.39 1.136-2.529.131-5.057.286-7.583.451-1.335.087-2.669.221-4 .339a5.3 5.3 0 0 0-3.42 1.065.967.967 0 0 0 0 1.363Z" fill="#030504"/>
        </g>
        <g>
            <path d="M266.428 89.8a15.07 15.07 0 0 0-6.321 7.254 1.169 1.169 0 0 0 1.7 1.309 84.182 84.182 0 0 0 11.369-10.329l-2.032-1.569c-1.525 3.273-2.9 6.621-4.319 9.943a1.482 1.482 0 0 0 2.558 1.495c3.437-4.706 6.906-9.4 10.232-14.183l-2.009-1.174a108.2 108.2 0 0 0-5.577 15.975 1.444 1.444 0 0 0 2.627 1.107c3.774-6.109 7.536-12.22 11.431-18.252l-2.642-1.114c-1.323 5.136-2.867 10.208-4.11 15.368a1.836 1.836 0 0 0 3.341 1.408 142.754 142.754 0 0 0 8.665-17.8l-3.554-.481a135.729 135.729 0 0 1-3.2 15.94 1.967 1.967 0 0 0 3.79 1.045c2.171-6.858 4.247-13.747 6.367-20.621l-3.713-.5c-.564 6.518-1.273 13.023-1.842 19.541-.169 1.927 2.873 2.753 3.7 1a43.575 43.575 0 0 0 4.2-16.98c.1-2.491-3.711-2.464-3.856 0a56.4 56.4 0 0 0 1.431 16.523c.432 1.8 3.493 1.965 3.8 0a56.551 56.551 0 0 0 .075-17.273l-3.837 1.058c1.644 5.283 3.253 10.575 4.864 15.868a2.036 2.036 0 0 0 3.98-.539 29.476 29.476 0 0 0-1.894-13 1.99 1.99 0 0 0-3.834 1.058 36.453 36.453 0 0 0 5.235 12.72 2.018 2.018 0 0 0 3.67-1.547 66.771 66.771 0 0 0-2.97-10.972l-3.8 1.047a60.222 60.222 0 0 0 6.727 12.276 2.035 2.035 0 0 0 3.512-2.053 60.68 60.68 0 0 1-3.283-9.322l-3.315 1.93c2.064 2.655 4.085 5.346 6.126 8.021a2.015 2.015 0 0 0 3.476-2.032q-1.495-3.212-3-6.418l-3.181 2.455a53.928 53.928 0 0 0 6.741 6.965 2.1 2.1 0 0 0 2.458.317 2.043 2.043 0 0 0 .933-2.291l-1.187-3.256-3.01 2.313c1.687 1.043 3.373 2.089 5.066 3.122l2.1-3.588a8.457 8.457 0 0 0-2.964-1.071 2.144 2.144 0 0 0-2.555 1.451 2.092 2.092 0 0 0 1.451 2.556 5.406 5.406 0 0 1 1.97.652c2.325 1.338 4.381-2.2 2.1-3.588-1.694-1.032-3.4-2.05-5.1-3.073-1.436-.863-3.659.6-3.01 2.314l1.224 3.245 3.392-1.974a50.209 50.209 0 0 1-6.745-6.96 2.007 2.007 0 0 0-2.66-.158 2.06 2.06 0 0 0-.521 2.613q1.5 3.206 3.024 6.4l3.161-2.439c-2.059-2.66-4.137-5.307-6.172-7.986a2.016 2.016 0 0 0-2.478-.811 2 2 0 0 0-1.148 2.34 59.507 59.507 0 0 0 3.6 10.321l3.512-2.053a54.263 54.263 0 0 1-6.444-11.269 2.031 2.031 0 0 0-2.421-1.374 1.988 1.988 0 0 0-1.375 2.421 87.356 87.356 0 0 1 2.893 10.993l3.67-1.547a31.778 31.778 0 0 1-4.869-11.751l-3.834 1.058a27.824 27.824 0 0 1 1.677 11.943l3.98-.539c-1.656-5.279-3.313-10.558-4.936-15.849a2.029 2.029 0 0 0-2.448-1.39 2.04 2.04 0 0 0-1.389 2.448 52.827 52.827 0 0 1-.041 15.167h3.8a48.9 48.9 0 0 1-1.378-15.475h-3.856a39.683 39.683 0 0 1-3.767 14.977l3.7 1c.6-6.509 1.052-13.032 1.653-19.541.2-2.2-3.1-2.452-3.713-.5-2.172 6.859-4.39 13.706-6.51 20.581l3.79 1.045a132.885 132.885 0 0 0 3.029-16.985 1.789 1.789 0 0 0-1.569-1.777 1.845 1.845 0 0 0-1.985 1.3 137.066 137.066 0 0 1-8.333 16.913l3.341 1.409c1.254-5.166 2.2-10.391 3.373-15.571a1.452 1.452 0 0 0-2.642-1.114c-3.722 6.14-7.573 12.2-11.417 18.261l2.627 1.107a158.592 158.592 0 0 1 4.931-15.842 1.171 1.171 0 0 0-1.944-1.132c-3.736 4.632-7.337 9.378-10.962 14.1l2.707 1.141c1.349-3.349 2.742-6.693 3.977-10.087.429-1.177-1.363-2.268-2.162-1.259a56.712 56.712 0 0 1-10.709 10.157l1.7 1.308a14.4 14.4 0 0 1 4.949-6.393c.882-.626.1-2.05-.863-1.477Z" fill="#030504"/>
        </g>
        <g>
            <path d="M288.34 69.22a1.924 1.924 0 0 0-1.45.52 4.778 4.778 0 0 0-.536.524 3.343 3.343 0 0 0-.282.555c-.038.089-.029.074.026-.044q-.151.21.087-.108a1.59 1.59 0 0 0 .162 2.374 1.593 1.593 0 0 0 2.337-.446c.343-.549.661-1.073.949-1.654.269-.542.524-1.094.811-1.627.054-.1.111-.2.172-.3.116-.183.141-.193 0-.012.221-.282-.278.124.036-.036a1.47 1.47 0 0 1-.514.1c-.153-.03-.145-.023.026.019l-.181-.076c.048 0 .391.265.178.1s.107.112.143.149c.1.107.2.221.294.335-.163-.19-.1-.132.014.033q.1.153.2.311c.127.21.245.428.352.65.042.086.285.48.044.081a1.972 1.972 0 0 1 .132.349q.127.354.235.713a25.439 25.439 0 0 1 .668 3.2l3.855-1.064a14.757 14.757 0 0 0-5.034-7.781 2.144 2.144 0 0 0-1.733-.568 1.97 1.97 0 0 0-1.507.985 16.952 16.952 0 0 0-1.578 10.783 2.073 2.073 0 0 0 1.741 1.5 2.084 2.084 0 0 0 2.087-1 38.63 38.63 0 0 0 2.021-4.562q.4-1.063.75-2.143a11.318 11.318 0 0 0 .651-2.588l-3.383.916a2.354 2.354 0 0 0 .144.3c.084.154.073.056-.037-.291q-.015-.569-.119-.222a1.354 1.354 0 0 0 .492 1.442 1.376 1.376 0 0 0 1.523.108 2.634 2.634 0 0 0 1.38-2.248 1.83 1.83 0 0 0-3.383-.916 17.864 17.864 0 0 0-.942 2.4q-.192.49-.4.976c.157-.376-.042.1-.077.176-.081.187-.164.373-.248.558-.611 1.354-1.3 2.671-2 3.985l3.828.5a6.509 6.509 0 0 1-.107-.642c.045.557.007 0 0-.092q-.055-.568-.064-1.139t.027-1.14c.011-.162.024-.325.04-.487.011-.108.022-.216.036-.324l-.021.149a16.774 16.774 0 0 1 .486-2.144c.112-.364.243-.72.379-1.076.2-.508-.187.387.046-.106.093-.2.186-.393.282-.587l-3.239.417a13.409 13.409 0 0 1 1.547 1.409c.2.22.394.45.588.677q.21.265-.044-.062c.061.08.12.16.178.241q.131.182.256.369a14.045 14.045 0 0 1 .972 1.682c.076.156.146.316.219.474q.09.206-.059-.137a13.6 13.6 0 0 1 .438 1.279 2.026 2.026 0 0 0 2.459 1.4 2.051 2.051 0 0 0 1.4-2.46c-.515-2.72-1.237-5.814-3.551-7.6a3.53 3.53 0 0 0-2.441-.844 3.277 3.277 0 0 0-2.507 1.6 13.343 13.343 0 0 0-.884 1.9l-.438 1.006a15.238 15.238 0 0 0-.5 1.445l1.957-1.111q.823 1.1.648.506a.618.618 0 0 0-.053-.21c-.088-.2-.12.191 0-.042s.1-.434.287-.629a.393.393 0 0 0-.275-.662Z" fill="#030504"/>
        </g>
        <g>
            <path d="M262.122 151.577c7.761 3.046 16.263 3.424 24.509 3.387 8.8-.041 17.558-.766 26.341-1.2 1.742-.087 5.76.619 6.412-1.658.627-2.19-2.756-3.174-3.171-1.043a1.328 1.328 0 0 0 .584 1.437l.084.055a1.23 1.23 0 0 0 1.84-1.056l-.01-.1-.63 1.1-1.233-.122-.431-1.041-.014.129.447-1.08c.071-.087.24.017 0-.022a2.263 2.263 0 0 0-.539.075c-.489.066-.971.15-1.455.25-.9.188-1.806.374-2.723.5-1.876.25-3.76.482-5.646.663-3.627.349-7.259.568-10.9.722a175.058 175.058 0 0 1-21.3-.091 65.5 65.5 0 0 1-11.849-2.07c-.771-.209-1.033.89-.322 1.169Z" fill="#030504"/>
        </g>
        <g>
            <path d="M277.044 142.551c.076-2.57.365-5.155.587-7.718a37.437 37.437 0 0 1 1.276-7.157c1.176-4.091 3.164-8.142 6.477-10.927a6.619 6.619 0 0 1 5.757-1.648 10.248 10.248 0 0 1 5.06 3.019c3.094 3.231 4.969 7.885 6.449 12.038a56.622 56.622 0 0 1 2.107 7.53c.26 1.257.489 2.525.662 3.8.085.63.154 1.263.215 1.9q.045.476.083.951c.015.191.03.381.042.571q-.021.685.092.152l.712-.714-.173.085 1.5-.2-.2-.03.846.494-.145-.115.553 1.335-.006-.17a1.868 1.868 0 0 0-3.652-.494 2.2 2.2 0 0 0 2.278 2.8c2.149-.113 2.246-2.283 2.116-3.9a57.957 57.957 0 0 0-1.373-8.818 52.1 52.1 0 0 0-6.6-16.1c-2.963-4.594-7.758-8.478-13.561-7.312-5.139 1.033-8.715 6.417-10.6 10.912a32.526 32.526 0 0 0-2.231 9.182 53.355 53.355 0 0 0 .216 10.543.757.757 0 0 0 1.512 0Z" fill="#030504"/>
        </g>
        <g>
            <path d="M252.792 148.749a42.265 42.265 0 0 0-9.017.1 33.472 33.472 0 0 0-8.843 2.706c-1.39.629-3.048 1.275-3.474 2.908a3 3 0 0 0 2.561 3.616 24.926 24.926 0 0 0 4.952.138 11.757 11.757 0 0 0 5.165-.753 1.543 1.543 0 0 0 0-2.644c-1.458-.819-3.518-.866-5.165-.93-.829-.032-1.656-.056-2.484-.083-.382-.012-.764-.022-1.146-.037-.2 0-.41-.012-.613-.027q.673-.084.965.838v1.174q-.847.823-.231.418.3-.159.607-.314.456-.23.92-.449a34.94 34.94 0 0 1 1.989-.858 46.347 46.347 0 0 1 4.539-1.509 36.139 36.139 0 0 1 9.276-1.691 1.3 1.3 0 0 0 0-2.6Z" fill="#030504"/>
        </g>
        <g>
            <path d="M331.633 150.495c1.573.69 3.572.669 5.271.857a35.419 35.419 0 0 1 4.908.892 15.982 15.982 0 0 1 4.37 1.77 8.855 8.855 0 0 1 .82.521c.036.029.395.386.4.384-.04.024-.086-.12-.073-.141l.1-.374q.23-.374-.07-.044l.354-.224c-.113-.115-1.243.443-1.351.5a1.864 1.864 0 0 0 0 3.193 3.941 3.941 0 0 0 3.875-.109 3.7 3.7 0 0 0 1.4-4.073c-.7-2.548-3.646-3.811-5.9-4.663a24.2 24.2 0 0 0-6.848-1.358 31.5 31.5 0 0 0-3.276-.081 11.287 11.287 0 0 0-3.647.37c-.979.385-1.575 2.037-.337 2.58Z" fill="#030504"/>
        </g>
        <g>
            <path d="M252.033 238.419a165.871 165.871 0 0 0 29 3.376 201.431 201.431 0 0 0 29.014-.923q8.249-.873 16.412-2.388c1.986-.368 1.143-3.392-.836-3.029a208.522 208.522 0 0 1-56.838 2.525c-5.384-.5-10.729-1.226-16.085-1.956-1.533-.209-2.265 2.045-.661 2.4Z" fill="#030504"/>
        </g>
        <g>
            <path d="M246.056 294.426c.355 1.02 1.076 1.223 2.037 1.552 1 .343 2 .685 3.027.969q2.962.823 5.963 1.5a119.886 119.886 0 0 0 12.413 2.056 117.673 117.673 0 0 0 24.572.423c2.325-.215 4.661-.486 6.958-.905 1.186-.216 2.294-.525 3.448-.834a15.448 15.448 0 0 0 3.25-1.027c.923-.481.373-1.683-.481-1.779a14.888 14.888 0 0 0-2.933.129c-.979.084-1.957.053-2.944.141-1.971.176-3.941.366-5.916.51-4.026.294-8.052.484-12.092.458a131.319 131.319 0 0 1-23.789-2.234 152.43 152.43 0 0 1-6.415-1.342c-1.1-.258-2.19-.518-3.289-.768-1.036-.237-2.337-.861-3.283-.144a1.186 1.186 0 0 0-.527 1.3Z" fill="#030504"/>
        </g>
        <g>
            <path d="M320.064 298.207a21.977 21.977 0 0 0 8.244.521 24.569 24.569 0 0 0 4.129-.812c1.31-.389 3.077-.8 4.07-1.769a1.5 1.5 0 0 0-1.052-2.541 18.487 18.487 0 0 0-3.717 1.266 34.711 34.711 0 0 1-3.815 1.009 36.951 36.951 0 0 1-7.628.607.879.879 0 0 0-.232 1.719Z" fill="#030504"/>
        </g>
        <g>
            <path d="M237.529 360.955c2.548 3.186 7.141 4.01 10.854 5.052 4.434 1.244 8.882 2.436 13.371 3.46 8.868 2.023 18.122 3.37 27.235 2.86 5.077-.284 10.257-1.093 14.843-3.393 1.029-.517.59-2.407-.612-2.261a48.817 48.817 0 0 0-3.066.478c-1.094.2-2.191.2-3.291.352-2.1.284-4.2.535-6.318.674a81.178 81.178 0 0 1-12.917-.232c-8.7-.819-17.272-2.826-25.73-4.937-2.233-.557-4.475-1.1-6.693-1.716a14.363 14.363 0 0 1-5.511-2.5 1.532 1.532 0 0 0-2.165 2.166Z" fill="#030504"/>
        </g>
        <g>
            <path d="M324.239 369.643a56.776 56.776 0 0 0 11.346-.533 50.031 50.031 0 0 0 5.576-1.2c.856-.232 1.709-.474 2.542-.785.937-.35 1.86-.59 2.133-1.662a1.185 1.185 0 0 0-.524-1.291c-.79-.566-1.576-.224-2.416.026s-1.69.536-2.541.79c-1.76.524-3.546.953-5.341 1.337a61.039 61.039 0 0 1-10.774 1.35.985.985 0 0 0 0 1.969Z" fill="#030504"/>
        </g>
        <g>
            <path d="M229.805 421.848c2.388 3.4 6.487 5.478 10.225 7.023a30.678 30.678 0 0 0 7.374 1.92c3.2.477 6.4.914 9.609 1.283 10.749 1.236 21.587 1.8 32.4 2.132 11.681.357 23.337.316 35.017.126a.876.876 0 0 0 0-1.75c-10.52-.526-21.038-1.065-31.565-1.493-6.921-.282-13.847-.569-20.761-1-4.43-.275-8.855-.613-13.268-1.076q-2.514-.263-5.02-.581l-1.124-.144-.5-.066c-.142-.019-.917-.123-.361-.047-.822-.111-1.645-.226-2.467-.335a34.706 34.706 0 0 1-5.937-1.044 37.173 37.173 0 0 1-6.494-2.717 18.8 18.8 0 0 1-5.327-3.616c-.86-.946-2.551.313-1.8 1.385Z" fill="#030504"/>
        </g>
        <g>
            <path d="M146.027 523.041a159.8 159.8 0 0 1 11.844-13.141c4.343-4.556 8.833-9.072 12.811-13.953 1.79-2.2 3.327-5.16 5.846-6.578 2.383-1.344 5.3-1.523 7.939-2 2.71-.485 5.6-1.285 7.493-3.426a13.71 13.71 0 0 0 2.35-4.474 9.351 9.351 0 0 1 2.816-4.046 24.809 24.809 0 0 1 4.608-2.821q3.208-1.662 6.424-3.309l6.508-3.353a50.006 50.006 0 0 0 6.567-3.667c1.309-.947.594-3.424-1.187-2.817a44.153 44.153 0 0 0-6.062 2.833l-5.937 3.088c-3.55 1.846-7.233 3.549-10.651 5.63a16.359 16.359 0 0 0-4.075 3.306 15.709 15.709 0 0 0-2.559 4.892 6.339 6.339 0 0 1-2.265 3.28 10.473 10.473 0 0 1-3.6 1.384c-2.775.633-5.669.805-8.336 1.864a11.262 11.262 0 0 0-4.047 2.646 40.914 40.914 0 0 0-2.984 3.848c-3.724 4.939-7.937 9.483-12.034 14.107a173.951 173.951 0 0 0-13.046 15.777c-.684.983.884 1.838 1.579.923Z" fill="#030504"/>
        </g>
        <g>
            <path d="M206.831 482.936c3.785-1.965 7.567-3.934 11.362-5.877 3.561-1.823 7.127-3.667 10.847-5.149a47.268 47.268 0 0 1 11.2-3.054 35.957 35.957 0 0 1 12.183.618c2.3.485 4.567 1.117 6.809 1.822 2.294.723 4.561 1.723 6.892 2.306l.465-3.442a17.343 17.343 0 0 0-3.371.2 1.184 1.184 0 0 0-.28 2.144 17.364 17.364 0 0 0 3.186 1.1c1.854.518 3.2-2.357 1.35-3.2a55.737 55.737 0 0 0-6.338-2.21c-2.114-.672-4.248-1.289-6.411-1.784a41.492 41.492 0 0 0-12.883-1.11c-8.267.733-15.982 4.513-23.087 8.588-4.3 2.465-8.553 5.008-12.832 7.508a.9.9 0 0 0 .9 1.545Z" fill="#030504"/>
        </g>
        <g>
            <path d="M218.908 462.763c1.629.078 3.289-.079 4.917-.14l2.459-.092 1.134-.042c.188-.008.38-.006.568-.021a1.872 1.872 0 0 0 1.2-.549 1.448 1.448 0 0 0-.289-2.248c-.783-.523-1.921-.194-2.8-.1l-2.459.255c-1.676.174-3.393.261-5.049.576a1.194 1.194 0 0 0-.861 1.32 1.212 1.212 0 0 0 1.181 1.043Z" fill="#030504"/>
        </g>
        <g>
            <path d="M372.783 474.073c-5.193.112-9.706-2.367-14.713-3.248a20.191 20.191 0 0 0-7.793.249 23.269 23.269 0 0 0-7.786 2.8c-2.291 1.451-4.013 3.6-6.25 5.111-.7.473-1.39.962-2.095 1.429a26.165 26.165 0 0 1-8.519 3.818 21.679 21.679 0 0 1-7.082.484 22.039 22.039 0 0 1-3.837-.739c-1.6-.445-3.221-.827-4.8-1.347-1.744-.574-2.741 1.994-1.226 2.907a18.291 18.291 0 0 0 4.124 2.025 26.86 26.86 0 0 0 4.162.858 26.2 26.2 0 0 0 7.047-.045 27.74 27.74 0 0 0 10.375-3.731 41.839 41.839 0 0 0 7.014-5.277 18.133 18.133 0 0 1 6.988-4.315 21.935 21.935 0 0 1 7.7-1.344 43.892 43.892 0 0 1 7.885 1.529 29.669 29.669 0 0 0 8.806 1.019c1.389-.1 1.422-2.218 0-2.187Z" fill="#030504"/>
        </g>
        <g>
            <path d="M350.261 439.372c2.984 3.16 7.207 4.491 11.222 5.827a33.05 33.05 0 0 1 10.846 5.841c6.408 5.267 11.66 12.1 19.211 15.863 3.86 1.926 8.224 2.839 11.839 5.25a20.862 20.862 0 0 1 4.625 4.888 22.943 22.943 0 0 0 4.722 4.642c3.642 2.631 8 4.057 12.14 5.692a54.721 54.721 0 0 1 11.044 6 91.275 91.275 0 0 1 11.675 9.816c1.733 1.7 3.4 3.456 4.993 5.288q1.147 1.321 2.236 2.691c.292.37.579.744.858 1.124a4.7 4.7 0 0 1 .356.5.942.942 0 0 1 .19.356q.111.6 0-.012l.511-.878.491-.249h.983a.866.866 0 0 1 .49.54v.87l-.854.9c1.337-.406 1.608-2.753 0-2.991-2.724-.4-3.065 3.03-.945 4.131a2.524 2.524 0 0 0 3.326-1.23c.769-1.411.09-2.967-.774-4.142a79.749 79.749 0 0 0-9.576-10.662c-7.093-6.7-15.3-12.5-24.428-16.041-4.31-1.673-8.979-3.192-12.387-6.463-1.871-1.8-3.191-4.063-5.007-5.905a19.083 19.083 0 0 0-5.9-3.918c-2.3-1.023-4.692-1.791-7.013-2.755a30.241 30.241 0 0 1-5.718-3.188c-3.7-2.592-6.906-5.851-10.246-8.875-3.817-3.456-7.878-6.676-12.691-8.621-4.834-1.953-10.479-2.462-14.6-5.91a1.144 1.144 0 0 0-1.617 1.617Z" fill="#030504"/>
        </g>
        <g>
            <path d="M388.116 539.8c-3.259-1.663-5.416-4.614-7.851-7.238-2.6-2.8-5.612-5.186-9.474-5.848-4.532-.776-8.9.373-13.131 1.952a36.841 36.841 0 0 0-6.054 2.618 13.692 13.692 0 0 0-4.406 4.556 14.674 14.674 0 0 1-4.172 4.61 16.264 16.264 0 0 1-2.83 1.435c-1.217.495-2.269.77-3.044 1.909a1.606 1.606 0 0 0 .563 2.149c1.745 1.295 4.46.087 6.14-.8a15.555 15.555 0 0 0 4.541-3.632c1.31-1.545 2.154-3.371 3.373-4.971a11.067 11.067 0 0 1 4.689-3.125c3.795-1.643 7.9-3.3 12.087-3.441 3.875-.128 6.844 1.753 9.517 4.37 2.754 2.7 5.326 5.792 8.9 7.436 1.317.607 2.481-1.3 1.155-1.974Z" fill="#030504"/>
        </g>
        <g>
            <path d="M229.143 431.947c-1.162.169-2.031 1.553-2.946 2.225-1.1.812-2.3 1.491-3.471 2.192a32.431 32.431 0 0 0-6.849 5.2 28.57 28.57 0 0 0-7.583 15.67c-.27 1.753-.47 3.516-.817 5.255a42.405 42.405 0 0 1-1.7 5.125l3.856 1.064a4.794 4.794 0 0 0 .052-2.47 1.457 1.457 0 0 0-2.118-.861 4.607 4.607 0 0 0-1.589 1.789 2.033 2.033 0 0 0 .717 2.736 2.047 2.047 0 0 0 2.735-.717c1.847-2.461 2.068-6.258 2.444-9.21a33.1 33.1 0 0 1 1.959-8.591 23.964 23.964 0 0 1 4.414-6.947 41.875 41.875 0 0 1 6.319-5.2 23.929 23.929 0 0 0 3.54-3.053c.832-.917 2.288-2.407 1.813-3.759a.658.658 0 0 0-.78-.444Z" fill="#030504"/>
        </g>
        <g>
            <path d="M337.572 432.912c.938.988 2.544.96 3.811.952a18.7 18.7 0 0 0 3.89-.45 15.666 15.666 0 0 0 7.02-3.209 1.79 1.79 0 0 0 .468-1.77 1.814 1.814 0 0 0-.836-1.088 1.821 1.821 0 0 0-1.836 0 22.914 22.914 0 0 1-5.772 2.6 20.033 20.033 0 0 1-3.044.563c-1.127.111-2.5-.063-3.468.611a1.161 1.161 0 0 0-.231 1.8Z" fill="#030504"/>
        </g>
        <g>
            <path d="M287.473 210.412c-.578 2.49-1.033 5-1.479 7.512a36.543 36.543 0 0 0-.954 7.531.649.649 0 0 0 1.269.172 36.969 36.969 0 0 0 1.495-7.509c.376-2.506.734-5.006.978-7.529.072-.75-1.14-.9-1.308-.177Z" fill="#030504"/>
        </g>
        <g>
            <path d="M289.053 210.626c1.124-1.455 3.315-1.32 4.886-.792a6.518 6.518 0 0 1 4.008 3.779 27.285 27.285 0 0 1 1.339 6.832q.185 1.776.223 3.565c.012.6.007 1.191 0 1.787 0 .294-.028.6-.007.892l.041.306q.015.681.19-.008c-.5.387-.156 1.153.347 1.313 2.633.838 1.761-5.757 1.667-6.966-.232-3.029-.564-6.429-1.918-9.191-1.988-4.057-8.786-6.984-11.649-2.191-.314.526.479 1.186.875.674Z" fill="#030504"/>
        </g>
        <g>
            <path d="M287.255 229.144a11.174 11.174 0 0 0 5.6 1.522 15.819 15.819 0 0 0 5.729-.806 1.509 1.509 0 0 0 1.057-1.387 1.989 1.989 0 0 0-.614-1.509 1.287 1.287 0 0 0-1.554-.2 1.319 1.319 0 0 0-.588 1.447l.035.15v-.7c-.04.142-.068.285-.1.428l1.005-1.005a13.712 13.712 0 0 1-4.871 1 25.866 25.866 0 0 1-4.985-.635.929.929 0 0 0-.712 1.69Z" fill="#030504"/>
        </g>
        <g>
            <path d="M290.647 211.948c.119-.166.793-.026 1.012.061a2.755 2.755 0 0 1 1.192 1.016 7.2 7.2 0 0 1 .986 3.787 65.1 65.1 0 0 1-.393 10.107h3.479a120.494 120.494 0 0 0-1.449-8.63c-.281-1.352-.581-2.7-.913-4.042a7.9 7.9 0 0 0-1.7-3.56 1.63 1.63 0 0 0-2.705 1.574 20.944 20.944 0 0 1-.095 13.786l3.386.933a32.015 32.015 0 0 0 .6-8.179c-.211-2.738-.755-5.44-.944-8.179a1.553 1.553 0 0 0-3.1 0 127.876 127.876 0 0 1-1.3 15.015l3.566.483a63.039 63.039 0 0 0-.349-14.608 1.764 1.764 0 0 0-1.691-1.287 1.824 1.824 0 0 0-1.69 1.287 40.675 40.675 0 0 0-2.721 14.289 2.039 2.039 0 0 0 2.008 2.009 2.047 2.047 0 0 0 2.006-2.009l.036-.518a2.038 2.038 0 0 0-2.019-2.018 2.049 2.049 0 0 0-2.018 2.018l-.017.518h4.018a33.822 33.822 0 0 1 2.085-13.357h-3.381c.617 4.525.295 9.135.1 13.676a1.8 1.8 0 0 0 1.573 1.783 1.792 1.792 0 0 0 1.992-1.3 112.037 112.037 0 0 0 .906-15.98h-3.1c.066 2.637.448 5.238.63 7.864a28.672 28.672 0 0 1-.573 7.56 1.757 1.757 0 0 0 3.386.933 23.877 23.877 0 0 0-.17-15.58l-2.7 1.575a6.217 6.217 0 0 1 .952 2.769q.414 1.869.767 3.751.691 3.693 1.149 7.424a1.74 1.74 0 0 0 3.479 0 66.233 66.233 0 0 0 .405-6.837 19 19 0 0 0-.692-6.466 6.234 6.234 0 0 0-3.737-3.966c-1.535-.521-3.743-.076-3.791 1.882a.833.833 0 0 0 1.538.417Z" fill="#030504"/>
        </g>
        <g>
            <path d="M319.861 257.869c-2.281 5.82-2.582 12.258-1.823 18.412.192 1.557.431 3.1.762 4.637a10.9 10.9 0 0 0 1.283 4.04c.909 1.251 2.466 1.283 3.882 1.267a18.561 18.561 0 0 0 4.809-.712 1.74 1.74 0 0 0 1.229-1.228 1.661 1.661 0 0 0-.453-1.711 1.766 1.766 0 0 0-1.711-.453 14.848 14.848 0 0 1-3.681.714c-.319.018-.64.024-.96.022-.119 0-.779-.122-.519.1-.253-.215-.343-1.057-.437-1.365a41.03 41.03 0 0 1-1.58-7.638 64.716 64.716 0 0 1 .618-15.693.737.737 0 0 0-1.419-.391Z" fill="#030504"/>
        </g>
        <g>
            <path d="M319.483 259.571c2.225 7.19 5.508 14.066 5.64 21.731.042 2.376 3.7 2.385 3.7 0-.009-3.687-1.657-7.255-2.869-10.673-1.226-3.459-2.626-6.816-4.089-10.18-.732-1.684-3.27-.452-2.872 1.211 1.55 6.475 3.139 13.061 2.73 19.763h3.813a81.367 81.367 0 0 0-2.284-14.524 1.63 1.63 0 0 0-3.187.432c.146 4.5.171 9.009.3 13.512.067 2.347 3.666 2.362 3.658 0a73.84 73.84 0 0 0-2.57-19.125.589.589 0 0 0-1.152.156c-.115 6.313-.073 12.652.065 18.969h3.658c-.209-4.506-.521-9.007-.713-13.512l-3.187.431a62.848 62.848 0 0 1 1.6 13.661c.019 2.47 3.668 2.435 3.813 0 .421-7.075-1.5-13.9-3.513-20.6l-2.872 1.211a68.341 68.341 0 0 1 3.606 9.475c1.018 3.134 2.382 6.459 2.366 9.792h3.7c-.139-7.983-3.2-15.823-7.212-22.628a1.169 1.169 0 0 0-2.127.9Z" fill="#030504"/>
        </g>
        <g>
            <path d="M322.024 257.773c.348-1.25 1.538-.873 2.358-.327a5.63 5.63 0 0 1 1.7 2.483 61.728 61.728 0 0 1 2.766 6.813 50.729 50.729 0 0 1 2.5 14.15c.049 1.7 2.7 1.7 2.645 0a49.3 49.3 0 0 0-3.837-17.815 35.957 35.957 0 0 0-2-4.136 7.774 7.774 0 0 0-2.438-2.9 2.459 2.459 0 0 0-2.688-.149 3.485 3.485 0 0 0-1.409 1.775.208.208 0 0 0 .4.11Z" fill="#030504"/>
        </g>
        <g>
            <path d="M336.206 327.895a18.987 18.987 0 0 0-.217 5.476c.063 1.849.175 3.693.352 5.535q.267 2.8.66 5.6a13.18 13.18 0 0 0 1.363 4.714 1.861 1.861 0 0 0 3.439-.932 63.068 63.068 0 0 0-2.7-20.72 1.629 1.629 0 0 0-3.184.431 20.769 20.769 0 0 0 .886 6.291c.228 1.017.48 2.029.726 3.043a5.8 5.8 0 0 0 1.426 3.208 1.511 1.511 0 0 0 2.493-.658 5.216 5.216 0 0 0-.219-3.164c-.274-1.005-.541-2.013-.826-3.015-.524-1.834-1.366-3.767-1.244-5.7l-3.185.431a57.1 57.1 0 0 1 2.139 19.858l3.439-.932a13.249 13.249 0 0 1-1.142-4.2q-.4-2.511-.687-5.036a228.05 228.05 0 0 1-.546-5.143 23.681 23.681 0 0 0-.631-5.08 1.224 1.224 0 0 0-2.34 0Z" fill="#030504"/>
        </g>
        <g>
            <path d="M81.429 533.54a61.022 61.022 0 0 1 16.392-9.115 63.407 63.407 0 0 1 18.328-3.942 61.3 61.3 0 0 1 18.676 1.705c7 1.748 13.8 4.4 21.023 5.121a28.849 28.849 0 0 0 10.472-.78 56.6 56.6 0 0 0 9.438-3.923 45.786 45.786 0 0 1 9.124-3.488 34.8 34.8 0 0 1 9.447-.924 35.433 35.433 0 0 1 17.684 5.449c2.974 1.9 5.656 4.207 8.624 6.111a31.812 31.812 0 0 0 9.087 3.971c13.744 3.609 27.695-1.242 40.117-6.95 1.672-.769 3.306-1.614 4.945-2.448 1.408-.718.4-3.23-1.1-2.6-12.747 5.367-26.08 12.018-40.338 9.521a30.033 30.033 0 0 1-9.161-3.092c-3.149-1.709-5.9-4.026-8.82-6.079a39.014 39.014 0 0 0-17.792-6.791 38.45 38.45 0 0 0-18.856 2.418c-3.214 1.291-6.268 2.939-9.466 4.265a26.251 26.251 0 0 1-9.979 2.154c-7.244.041-14.208-2.553-21.115-4.409a64.862 64.862 0 0 0-19.3-2.358 62.767 62.767 0 0 0-35 12.07c-1.239.926-2.417 1.95-3.6 2.949-.82.694.351 1.818 1.167 1.167Z" fill="#030504"/>
        </g>
        <g>
            <path d="M287.414 558.635c6.8-5.808 15.332-9.056 24.008-10.81a113.3 113.3 0 0 1 13.276-1.758 78.845 78.845 0 0 1 14.371-.355 21.823 21.823 0 0 1 6.9 1.765 49.532 49.532 0 0 1 6 3.675 19.879 19.879 0 0 0 12.346 3.489c4.181-.259 8.2-1.489 12.225-2.573 3.793-1.022 7.806-2.062 11.764-1.511 4.467.621 7.949 3.689 11.55 6.137 3.494 2.376 7.874 4.638 11.979 2.333 1.325-.744.367-2.531-.973-2.307-3.816.637-7.038-1.384-10.036-3.482-3.311-2.317-6.59-4.9-10.625-5.787-8.333-1.834-16.272 2.531-24.394 3.532a18.347 18.347 0 0 1-5.716-.068 17.141 17.141 0 0 1-5.892-2.534 61.574 61.574 0 0 0-5.979-3.658 24.331 24.331 0 0 0-7.236-2.151c-4.906-.691-9.871-.29-14.782.155a119.217 119.217 0 0 0-13.387 1.945c-9.731 2.016-19.336 5.722-26.3 13.065a.636.636 0 0 0 .9.9Z" fill="#030504"/>
        </g>
        <g>
            <path d="M410.96 518.91a49.794 49.794 0 0 1 18.689-6.632 51 51 0 0 1 19.538 1.25c3.087.76 6.369 1.558 9.569 1.214a11.342 11.342 0 0 0 4.406-1.324 21.185 21.185 0 0 0 3.8-3.264c4.489-4.152 11.563-2.317 16.839-1.093 5.893 1.367 14.782 2.862 18.674-3.159a1.152 1.152 0 0 0-1.564-1.564 15.584 15.584 0 0 1-7.562 2.466 32.37 32.37 0 0 1-8.648-1c-5.743-1.3-12.519-2.816-17.926.407a20.706 20.706 0 0 0-3.689 3.178 7.464 7.464 0 0 1-3.828 2.024c-2.985.606-6.159-.255-9.058-.92a52.6 52.6 0 0 0-19.531-1.071 47.538 47.538 0 0 0-20.515 8.114c-.828.577-.085 1.914.8 1.374Z" fill="#030504"/>
        </g>
        <g>
            <path d="M27.093 412.505a51.6 51.6 0 0 1 7.625-.216c5.277-.019 10.555.119 15.832.2 7.019.1 14.037.187 21.056.294q11.829.182 23.659.4 11.622.214 23.242.467 10.07.219 20.14.482c4.766.128 9.533.26 14.3.433 1.336.049 2.672.1 4.008.169 3.449.185 6.868.876 10.333.517 3.327-.344 6.465-1.53 9.662-2.439a31.624 31.624 0 0 1 6.91-1.172 101.236 101.236 0 0 1 14.035.469c5.272.435 10.534 1 15.812 1.364a75.6 75.6 0 0 0 14.258.043 27.767 27.767 0 0 0 5.334-1.192c.515-.167.294-.983-.225-.814-3.95 1.285-8.481 1.273-12.586 1.21-5.133-.08-10.253-.54-15.363-1s-10.195-.968-15.311-1.13a42.433 42.433 0 0 0-13.315 1.312c-3.361.971-6.684 2.253-10.214 2.441a63.278 63.278 0 0 1-8.314-.521c-.972-.076-1.947-.109-2.92-.148-4.19-.168-8.383-.28-12.576-.393q-9.528-.257-19.056-.469-11.393-.263-22.787-.484-11.916-.234-23.834-.415c-7.286-.107-14.574-.237-21.861-.26-5.735-.019-11.474-.036-17.208.09-3.259.072-6.535 0-9.79.24-.32.024-.641.05-.958.1-.279.046-.159.465.116.422Z" fill="#030504"/>
        </g>
        <g>
            <path d="M349.406 409.008a62.476 62.476 0 0 1 12.235.107c4.959.342 9.91.822 14.874 1.11 4.258.246 8.549.425 12.73-.562 3.149-.742 6.168-1.925 9.266-2.841a29.783 29.783 0 0 1 9.992-1.272c3.5.165 6.966.691 10.47.708 1.428.007 2.858-.007 4.287-.021 4.787-.05 9.573-.138 14.36-.227q9.914-.185 19.83-.4l22.873-.472q11.719-.241 23.438-.467 10.761-.2 21.523-.377 8.563-.131 17.128-.223c3.429-.031 6.855-.114 10.285-.1.385 0 .778-.008 1.161.025.453.037.451-.668 0-.706-2.647-.221-5.459-.242-8.171-.282-5.218-.077-10.44.015-15.658.095q-10.333.158-20.666.372-11.655.232-23.309.489-11.62.252-23.238.511-10.4.229-20.8.44-7.937.16-15.876.287c-2.822.041-5.653.121-8.476.045-3.132-.084-6.239-.56-9.368-.691a29.751 29.751 0 0 0-9.512 1.166c-5.3 1.51-10.289 3.644-15.876 3.734-9.451.154-18.848-1.455-28.294-1.567a36.639 36.639 0 0 0-5.211.234c-.555.073-.564.958 0 .885Z" fill="#030504"/>
        </g>
        <g>
            <path d="M387.427 225.66c-.092 1.6-.188 3.2-.253 4.807-.032.786-.071 1.57-.081 2.357a20.974 20.974 0 0 0 .125 2.45.925.925 0 0 0 1.849 0 20.867 20.867 0 0 0 .125-2.45c-.009-.786-.049-1.571-.08-2.357-.065-1.6-.162-3.205-.254-4.807a.717.717 0 0 0-1.432 0Z" fill="#030504"/>
        </g>
        <g>
            <path d="M387.664 245.738c-.041 1.178-.078 2.357-.13 3.534l-.075 1.733a10.175 10.175 0 0 0 .108 1.9.9.9 0 0 0 1.725 0 10.254 10.254 0 0 0 .108-1.9l-.075-1.733c-.052-1.177-.089-2.356-.129-3.534a.766.766 0 0 0-1.531 0Z" fill="#030504"/>
        </g>
        <g>
            <path d="M374.395 241.837a25.04 25.04 0 0 0 3.376.382 14.79 14.79 0 0 0 3.434-.286.916.916 0 0 0-.243-1.791c-2.134-.045-4.255.341-6.387.366a.677.677 0 0 0-.665.586.668.668 0 0 0 .484.742Z" fill="#030504"/>
        </g>
        <g>
            <path d="M392.674 240.795a24.125 24.125 0 0 0 2.606.17 11.159 11.159 0 0 0 1.3-.087 4.357 4.357 0 0 0 .785-.118 2.936 2.936 0 0 0 .727-.4.834.834 0 0 0-.2-1.5 3.727 3.727 0 0 0-.673-.194 3.825 3.825 0 0 0-.743 0c-.417.024-.834.03-1.252.057a24.015 24.015 0 0 1-2.555.026 1.031 1.031 0 0 0-1.024 1.024 1.054 1.054 0 0 0 1.024 1.024Z" fill="#030504"/>
        </g>
        <g>
            <path d="M387.015 241.255a.043.043 0 0 0 0-.085.043.043 0 0 0 0 .085Z" fill="#030504"/>
        </g>
        <g>
            <path d="m387.141 239.272-.028.02 1.3-.171-.028-.01a1.679 1.679 0 0 0-.888 0 1.672 1.672 0 0 0-.737.43 1.658 1.658 0 0 0-.43.737 1.68 1.68 0 0 0 0 .889l.01.027.17-1.3a.624.624 0 0 0-.111.246 1.365 1.365 0 0 0-.157.7 1.365 1.365 0 0 0 .157.7 1.358 1.358 0 0 0 .376.585l.368.285a1.361 1.361 0 0 0 .677.215 1.379 1.379 0 0 0 .725-.032 1.38 1.38 0 0 0 .618-.326 1.372 1.372 0 0 0 .468-.511l.183-.434a1.369 1.369 0 0 0 .033-.725 1.354 1.354 0 0 0-.216-.677l-.284-.368a1.828 1.828 0 0 0-.8-.467l-.484-.065a1.819 1.819 0 0 0-.919.249Z" fill="#030504"/>
        </g>
        <g>
            <path d="M88.806 317.719a23.661 23.661 0 0 0-.334 3.078 8.007 8.007 0 0 0 .083 1.59 3.617 3.617 0 0 0 .211.8 2.951 2.951 0 0 0 .4.576.351.351 0 0 0 .548-.07 2.974 2.974 0 0 0 .263-.664 5.138 5.138 0 0 0 .049-.73 13.677 13.677 0 0 0-.082-1.5c-.031-.5-.063-.982-.128-1.477a10.8 10.8 0 0 1-.05-1.472c0-.53-.879-.686-.957-.129Z" fill="#030504"/>
        </g>
        <g>
            <path d="M88.561 328.876c-.038.934-.1 1.857-.116 2.792a10.86 10.86 0 0 0 .037 1.369c.025.228.049.456.076.685a2.316 2.316 0 0 0 .052.386c.067.223.2.28.355.422a.409.409 0 0 0 .563 0c.128-.118.25-.169.322-.344a1.691 1.691 0 0 0 .085-.465c.025-.21.048-.422.071-.632a11.232 11.232 0 0 0 .043-1.422c-.013-.935-.079-1.858-.116-2.792a.686.686 0 0 0-1.372 0Z" fill="#030504"/>
        </g>
        <g>
            <path d="M81.031 326.926a4.878 4.878 0 0 1 .855-.034c.076 0 .153.009.23.016l.115.013c-.111-.016-.124-.017-.037 0q.162.022.323.038l.115.012c-.113-.015-.126-.017-.038 0a7.531 7.531 0 0 1 .837.207c.127.039.259.066.387.105a1.008 1.008 0 0 0 .689.059.685.685 0 0 0 .464-.817c-.1-.45-.664-.71-1.062-.861a4.328 4.328 0 0 0-.923-.218 4.084 4.084 0 0 0-1.071-.031 5.941 5.941 0 0 0-1.061.21.669.669 0 0 0-.478.731.657.657 0 0 0 .655.578Z" fill="#030504"/>
        </g>
        <g>
            <path d="M91.793 327.383c.967.036 1.93.077 2.9.154.473.037.948.086 1.422.112.243.014.494.023.737.019a1.018 1.018 0 0 0 .875-.445.623.623 0 0 0 0-.652 1.018 1.018 0 0 0-.875-.445c-.243 0-.494.005-.737.019-.474.026-.949.075-1.422.112-.967.075-1.93.117-2.9.153a.488.488 0 0 0 0 .975Z" fill="#030504"/>
        </g>
        <g>
            <path d="M87.551 326.593a.547.547 0 0 0 0-1.094.547.547 0 0 0 0 1.094Z" fill="#030504"/>
        </g>
        <g>
            <path d="M155.418 221.092a.806.806 0 0 0 0-1.61.806.806 0 0 0 0 1.61Z" fill="#030504"/>
        </g>
        <g>
            <path d="m215.507 279.277-.075.021-.038.01a1 1 0 0 0-.47.245 1.047 1.047 0 0 0-.352.383 1.343 1.343 0 0 0-.138.329l-.005.019-.02.075-.005.02a1.586 1.586 0 0 0 0 .842 1.578 1.578 0 0 0 .406.7 1.588 1.588 0 0 0 .7.406l.42.056a1.568 1.568 0 0 0 .8-.216 1.6 1.6 0 0 0 .567-.567 1.183 1.183 0 0 0 .188-.588 1.209 1.209 0 0 0-.029-.63 1.582 1.582 0 0 0-.407-.7 1.578 1.578 0 0 0-.7-.407 1.607 1.607 0 0 0-.841 0Z" fill="#030504"/>
        </g>
        <g>
            <path d="M80.198 252.104a1 1 0 0 0 0-1.988 1 1 0 0 0 0 1.988Z" fill="#030504"/>
        </g>
        <g>
            <path d="M191.896 82.908a1.184 1.184 0 0 0 0-2.366 1.184 1.184 0 0 0 0 2.366Z" fill="#030504"/>
        </g>
        <g>
            <path d="M421.804 42.44a3.167 3.167 0 0 0-.606 3.895 3.356 3.356 0 0 0 3.838 1.444 7.41 7.41 0 0 0 1.937-1.077 4.029 4.029 0 0 0 1.545-1.849 3.327 3.327 0 0 0-.977-3.645 3.086 3.086 0 0 0-2.52-.651c-.779.115-1.9.659-2.015 1.527a1.188 1.188 0 0 0 .289 1.093 1.111 1.111 0 0 0 1.093.289 1.841 1.841 0 0 0 .657-.362c.042-.036.083-.073.122-.112.095-.094.065.031-.088.065a1.1 1.1 0 0 0 .227-.136c.2-.117-.219.058-.073.028.064-.013.127-.042.191-.059.042-.011.087-.016.13-.029.15-.047-.32.017-.084.01.089 0 .178-.009.267-.006a.8.8 0 0 0 .133.009c-.239.037-.218-.044-.082 0l.32.089c.166.048.031.085-.06-.031a.629.629 0 0 0 .118.061c.039.022.075.047.113.07.168.1-.071-.038-.066-.046l.048.05c.061.07.062.068 0-.008l-.044-.058c.028.037.053.075.079.114s.048.079.07.12l.032.061q.077.162-.028-.076c-.019.037.071.215.084.266s.019.091.029.136c.055.232-.01-.21-.009-.053 0 .105.005.21 0 .315 0 .083-.048.172.018-.087-.017.067-.025.137-.041.205a1.38 1.38 0 0 0-.083.266c-.032-.052.11-.231.01-.044-.027.052-.06.1-.088.15s-.079.17.031-.031a.745.745 0 0 1-.112.128c-.1.1-.205.2-.31.292-.2.185.128-.086-.012.012-.048.033-.093.068-.14.1-.105.075-.211.147-.318.219a9.08 9.08 0 0 1-.717.452c-.052.029-.1.056-.158.082-.07.035-.193.144-.021.014a.985.985 0 0 1-.338.1l-.142.027c.006-.035.266-.023.038-.014h-.252c-.1-.01-.1-.009 0 0l.072.009a2.383 2.383 0 0 1-.281-.066 1.144 1.144 0 0 1-.137-.046s.207.1.058.024a5.355 5.355 0 0 1-.311-.181c-.139-.086.039.038.046.036-.026.007-.143-.132-.158-.147s-.073-.1-.1-.107c.084.114.1.137.058.073-.021-.029-.041-.059-.061-.09s-.046-.083-.07-.124c-.115-.2.063.216 0-.005-.033-.109-.046-.235-.086-.34.072.193.015.165.015.07 0-.07-.005-.14 0-.211 0 .012.007-.14.009-.14-.024.162-.026.186-.007.07l.014-.069c.014-.057.029-.114.047-.169.061-.194-.033-.022-.018.02-.021-.057.162-.289.19-.333.072-.116-.132.138-.032.046.06-.055.114-.118.175-.172a1.04 1.04 0 0 0 0-1.462 1.061 1.061 0 0 0-1.462 0Z" fill="#030504"/>
        </g>
        <g>
            <path d="M448.662 32.849a.043.043 0 0 0 0-.085.043.043 0 0 0 0 .085Z" fill="#030504"/>
        </g>
        <g>
            <path d="M256.937 40.197a.043.043 0 0 0 0-.085.043.043 0 0 0 0 .085Z" fill="#030504"/>
        </g>
        <g>
            <path d="M364.111 71.513c2.507 0 2.511-3.9 0-3.9s-2.512 3.9 0 3.9Z" fill="#030504"/>
        </g>
        <g>
            <path d="M469.807 228.837a4.121 4.121 0 0 0-.566-.432l-.2-.12a1.651 1.651 0 0 0-1.657 0 1.655 1.655 0 0 0-.588.59 1.631 1.631 0 0 0-.224.828l-.023.243c0 .04-.011.081-.012.121s.007.081.01.12a1.892 1.892 0 0 0 .261.964 1.915 1.915 0 0 0 .685.685 1.892 1.892 0 0 0 .964.26 1.434 1.434 0 0 0 .735-.164 1.433 1.433 0 0 0 .615-.4 1.909 1.909 0 0 0 .49-.842 1.926 1.926 0 0 0 0-1.015 1.917 1.917 0 0 0-.49-.843Z" fill="#030504"/>
        </g>
        <g>
            <path d="m258.652 43.628.485-.276.23-.132.06-.034a.832.832 0 0 0 .187-.139.8.8 0 0 0 .287-.288.681.681 0 0 0 .136-.182l.159-.379.057-.421a1.189 1.189 0 0 0-.065-.448l-.134 1.025.136-.2a1.149 1.149 0 0 0 .156-.582.87.87 0 0 0-.1-.445.863.863 0 0 0-.239-.371 1.146 1.146 0 0 0-.509-.3l-.241-.055.795.611a.592.592 0 0 0-.14-.193.8.8 0 0 0-.284-.284 1.293 1.293 0 0 0-.56-.291l-.426-.058a2.06 2.06 0 0 0-.44.061l-.068.017-.271.067-.545.136a1.722 1.722 0 0 0-.763.444l-.27.35a1.715 1.715 0 0 0-.237.873 1.308 1.308 0 0 0 .149.666 1.287 1.287 0 0 0 .357.557 1.3 1.3 0 0 0 .557.357 1.3 1.3 0 0 0 .666.149 1.716 1.716 0 0 0 .873-.237Z" fill="#030504"/>
        </g>
        <g>
            <path d="M402.003 306.81a.843.843 0 0 0 .433-.1.846.846 0 0 0 .362-.232.84.84 0 0 0 .232-.361.845.845 0 0 0 .1-.434l-.04-.3a1.125 1.125 0 0 0-.289-.5l-.228-.176a1.121 1.121 0 0 0-.567-.154.846.846 0 0 0-.433.1.851.851 0 0 0-.362.232.841.841 0 0 0-.232.361.847.847 0 0 0-.1.433l.04.3a1.124 1.124 0 0 0 .289.5l.227.176a1.118 1.118 0 0 0 .567.154Z" fill="#030504"/>
        </g>
        <g>
            <path d="M483.161 360.589a.043.043 0 0 0 0-.085.043.043 0 0 0 0 .085Z" fill="#030504"/>
        </g>
        <g>
            <path d="M201.228 391.412a.043.043 0 0 0 0-.085.043.043 0 0 0 0 .085Z" fill="#030504"/>
        </g>
        <g>
            <path d="m203.784 397.377 1.125-.62a6.978 6.978 0 0 0 1.236-.994l.2-.261a.96.96 0 0 0 .153-.48 1.236 1.236 0 0 0-.153-.825 1.561 1.561 0 0 0-.463-.463 1.343 1.343 0 0 0-1-.131l-.635.144c-.1.023-.2.042-.3.068a3.671 3.671 0 0 0-.608.269l-1.16.563a1.2 1.2 0 0 0-.444.407 1.2 1.2 0 0 0-.282.538 1.188 1.188 0 0 0-.028.63 1.176 1.176 0 0 0 .188.587 1.593 1.593 0 0 0 .944.727 1.684 1.684 0 0 0 1.219-.16Z" fill="#030504"/>
        </g>
        <g>
            <path d="M112.433 41.333a.043.043 0 0 0 0-.085.043.043 0 0 0 0 .085Z" fill="#030504"/>
        </g>
        <g>
            <path d="m357.223.522-.265-.1.44.186c-.122-.052-.24-.117-.359-.176l-.359-.177a1.369 1.369 0 0 0-.681-.217 1.38 1.38 0 0 0-.728.033 1.378 1.378 0 0 0-.623.327 1.39 1.39 0 0 0-.471.513l-.184.437a1.835 1.835 0 0 0 0 .972l.184.437a1.848 1.848 0 0 0 .657.657l.48.253c.078.041.159.079.235.125l.233.149a1.85 1.85 0 0 0 .943.256l.5-.067a1.854 1.854 0 0 0 .824-.48 1.4 1.4 0 0 0 .387-.6 1.413 1.413 0 0 0 .161-.72 1.412 1.412 0 0 0-.161-.72 1.4 1.4 0 0 0-.387-.6 1.865 1.865 0 0 0-.824-.481Z" fill="#030504"/>
        </g>
        <g>
            <path d="M155.417 34.64a1.273 1.273 0 0 0 0-2.545 1.273 1.273 0 0 0 0 2.545Z" fill="#030504"/>
        </g>
        <g>
            <path d="M118.091 130.06a.547.547 0 0 0 0-1.094.547.547 0 0 0 0 1.094Z" fill="#030504"/>
        </g>
        <g>
            <path d="m461.86 108.68.242.213a1.044 1.044 0 0 0 .446.288 1.058 1.058 0 0 0 .535.12l.369-.05a1.392 1.392 0 0 0 .613-.357l.241-.213.27-.35.174-.413a1.308 1.308 0 0 0 .032-.69.866.866 0 0 0-.118-.437.87.87 0 0 0-.223-.382.863.863 0 0 0-.31-.31.87.87 0 0 0-.382-.223 1.307 1.307 0 0 0-.667-.148l-.46.062-.413.174-.351.271-.27.35-.175.413a1.305 1.305 0 0 0-.031.69.86.86 0 0 0 .118.436 1.3 1.3 0 0 0 .357.557Z" fill="#030504"/>
        </g>
        <g>
            <path d="m495.996 192.889.118.219a.989.989 0 0 0 .221.287l.078.067a.637.637 0 0 0 .275.176.637.637 0 0 0 .329.074l.227-.031a.855.855 0 0 0 .378-.22l.077-.067a.725.725 0 0 0 .114-.133 1.015 1.015 0 0 0 .107-.154l.118-.219a1.183 1.183 0 0 0 .162-.6 1.181 1.181 0 0 0-.162-.6 1.191 1.191 0 0 0-1.021-.586 1.192 1.192 0 0 0-1.021.586 1.168 1.168 0 0 0-.161.6 1.17 1.17 0 0 0 .161.6Z" fill="#030504"/>
        </g>
        <g>
            <path d="M402.993 510.856c1.118 2.92 3.285 4.988 5.4 7.187 2.177 2.262 4.426 4.384 4.367 7.751-.032 1.8-.344 3.62.317 5.361a8.792 8.792 0 0 0 2.707 3.56c1.177.985 2.438 1.844 3.546 2.911a28.61 28.61 0 0 1 3.227 3.748c1.18 1.614 2.27 3.292 3.378 4.956 1.2 1.8 2.531 3.569 3.591 5.455a2.075 2.075 0 0 0 2.789.731 2.352 2.352 0 0 0 .2-4.086 1.721 1.721 0 0 0-2.512 1.022l-.047.168.47-.807a3.43 3.43 0 0 1-.381.424l.893-.521-.2.075 1.982.524c-1.166-1.443-2.143-3.088-3.2-4.614-.973-1.409-1.936-2.828-2.94-4.215a33.216 33.216 0 0 0-7-7.4 11.522 11.522 0 0 1-2.836-2.517c-.95-1.4-.539-3.188-.554-4.775-.035-3.326-1.872-6.041-4.252-8.22-2.6-2.378-6-4-7.591-7.293-.362-.752-1.666-.219-1.363.574Z" fill="#030504"/>
        </g>
        <g>
            <path d="M421.344 557.536a30.766 30.766 0 0 0 10.294-3.223c3.217-1.564 6.248-3.554 9.65-4.715a16.482 16.482 0 0 1 11.267.052c1.894.708 3.556 1.916 5.408 2.721a21.847 21.847 0 0 0 5.908 1.65c4.1.539 9.49.266 12.6-2.835.563-.56.191-1.823-.71-1.714-1.937.234-3.815.781-5.737 1.1a18.541 18.541 0 0 1-5.463.07 17.969 17.969 0 0 1-5.447-1.621c-1.836-.9-3.523-2.022-5.439-2.76a19.4 19.4 0 0 0-11.963-.538 41.284 41.284 0 0 0-9.8 4.523c-3.453 2.012-6.892 4.3-10.86 5.14-1.187.25-.946 2.279.291 2.148Z" fill="#030504"/>
        </g>
        <g>
            <path d="M378.249 331.268a1.263 1.263 0 0 0 0-2.525 1.263 1.263 0 0 0 0 2.525Z" fill="#030504"/>
        </g>
        <path d="M229.784 436.473 218.19 447.36l-4.1 7.494-2.969 10.321 17.25-5.09Z" fill="#030504"/>
        <path d="m226.82 464.044-6.221.707-22.481 13.009-4.384 10.463-15.128 3.818-29.268 31.53s8.342 5.514 21.209-1.7 21.067-14.705 39.165-1.838 17.392 14.7 36.62 13.008 40.438-17.108 40.438-17.108-25.592 3.393-32.237-10.6 33.792-19.088 33.792-19.088l-10.18-21.068-16.966-13.573-10.321 16.26Z" fill="#030504"/>
        <path d="M258.917 506.32c-5.767-5.265-.142-12.866 16.118-14.422s34.641-9.332 34.641-9.332l21.633.142 19.229-12.019 26.581 3.393-17.532-7.918-2.262-19.37 27.571 14.28s28.561 15.129 35.065 21.633 24.177 12.443 24.177 12.443l16.967 16.825s-19.229-1.979-25.732-1.131c-4.347.567-18.287 2.875-22.906 6.645-2.833 2.313-6.5-1.885-6.5-1.885l-13.715-17.627 15.553 23.188 1.7 16.826 10.793 3.723 8.389 11.877s-15.365 9.85-27.525 1.649-10.934-7.588-25.308-4.666c-27.357 5.561-29.41-11.5-51.891-6.127s-68.856 9.52-68.856 9.52l34.923-22.481s17.666-19.652-3.967-19.652-23.895-2.545-27.146-5.514Z" fill="#030504"/>
    </g>
</svg>
