<svg version="1.1" id="Layer_1" xmlns="http://www.w3.org/2000/svg" xmlns:xlink="http://www.w3.org/1999/xlink" x="0px" y="0px"
	 width="100%" viewBox="0 0 1063 1802" enable-background="new 0 0 1063 1802" xml:space="preserve">
<path fill="#FFFFFF" opacity="1.000000" stroke="none" 
	d="
M523.000000,1803.000000 
	C349.059875,1803.000000 175.119720,1803.000000 1.000000,1803.000000 
	C1.000000,1573.972046 1.000000,1344.943970 1.329558,1115.562012 
	C6.109949,1120.840820 10.546497,1126.485107 15.014521,1132.104248 
	C24.662464,1144.237915 34.332817,1156.353638 43.982059,1168.486206 
	C52.314140,1178.962646 60.640461,1189.443604 68.949348,1199.938354 
	C77.155136,1210.302856 85.296532,1220.718750 93.539078,1231.053955 
	C100.960663,1240.359619 108.520515,1249.555054 115.948013,1258.856079 
	C125.721031,1271.094238 135.437302,1283.377808 145.153381,1295.661377 
	C153.451294,1306.152100 161.702286,1316.680054 169.996353,1327.173950 
	C178.095901,1337.421753 186.199799,1347.666382 194.346283,1357.876831 
	C201.869553,1367.306274 209.471649,1376.672607 217.001038,1386.097290 
	C221.768005,1392.063965 226.465302,1398.086304 231.356323,1404.289795 
	C266.892792,1360.254517 302.067993,1316.666870 337.144958,1273.201050 
	C329.493561,1263.996460 322.131134,1255.029175 314.647583,1246.164307 
	C305.034363,1234.776611 295.242615,1223.539185 285.676636,1212.112305 
	C274.552917,1198.824951 263.661407,1185.343140 252.537674,1172.055664 
	C241.393967,1158.744263 230.019165,1145.626221 218.870468,1132.318848 
	C204.069687,1114.652344 189.365479,1096.904419 174.720810,1079.108398 
	C173.876266,1078.082153 173.227081,1076.009033 173.683868,1074.929565 
	C182.107300,1055.022095 190.665283,1035.171143 199.294968,1015.351746 
	C207.101135,997.423767 215.141785,979.597229 222.868576,961.635437 
	C230.380371,944.173340 237.523758,926.553040 245.014526,909.081726 
	C252.833801,890.844177 260.958527,872.737671 268.797211,854.508362 
	C278.626190,831.650513 288.212921,808.688354 298.068329,785.842041 
	C305.879395,767.734802 314.007965,749.764343 321.775543,731.638916 
	C322.539978,729.855042 322.510284,726.984924 321.574768,725.346802 
	C317.372131,717.987915 312.699371,710.897949 308.213837,703.700012 
	C298.471283,688.066162 288.768219,672.407593 278.984863,656.799316 
	C276.199371,652.355347 273.193024,648.049866 270.004944,643.255249 
	C266.034454,650.216614 262.579773,656.320312 259.080994,662.398621 
	C250.730057,676.906555 242.321259,691.381287 234.006027,705.909607 
	C226.721603,718.636963 219.573029,731.441956 212.291214,744.170776 
	C203.891632,758.853516 195.420380,773.495239 186.963837,788.145386 
	C180.852112,798.733398 174.668365,809.279968 168.598175,819.891724 
	C160.286560,834.421753 152.083374,849.013794 143.775299,863.545837 
	C136.490250,876.288574 129.112793,888.978455 121.797691,901.704041 
	C113.526794,916.092407 105.278793,930.493896 97.023041,944.890930 
	C90.940529,955.498169 84.850067,966.100830 78.783905,976.717407 
	C71.766319,988.999146 64.804497,1001.312805 57.756905,1013.577209 
	C51.750244,1024.030151 45.606747,1034.404419 39.613934,1044.865234 
	C32.653339,1057.015259 25.843649,1069.251709 18.869902,1081.394043 
	C12.986439,1091.638062 6.962031,1101.801147 1.000012,1112.000000 
	C1.000000,741.760254 1.000000,371.520477 1.000000,1.000000 
	C179.361267,1.000000 357.722687,1.000000 536.544067,1.391125 
	C539.003113,9.962535 542.077515,18.051050 542.784912,26.341551 
	C544.434998,45.678799 541.098389,64.598335 535.436035,83.111565 
	C526.213379,113.265816 511.935333,141.054001 494.899841,167.384583 
	C484.290405,183.782837 472.703522,199.574127 461.048859,215.261566 
	C453.646088,225.225952 445.398071,234.571121 437.368317,244.057907 
	C432.162323,250.208557 426.733459,256.175323 421.285217,262.115082 
	C412.464813,271.731171 403.604584,281.312317 394.654297,290.807404 
	C383.857452,302.261475 372.948975,313.610321 361.958496,325.320496 
	C355.188080,334.130554 348.175140,342.362885 341.984833,351.173218 
	C328.757019,369.999542 316.992889,389.707581 307.596954,410.784912 
	C300.031067,427.756958 293.201904,445.013947 289.114197,463.145264 
	C286.139526,476.339691 284.397156,489.808533 281.959503,503.128326 
	C279.301422,517.652649 277.600037,532.218445 279.099487,547.453247 
	C280.020447,556.013794 280.702209,564.174988 282.054047,572.223633 
	C285.608734,593.387756 292.551575,613.533936 301.497681,632.968933 
	C312.010498,655.807434 325.085480,677.158325 340.063995,697.338013 
	C342.454041,700.558044 345.185028,703.525085 348.093903,707.011108 
	C350.079315,702.106689 351.520020,698.341064 353.115204,694.642151 
	C361.038910,676.268494 369.116058,657.960144 376.923645,639.537537 
	C385.740173,618.734253 394.395416,597.861694 402.953308,576.950684 
	C404.552521,573.043091 406.748352,571.854553 411.041779,571.875916 
	C445.361237,572.046326 479.682343,571.890686 514.467285,571.901550 
	C517.429749,571.978333 519.927979,571.997192 522.426147,571.997314 
	C570.392578,571.999878 618.359009,571.999451 666.325439,572.003357 
	C668.761719,572.003540 671.140076,571.554077 672.431030,574.769714 
	C676.479797,584.855164 680.770020,594.844910 685.046204,604.837585 
	C691.694336,620.373230 698.403198,635.882874 705.095459,651.399597 
	C710.065674,662.923645 715.028809,674.450867 720.037598,685.958191 
	C722.646790,691.952698 725.347900,697.907227 728.460388,704.896790 
	C733.913269,699.134949 739.066895,694.507385 743.246155,689.123474 
	C757.110718,671.262695 765.591858,650.682251 770.816895,628.954346 
	C774.812256,612.340210 777.679810,595.382690 779.861877,578.425110 
	C782.018066,561.669128 784.035400,544.689575 783.637695,527.866577 
	C783.209839,509.769135 781.056091,491.510406 777.520935,473.746826 
	C774.159729,456.857178 768.041931,440.516144 763.068909,423.562103 
	C759.184814,415.150757 755.567017,407.009125 751.507263,399.094147 
	C744.333557,385.108398 735.207520,372.320709 724.369019,361.071899 
	C709.444519,345.582489 695.181091,329.631073 682.788696,311.655457 
	C661.383972,269.478455 653.770081,225.655350 663.832092,178.953018 
	C657.927673,181.383347 652.120056,183.218552 646.843201,186.044662 
	C627.030090,196.655884 609.274963,209.886246 594.943298,227.474472 
	C585.663086,238.863403 578.391724,251.370972 572.976562,264.942841 
	C564.804810,285.423248 561.872253,306.819794 563.076172,328.746979 
	C563.596924,338.231445 564.807068,347.688293 565.984924,357.122620 
	C566.703918,362.881836 567.957275,368.574310 569.204224,375.615509 
	C551.554504,352.256989 543.688416,324.977020 542.133972,301.785126 
	C540.894958,283.298004 543.755310,265.219330 549.669861,247.529236 
	C554.474487,233.159088 561.528442,220.005859 569.412170,206.873779 
	C579.818054,190.402863 592.274109,175.863159 606.200867,162.936798 
	C611.886169,157.659897 613.838623,152.388397 613.889771,145.792709 
	C613.973083,135.048035 613.999634,124.224724 612.821472,113.570473 
	C611.647705,102.955185 609.766907,92.271675 606.774048,82.033821 
	C600.140442,59.341976 588.645569,39.141415 570.707214,23.529814 
	C560.974182,15.059232 549.621887,8.449246 539.000000,0.999999 
	C713.955505,1.000000 888.910950,1.000000 1064.000000,1.000000 
	C1064.000000,371.028015 1064.000000,741.056091 1063.671143,1111.408936 
	C1061.069458,1107.440674 1058.927734,1103.071899 1056.499390,1098.868774 
	C1049.404785,1086.589355 1042.097778,1074.431885 1035.058960,1062.120972 
	C1027.873779,1049.554321 1021.008972,1036.804443 1013.820129,1024.239990 
	C1005.158325,1009.101135 996.236267,994.111267 987.552185,978.984985 
	C980.519409,966.734985 973.746521,954.335876 966.721375,942.081360 
	C959.509827,929.501526 952.059753,917.058411 944.847412,904.479004 
	C937.733093,892.070435 930.862610,879.522034 923.743713,867.116150 
	C916.441345,854.390381 908.890259,841.807312 901.591064,829.079651 
	C894.553284,816.807861 887.781799,804.383301 880.741638,792.112915 
	C872.142334,777.125061 863.321228,762.264526 854.715881,747.280090 
	C847.595093,734.880798 840.729370,722.334961 833.603699,709.938538 
	C825.156555,695.243103 816.537842,680.646362 808.020935,665.990906 
	C803.736694,658.618835 799.513184,651.211548 795.197388,643.707397 
	C794.322876,644.391602 793.812866,644.615906 793.568848,645.006409 
	C777.663452,670.461609 761.761475,695.918945 745.918152,721.412720 
	C744.031677,724.448303 741.035950,727.224060 743.046875,731.490234 
	C745.390076,736.461304 747.608398,741.492371 749.815186,746.526306 
	C756.823120,762.512695 763.847595,778.492065 770.777527,794.512390 
	C778.843018,813.157898 786.808350,831.846741 794.830200,850.511230 
	C801.128296,865.164978 807.467468,879.801147 813.749634,894.461792 
	C820.662354,910.593872 827.500366,926.757996 834.427429,942.883850 
	C840.893982,957.937988 847.468018,972.945862 853.933960,988.000244 
	C861.780212,1006.268250 869.554443,1024.567139 877.375854,1042.845947 
	C882.277466,1054.300903 887.208618,1065.743164 892.050354,1077.014038 
	C837.225952,1142.496704 782.627808,1207.709106 727.804993,1273.189941 
	C762.972107,1316.770386 798.146545,1360.359863 833.410095,1404.059937 
	C843.618530,1391.571167 853.778259,1379.402710 863.648438,1367.003784 
	C877.355652,1349.784790 890.783447,1332.343506 904.451599,1315.093140 
	C912.873474,1304.463867 921.609192,1294.083252 930.042725,1283.463013 
	C939.688171,1271.316650 949.130981,1259.009521 958.706055,1246.806885 
	C967.159302,1236.033813 975.640259,1225.282227 984.168640,1214.568726 
	C993.817261,1202.447876 1003.551453,1190.395386 1013.213013,1178.284912 
	C1021.853638,1167.454224 1030.402832,1156.550659 1039.072388,1145.743408 
	C1047.327759,1135.452515 1055.686646,1125.244507 1064.000000,1115.000000 
	C1064.000000,1344.254517 1064.000000,1573.509033 1064.000000,1803.000000 
	C889.972046,1803.000000 715.943970,1803.000000 541.670166,1802.625488 
	C548.773438,1801.513184 556.150330,1800.983521 563.466125,1799.999512 
	C587.297058,1796.794189 609.568481,1788.869995 630.338684,1776.878662 
	C649.602173,1765.757202 666.866882,1752.222900 681.497437,1735.206787 
	C695.255127,1719.206055 706.452393,1701.808350 714.883728,1682.506104 
	C725.500122,1658.200806 730.526245,1632.739136 730.931946,1606.331787 
	C731.046021,1598.910034 730.590881,1591.452148 729.921448,1584.053833 
	C729.354431,1577.787354 728.372498,1571.526367 727.086426,1565.364624 
	C725.253784,1556.583618 722.975159,1547.895874 721.090088,1540.016724 
	C723.767944,1538.810791 727.314392,1538.372559 728.711182,1536.406616 
	C743.688049,1515.327759 758.285095,1493.979370 773.068970,1472.762695 
	C784.223999,1456.753784 795.525940,1440.846924 806.643250,1424.812012 
	C807.216125,1423.985718 807.177307,1421.966797 806.558960,1421.199707 
	C798.746582,1411.506958 790.803345,1401.919067 782.836182,1392.352051 
	C775.744873,1383.836670 768.547913,1375.409180 761.460083,1366.890991 
	C753.649231,1357.503784 745.904663,1348.061157 738.140564,1338.635254 
	C732.415100,1331.683960 726.732788,1324.697021 720.980164,1317.768433 
	C713.754395,1309.065308 706.535767,1300.354370 699.144287,1291.793457 
	C698.251526,1290.759399 696.255615,1290.081665 694.853638,1290.202148 
	C691.468079,1290.492920 688.114990,1291.277344 684.777710,1291.997070 
	C657.086853,1297.969116 629.381897,1303.877930 601.723145,1309.995728 
	C581.584412,1314.450073 561.522888,1319.253418 541.395325,1323.759888 
	C536.796631,1324.789673 531.853455,1326.486816 527.438232,1325.727661 
	C512.548523,1323.167847 497.827545,1319.629028 483.037567,1316.485596 
	C464.928864,1312.636841 446.781494,1308.962158 428.713959,1304.929443 
	C410.784302,1300.927612 392.925873,1296.604858 375.051636,1292.357910 
	C369.205688,1290.968872 364.207336,1288.797363 359.234039,1295.828979 
	C350.767731,1307.799072 340.652039,1318.593872 331.384125,1330.008057 
	C320.388000,1343.550659 309.659027,1357.310913 298.624817,1370.822144 
	C286.022125,1386.253784 273.178314,1401.488525 260.514801,1416.871094 
	C257.608490,1420.401489 255.418732,1424.025024 260.323761,1428.007812 
	C262.267151,1429.585938 263.451111,1432.087646 265.023834,1434.135864 
	C274.345642,1446.276001 283.650208,1458.429810 293.018585,1470.533936 
	C301.983459,1482.116821 311.035370,1493.632202 320.018402,1505.201050 
	C327.208374,1514.460693 334.220581,1523.862793 341.603851,1532.964722 
	C343.603699,1535.430054 344.312195,1537.288574 343.280212,1540.437744 
	C337.421295,1558.316895 333.656982,1576.758179 333.266266,1595.493774 
	C332.962769,1610.049683 333.974792,1624.837646 336.358978,1639.197632 
	C339.996704,1661.107422 347.523346,1681.862671 358.596619,1701.351807 
	C370.555145,1722.398804 385.503418,1740.938843 403.950989,1756.406860 
	C420.687042,1770.439697 439.320984,1781.740601 459.906433,1789.378540 
	C479.109131,1796.503052 498.791901,1801.659668 519.466248,1802.040405 
	C520.649658,1802.062256 521.822327,1802.666626 523.000000,1803.000000 
M426.996613,918.503601 
	C424.028046,923.864380 420.738953,929.075256 418.148102,934.612732 
	C408.455475,955.328979 407.670288,977.412842 411.454987,999.212402 
	C415.547455,1022.784607 427.296051,1042.718872 445.859253,1058.574707 
	C456.902954,1068.007690 468.735443,1075.687622 482.183258,1081.078247 
	C498.713074,1087.704346 515.821655,1091.473999 533.611389,1091.962646 
	C541.621643,1092.182617 549.644043,1091.913696 557.658936,1092.019165 
	C571.547485,1092.201660 584.989990,1089.366821 598.136719,1085.426147 
	C616.757507,1079.844604 633.518372,1070.513672 648.425659,1058.019531 
	C655.501648,1052.089111 658.449646,1045.646973 650.883118,1037.483765 
	C644.200195,1030.273926 637.273071,1023.242859 629.969543,1016.670959 
	C624.239685,1011.514954 620.037231,1012.166748 613.078369,1016.267456 
	C602.027771,1022.779114 591.064148,1029.668701 579.356506,1034.777954 
	C563.894836,1041.525513 547.230652,1041.390869 530.804199,1038.870850 
	C517.705994,1036.861450 505.493652,1031.849121 496.034241,1022.351257 
	C480.926605,1007.182251 474.860291,988.812439 477.891754,967.307617 
	C480.924652,945.792542 492.259460,930.398865 511.584808,921.459961 
	C519.354004,917.866272 528.336609,916.681030 536.890686,915.047241 
	C551.598450,912.238281 566.277344,913.623474 579.808594,919.684509 
	C590.247559,924.360413 599.815063,931.049744 609.571167,937.161194 
	C617.692871,942.248657 624.225098,942.952820 630.170227,937.095886 
	C636.772034,930.592041 642.985107,923.523010 648.351135,915.977356 
	C655.505127,905.917175 654.788452,902.135681 645.995117,893.538391 
	C637.052185,884.795105 626.374207,878.804565 614.913208,873.907532 
	C596.496460,866.038452 577.110168,862.585266 557.364563,862.243530 
	C542.930725,861.993774 528.387207,863.404114 514.020081,865.133362 
	C495.153839,867.404053 477.749969,874.442627 461.868164,884.775696 
	C448.335114,893.580566 436.110504,903.960571 426.996613,918.503601 
M369.524048,245.972900 
	C361.911469,264.581024 354.298859,283.189117 346.296875,302.749023 
	C348.068909,301.206055 349.223083,300.355713 350.192810,299.330872 
	C355.315857,293.916748 360.359375,288.427246 365.493286,283.023560 
	C372.452362,275.698822 379.498871,268.457001 386.448181,261.123077 
	C390.429504,256.921387 394.366272,252.672592 398.194397,248.331512 
	C407.650940,237.607758 417.045105,226.828857 426.441437,216.052139 
	C432.908722,208.634750 439.642059,201.422958 445.713013,193.692490 
	C454.966522,181.909424 463.782104,169.781097 472.718750,157.751175 
	C476.874786,152.156555 480.840668,146.277283 478.881683,138.835114 
	C472.570129,114.857094 462.132843,92.858955 445.595428,74.222885 
	C432.431030,59.387901 416.143402,49.214897 396.462433,45.337112 
	C390.511841,44.164658 384.329102,44.170761 377.416321,43.563549 
	C378.783600,47.719612 379.518677,50.552315 380.627716,53.230118 
	C389.254211,74.058800 393.118866,95.928459 393.821472,118.273743 
	C394.177765,129.604248 393.218140,141.059555 391.861572,152.339157 
	C390.206482,166.101593 388.340210,179.941772 385.056244,193.379547 
	C380.783081,210.864868 375.026215,227.987579 369.524048,245.972900 
z"/>
<path fill="#F27A3D" opacity="1.000000" stroke="none" 
	d="
M523.467957,1803.000000 
	C521.822327,1802.666626 520.649658,1802.062256 519.466248,1802.040405 
	C498.791901,1801.659668 479.109131,1796.503052 459.906433,1789.378540 
	C439.320984,1781.740601 420.687042,1770.439697 403.950989,1756.406860 
	C385.503418,1740.938843 370.555145,1722.398804 358.596619,1701.351807 
	C347.523346,1681.862671 339.996704,1661.107422 336.358978,1639.197632 
	C333.974792,1624.837646 332.962769,1610.049683 333.266266,1595.493774 
	C333.656982,1576.758179 337.421295,1558.316895 343.280212,1540.437744 
	C344.312195,1537.288574 343.603699,1535.430054 341.603851,1532.964722 
	C334.220581,1523.862793 327.208374,1514.460693 320.018402,1505.201050 
	C311.035370,1493.632202 301.983459,1482.116821 293.018585,1470.533936 
	C283.650208,1458.429810 274.345642,1446.276001 265.023834,1434.135864 
	C263.451111,1432.087646 262.267151,1429.585938 260.323761,1428.007812 
	C255.418732,1424.025024 257.608490,1420.401489 260.514801,1416.871094 
	C273.178314,1401.488525 286.022125,1386.253784 298.624817,1370.822144 
	C309.659027,1357.310913 320.388000,1343.550659 331.384125,1330.008057 
	C340.652039,1318.593872 350.767731,1307.799072 359.234039,1295.828979 
	C364.207336,1288.797363 369.205688,1290.968872 375.051636,1292.357910 
	C392.925873,1296.604858 410.784302,1300.927612 428.713959,1304.929443 
	C446.781494,1308.962158 464.928864,1312.636841 483.037567,1316.485596 
	C497.827545,1319.629028 512.548523,1323.167847 527.438232,1325.727661 
	C531.853455,1326.486816 536.796631,1324.789673 541.395325,1323.759888 
	C561.522888,1319.253418 581.584412,1314.450073 601.723145,1309.995728 
	C629.381897,1303.877930 657.086853,1297.969116 684.777710,1291.997070 
	C688.114990,1291.277344 691.468079,1290.492920 694.853638,1290.202148 
	C696.255615,1290.081665 698.251526,1290.759399 699.144287,1291.793457 
	C706.535767,1300.354370 713.754395,1309.065308 720.980164,1317.768433 
	C726.732788,1324.697021 732.415100,1331.683960 738.140564,1338.635254 
	C745.904663,1348.061157 753.649231,1357.503784 761.460083,1366.890991 
	C768.547913,1375.409180 775.744873,1383.836670 782.836182,1392.352051 
	C790.803345,1401.919067 798.746582,1411.506958 806.558960,1421.199707 
	C807.177307,1421.966797 807.216125,1423.985718 806.643250,1424.812012 
	C795.525940,1440.846924 784.223999,1456.753784 773.068970,1472.762695 
	C758.285095,1493.979370 743.688049,1515.327759 728.711182,1536.406616 
	C727.314392,1538.372559 723.767944,1538.810791 721.090088,1540.016724 
	C722.975159,1547.895874 725.253784,1556.583618 727.086426,1565.364624 
	C728.372498,1571.526367 729.354431,1577.787354 729.921448,1584.053833 
	C730.590881,1591.452148 731.046021,1598.910034 730.931946,1606.331787 
	C730.526245,1632.739136 725.500122,1658.200806 714.883728,1682.506104 
	C706.452393,1701.808350 695.255127,1719.206055 681.497437,1735.206787 
	C666.866882,1752.222900 649.602173,1765.757202 630.338684,1776.878662 
	C609.568481,1788.869995 587.297058,1796.794189 563.466125,1799.999512 
	C556.150330,1800.983521 548.773438,1801.513184 541.212280,1802.625488 
	C535.311951,1803.000000 529.623962,1803.000000 523.467957,1803.000000 
M518.946655,1525.073364 
	C518.019897,1525.380493 517.113525,1525.788940 516.163330,1525.979492 
	C501.391693,1528.942993 488.392456,1535.604370 477.644287,1545.998413 
	C457.198425,1565.770996 449.361267,1590.055054 454.066467,1618.068970 
	C457.384003,1637.820923 467.356079,1654.081421 483.052185,1666.326172 
	C497.917236,1677.922729 514.921875,1683.663696 534.148865,1683.123657 
	C554.947205,1682.539551 572.880737,1675.041870 587.372620,1660.799805 
	C605.092896,1643.385010 613.662903,1621.948730 611.076599,1596.567383 
	C609.743286,1583.482422 605.949707,1571.330078 598.694702,1560.472168 
	C586.323975,1541.958130 569.151733,1530.419189 547.198669,1525.864380 
	C538.047241,1523.965576 529.000000,1523.806885 518.946655,1525.073364 
z"/>
<path fill="#F47741" opacity="1.000000" stroke="none" 
	d="
M1064.000000,1114.625000 
	C1055.686646,1125.244507 1047.327759,1135.452515 1039.072388,1145.743408 
	C1030.402832,1156.550659 1021.853638,1167.454224 1013.213013,1178.284912 
	C1003.551453,1190.395386 993.817261,1202.447876 984.168640,1214.568726 
	C975.640259,1225.282227 967.159302,1236.033813 958.706055,1246.806885 
	C949.130981,1259.009521 939.688171,1271.316650 930.042725,1283.463013 
	C921.609192,1294.083252 912.873474,1304.463867 904.451599,1315.093140 
	C890.783447,1332.343506 877.355652,1349.784790 863.648438,1367.003784 
	C853.778259,1379.402710 843.618530,1391.571167 833.410095,1404.059937 
	C798.146545,1360.359863 762.972107,1316.770386 727.804993,1273.189941 
	C782.627808,1207.709106 837.225952,1142.496704 892.050354,1077.014038 
	C887.208618,1065.743164 882.277466,1054.300903 877.375854,1042.845947 
	C869.554443,1024.567139 861.780212,1006.268250 853.933960,988.000244 
	C847.468018,972.945862 840.893982,957.937988 834.427429,942.883850 
	C827.500366,926.757996 820.662354,910.593872 813.749634,894.461792 
	C807.467468,879.801147 801.128296,865.164978 794.830200,850.511230 
	C786.808350,831.846741 778.843018,813.157898 770.777527,794.512390 
	C763.847595,778.492065 756.823120,762.512695 749.815186,746.526306 
	C747.608398,741.492371 745.390076,736.461304 743.046875,731.490234 
	C741.035950,727.224060 744.031677,724.448303 745.918152,721.412720 
	C761.761475,695.918945 777.663452,670.461609 793.568848,645.006409 
	C793.812866,644.615906 794.322876,644.391602 795.197388,643.707397 
	C799.513184,651.211548 803.736694,658.618835 808.020935,665.990906 
	C816.537842,680.646362 825.156555,695.243103 833.603699,709.938538 
	C840.729370,722.334961 847.595093,734.880798 854.715881,747.280090 
	C863.321228,762.264526 872.142334,777.125061 880.741638,792.112915 
	C887.781799,804.383301 894.553284,816.807861 901.591064,829.079651 
	C908.890259,841.807312 916.441345,854.390381 923.743713,867.116150 
	C930.862610,879.522034 937.733093,892.070435 944.847412,904.479004 
	C952.059753,917.058411 959.509827,929.501526 966.721375,942.081360 
	C973.746521,954.335876 980.519409,966.734985 987.552185,978.984985 
	C996.236267,994.111267 1005.158325,1009.101135 1013.820129,1024.239990 
	C1021.008972,1036.804443 1027.873779,1049.554321 1035.058960,1062.120972 
	C1042.097778,1074.431885 1049.404785,1086.589355 1056.499390,1098.868774 
	C1058.927734,1103.071899 1061.069458,1107.440674 1063.671143,1111.866943 
	C1064.000000,1112.750000 1064.000000,1113.500000 1064.000000,1114.625000 
M999.998535,1086.855469 
	C998.963745,1080.171143 996.297180,1074.324097 992.344055,1068.729370 
	C985.272766,1058.721680 975.500061,1053.860229 963.804260,1053.121216 
	C948.908447,1052.180176 936.984192,1058.529175 928.819641,1070.857178 
	C919.770203,1084.521606 920.693176,1102.498413 930.693665,1115.026245 
	C939.789124,1126.420532 951.785400,1132.059326 966.744751,1130.010010 
	C974.036865,1129.011230 980.525085,1126.154053 986.058167,1121.388550 
	C996.307617,1112.560791 1001.098755,1101.363037 999.998535,1086.855469 
z"/>
<path fill="#F47741" opacity="1.000000" stroke="none" 
	d="
M1.000012,1112.375000 
	C6.962031,1101.801147 12.986439,1091.638062 18.869902,1081.394043 
	C25.843649,1069.251709 32.653339,1057.015259 39.613934,1044.865234 
	C45.606747,1034.404419 51.750244,1024.030151 57.756905,1013.577209 
	C64.804497,1001.312805 71.766319,988.999146 78.783905,976.717407 
	C84.850067,966.100830 90.940529,955.498169 97.023041,944.890930 
	C105.278793,930.493896 113.526794,916.092407 121.797691,901.704041 
	C129.112793,888.978455 136.490250,876.288574 143.775299,863.545837 
	C152.083374,849.013794 160.286560,834.421753 168.598175,819.891724 
	C174.668365,809.279968 180.852112,798.733398 186.963837,788.145386 
	C195.420380,773.495239 203.891632,758.853516 212.291214,744.170776 
	C219.573029,731.441956 226.721603,718.636963 234.006027,705.909607 
	C242.321259,691.381287 250.730057,676.906555 259.080994,662.398621 
	C262.579773,656.320312 266.034454,650.216614 270.004944,643.255249 
	C273.193024,648.049866 276.199371,652.355347 278.984863,656.799316 
	C288.768219,672.407593 298.471283,688.066162 308.213837,703.700012 
	C312.699371,710.897949 317.372131,717.987915 321.574768,725.346802 
	C322.510284,726.984924 322.539978,729.855042 321.775543,731.638916 
	C314.007965,749.764343 305.879395,767.734802 298.068329,785.842041 
	C288.212921,808.688354 278.626190,831.650513 268.797211,854.508362 
	C260.958527,872.737671 252.833801,890.844177 245.014526,909.081726 
	C237.523758,926.553040 230.380371,944.173340 222.868576,961.635437 
	C215.141785,979.597229 207.101135,997.423767 199.294968,1015.351746 
	C190.665283,1035.171143 182.107300,1055.022095 173.683868,1074.929565 
	C173.227081,1076.009033 173.876266,1078.082153 174.720810,1079.108398 
	C189.365479,1096.904419 204.069687,1114.652344 218.870468,1132.318848 
	C230.019165,1145.626221 241.393967,1158.744263 252.537674,1172.055664 
	C263.661407,1185.343140 274.552917,1198.824951 285.676636,1212.112305 
	C295.242615,1223.539185 305.034363,1234.776611 314.647583,1246.164307 
	C322.131134,1255.029175 329.493561,1263.996460 337.144958,1273.201050 
	C302.067993,1316.666870 266.892792,1360.254517 231.356323,1404.289795 
	C226.465302,1398.086304 221.768005,1392.063965 217.001038,1386.097290 
	C209.471649,1376.672607 201.869553,1367.306274 194.346283,1357.876831 
	C186.199799,1347.666382 178.095901,1337.421753 169.996353,1327.173950 
	C161.702286,1316.680054 153.451294,1306.152100 145.153381,1295.661377 
	C135.437302,1283.377808 125.721031,1271.094238 115.948013,1258.856079 
	C108.520515,1249.555054 100.960663,1240.359619 93.539078,1231.053955 
	C85.296532,1220.718750 77.155136,1210.302856 68.949348,1199.938354 
	C60.640461,1189.443604 52.314140,1178.962646 43.982059,1168.486206 
	C34.332817,1156.353638 24.662464,1144.237915 15.014521,1132.104248 
	C10.546497,1126.485107 6.109949,1120.840820 1.329558,1115.104004 
	C1.000000,1114.250000 1.000000,1113.500000 1.000012,1112.375000 
M82.514694,1051.883423 
	C75.659180,1054.468750 70.161949,1059.018677 66.125679,1064.900513 
	C55.806908,1079.937378 56.212002,1097.803223 67.854706,1112.093384 
	C77.253403,1123.629272 90.240265,1128.028442 104.896805,1125.475464 
	C123.295845,1122.270752 138.435593,1104.453979 136.003799,1082.991333 
	C134.617157,1070.752808 128.563370,1061.450439 118.327148,1054.792603 
	C107.201752,1047.556396 95.371712,1047.280884 82.514694,1051.883423 
z"/>
<path fill="#F0A132" opacity="1.000000" stroke="none" 
	d="
M362.088806,325.004700 
	C372.948975,313.610321 383.857452,302.261475 394.654297,290.807404 
	C403.604584,281.312317 412.464813,271.731171 421.285217,262.115082 
	C426.733459,256.175323 432.162323,250.208557 437.368317,244.057907 
	C445.398071,234.571121 453.646088,225.225952 461.048859,215.261566 
	C472.703522,199.574127 484.290405,183.782837 494.899841,167.384583 
	C511.935333,141.054001 526.213379,113.265816 535.436035,83.111565 
	C541.098389,64.598335 544.434998,45.678799 542.784912,26.341551 
	C542.077515,18.051050 539.003113,9.962535 537.002075,1.391125 
	C537.444458,1.000000 537.888916,1.000000 538.666687,0.999999 
	C549.621887,8.449246 560.974182,15.059232 570.707214,23.529814 
	C588.645569,39.141415 600.140442,59.341976 606.774048,82.033821 
	C609.766907,92.271675 611.647705,102.955185 612.821472,113.570473 
	C613.999634,124.224724 613.973083,135.048035 613.889771,145.792709 
	C613.838623,152.388397 611.886169,157.659897 606.200867,162.936798 
	C592.274109,175.863159 579.818054,190.402863 569.029785,206.865433 
	C567.247070,207.348297 566.020935,207.460617 565.058716,208.023834 
	C550.731384,216.410278 536.448425,224.872604 522.136047,233.284546 
	C500.522186,245.987778 478.896027,258.670074 457.270416,271.353210 
	C430.490021,287.059601 403.748596,302.833496 376.879883,318.387390 
	C372.230621,321.078766 367.033081,322.822998 362.088806,325.004700 
z"/>
<path fill="#F3853C" opacity="1.000000" stroke="none" 
	d="
M514.002930,571.834961 
	C479.682343,571.890686 445.361237,572.046326 411.041779,571.875916 
	C406.748352,571.854553 404.552521,573.043091 402.953308,576.950684 
	C394.395416,597.861694 385.740173,618.734253 376.923645,639.537537 
	C369.116058,657.960144 361.038910,676.268494 353.115204,694.642151 
	C351.520020,698.341064 350.079315,702.106689 348.093903,707.011108 
	C345.185028,703.525085 342.454041,700.558044 340.063995,697.338013 
	C325.085480,677.158325 312.010498,655.807434 301.497681,632.968933 
	C292.551575,613.533936 285.608734,593.387756 282.054047,572.223633 
	C280.702209,564.174988 280.020447,556.013794 279.464661,547.445801 
	C281.584839,546.327087 283.397217,545.878113 284.944244,544.974731 
	C314.187958,527.897949 343.412598,510.788239 372.615570,493.641815 
	C398.810974,478.261292 424.966705,462.813232 451.156219,447.422638 
	C472.193878,435.059601 493.260773,422.746307 514.305603,410.395538 
	C533.490173,399.136536 552.647949,387.832031 571.843933,376.592590 
	C595.194092,362.920807 618.560181,349.275879 641.942322,335.658844 
	C655.549927,327.734192 669.202393,319.886810 682.834717,312.004669 
	C695.181091,329.631073 709.444519,345.582489 724.369019,361.071899 
	C735.207520,372.320709 744.333557,385.108398 751.507263,399.094147 
	C755.567017,407.009125 759.184814,415.150757 762.750061,423.712982 
	C751.954407,430.507446 741.453186,436.852539 730.858643,443.037903 
	C692.476990,465.446350 654.034119,487.750153 615.671936,510.191864 
	C583.467224,529.031555 551.328125,547.983704 519.217712,566.983704 
	C517.221558,568.164856 515.729492,570.198120 514.002930,571.834961 
z"/>
<path fill="#F19337" opacity="1.000000" stroke="none" 
	d="
M682.788696,311.655457 
	C669.202393,319.886810 655.549927,327.734192 641.942322,335.658844 
	C618.560181,349.275879 595.194092,362.920807 571.843933,376.592590 
	C552.647949,387.832031 533.490173,399.136536 514.305603,410.395538 
	C493.260773,422.746307 472.193878,435.059601 451.156219,447.422638 
	C424.966705,462.813232 398.810974,478.261292 372.615570,493.641815 
	C343.412598,510.788239 314.187958,527.897949 284.944244,544.974731 
	C283.397217,545.878113 281.584839,546.327087 279.530823,546.995117 
	C277.600037,532.218445 279.301422,517.652649 281.959503,503.128326 
	C284.397156,489.808533 286.139526,476.339691 289.114197,463.145264 
	C293.201904,445.013947 300.031067,427.756958 307.596954,410.784912 
	C316.992889,389.707581 328.757019,369.999542 341.984833,351.173218 
	C348.175140,342.362885 355.188080,334.130554 361.958496,325.320496 
	C367.033081,322.822998 372.230621,321.078766 376.879883,318.387390 
	C403.748596,302.833496 430.490021,287.059601 457.270416,271.353210 
	C478.896027,258.670074 500.522186,245.987778 522.136047,233.284546 
	C536.448425,224.872604 550.731384,216.410278 565.058716,208.023834 
	C566.020935,207.460617 567.247070,207.348297 568.732849,207.034607 
	C561.528442,220.005859 554.474487,233.159088 549.669861,247.529236 
	C543.755310,265.219330 540.894958,283.298004 542.133972,301.785126 
	C543.688416,324.977020 551.554504,352.256989 569.204224,375.615509 
	C567.957275,368.574310 566.703918,362.881836 565.984924,357.122620 
	C564.807068,347.688293 563.596924,338.231445 563.076172,328.746979 
	C561.872253,306.819794 564.804810,285.423248 572.976562,264.942841 
	C578.391724,251.370972 585.663086,238.863403 594.943298,227.474472 
	C609.274963,209.886246 627.030090,196.655884 646.843201,186.044662 
	C652.120056,183.218552 657.927673,181.383347 663.832092,178.953018 
	C653.770081,225.655350 661.383972,269.478455 682.788696,311.655457 
z"/>
<path fill="#F47940" opacity="1.000000" stroke="none" 
	d="
M514.467285,571.901489 
	C515.729492,570.198120 517.221558,568.164856 519.217712,566.983704 
	C551.328125,547.983704 583.467224,529.031555 615.671936,510.191864 
	C654.034119,487.750153 692.476990,465.446350 730.858643,443.037903 
	C741.453186,436.852539 751.954407,430.507446 762.817322,424.084778 
	C768.041931,440.516144 774.159729,456.857178 777.520935,473.746826 
	C781.056091,491.510406 783.209839,509.769135 783.637695,527.866577 
	C784.035400,544.689575 782.018066,561.669128 779.861877,578.425110 
	C777.679810,595.382690 774.812256,612.340210 770.816895,628.954346 
	C765.591858,650.682251 757.110718,671.262695 743.246155,689.123474 
	C739.066895,694.507385 733.913269,699.134949 728.460388,704.896790 
	C725.347900,697.907227 722.646790,691.952698 720.037598,685.958191 
	C715.028809,674.450867 710.065674,662.923645 705.095459,651.399597 
	C698.403198,635.882874 691.694336,620.373230 685.046204,604.837585 
	C680.770020,594.844910 676.479797,584.855164 672.431030,574.769714 
	C671.140076,571.554077 668.761719,572.003540 666.325439,572.003357 
	C618.359009,571.999451 570.392578,571.999878 522.426147,571.997314 
	C519.927979,571.997192 517.429749,571.978333 514.467285,571.901489 
z"/>
<path fill="#F27A3D" opacity="1.000000" stroke="none" 
	d="
M427.248596,918.236206 
	C436.110504,903.960571 448.335114,893.580566 461.868164,884.775696 
	C477.749969,874.442627 495.153839,867.404053 514.020081,865.133362 
	C528.387207,863.404114 542.930725,861.993774 557.364563,862.243530 
	C577.110168,862.585266 596.496460,866.038452 614.913208,873.907532 
	C626.374207,878.804565 637.052185,884.795105 645.995117,893.538391 
	C654.788452,902.135681 655.505127,905.917175 648.351135,915.977356 
	C642.985107,923.523010 636.772034,930.592041 630.170227,937.095886 
	C624.225098,942.952820 617.692871,942.248657 609.571167,937.161194 
	C599.815063,931.049744 590.247559,924.360413 579.808594,919.684509 
	C566.277344,913.623474 551.598450,912.238281 536.890686,915.047241 
	C528.336609,916.681030 519.354004,917.866272 511.584808,921.459961 
	C492.259460,930.398865 480.924652,945.792542 477.891754,967.307617 
	C474.860291,988.812439 480.926605,1007.182251 496.034241,1022.351257 
	C505.493652,1031.849121 517.705994,1036.861450 530.804199,1038.870850 
	C547.230652,1041.390869 563.894836,1041.525513 579.356506,1034.777954 
	C591.064148,1029.668701 602.027771,1022.779114 613.078369,1016.267456 
	C620.037231,1012.166748 624.239685,1011.514954 629.969543,1016.670959 
	C637.273071,1023.242859 644.200195,1030.273926 650.883118,1037.483765 
	C658.449646,1045.646973 655.501648,1052.089111 648.425659,1058.019531 
	C633.518372,1070.513672 616.757507,1079.844604 598.136719,1085.426147 
	C584.989990,1089.366821 571.547485,1092.201660 557.658936,1092.019165 
	C549.644043,1091.913696 541.621643,1092.182617 533.611389,1091.962646 
	C515.821655,1091.473999 498.713074,1087.704346 482.183258,1081.078247 
	C468.735443,1075.687622 456.902954,1068.007690 445.859253,1058.574707 
	C427.296051,1042.718872 415.547455,1022.784607 411.454987,999.212402 
	C407.670288,977.412842 408.455475,955.328979 418.148102,934.612732 
	C420.738953,929.075256 424.028046,923.864380 427.248596,918.236206 
z"/>
<path fill="#EFAB2E" opacity="1.000000" stroke="none" 
	d="
M369.715942,245.619629 
	C375.026215,227.987579 380.783081,210.864868 385.056244,193.379547 
	C388.340210,179.941772 390.206482,166.101593 391.861572,152.339157 
	C393.218140,141.059555 394.177765,129.604248 393.821472,118.273743 
	C393.118866,95.928459 389.254211,74.058800 380.627716,53.230118 
	C379.518677,50.552315 378.783600,47.719612 377.416321,43.563549 
	C384.329102,44.170761 390.511841,44.164658 396.462433,45.337112 
	C416.143402,49.214897 432.431030,59.387901 445.595428,74.222885 
	C462.132843,92.858955 472.570129,114.857094 478.881683,138.835114 
	C480.840668,146.277283 476.874786,152.156555 472.718750,157.751175 
	C463.782104,169.781097 454.966522,181.909424 445.713013,193.692490 
	C439.642059,201.422958 432.908722,208.634750 426.441437,216.052139 
	C417.045105,226.828857 407.650940,237.607758 398.194397,248.331512 
	C394.366272,252.672592 390.429504,256.921387 386.448181,261.123077 
	C379.498871,268.457001 372.452362,275.698822 365.493286,283.023560 
	C360.359375,288.427246 355.315857,293.916748 350.192810,299.330872 
	C349.223083,300.355713 348.068909,301.206055 346.296875,302.749023 
	C354.298859,283.189117 361.911469,264.581024 369.715942,245.619629 
z"/>
<path fill="#FFFFFF" opacity="1.000000" stroke="none" 
	d="
M519.389038,1525.042603 
	C529.000000,1523.806885 538.047241,1523.965576 547.198669,1525.864380 
	C569.151733,1530.419189 586.323975,1541.958130 598.694702,1560.472168 
	C605.949707,1571.330078 609.743286,1583.482422 611.076599,1596.567383 
	C613.662903,1621.948730 605.092896,1643.385010 587.372620,1660.799805 
	C572.880737,1675.041870 554.947205,1682.539551 534.148865,1683.123657 
	C514.921875,1683.663696 497.917236,1677.922729 483.052185,1666.326172 
	C467.356079,1654.081421 457.384003,1637.820923 454.066467,1618.068970 
	C449.361267,1590.055054 457.198425,1565.770996 477.644287,1545.998413 
	C488.392456,1535.604370 501.391693,1528.942993 516.163330,1525.979492 
	C517.113525,1525.788940 518.019897,1525.380493 519.389038,1525.042603 
z"/>
<path fill="#FFFFFF" opacity="1.000000" stroke="none" 
	d="
M999.999084,1087.315430 
	C1001.098755,1101.363037 996.307617,1112.560791 986.058167,1121.388550 
	C980.525085,1126.154053 974.036865,1129.011230 966.744751,1130.010010 
	C951.785400,1132.059326 939.789124,1126.420532 930.693665,1115.026245 
	C920.693176,1102.498413 919.770203,1084.521606 928.819641,1070.857178 
	C936.984192,1058.529175 948.908447,1052.180176 963.804260,1053.121216 
	C975.500061,1053.860229 985.272766,1058.721680 992.344055,1068.729370 
	C996.297180,1074.324097 998.963745,1080.171143 999.999084,1087.315430 
z"/>
<path fill="#FFFFFF" opacity="1.000000" stroke="none" 
	d="
M82.824142,1051.637939 
	C95.371712,1047.280884 107.201752,1047.556396 118.327148,1054.792603 
	C128.563370,1061.450439 134.617157,1070.752808 136.003799,1082.991333 
	C138.435593,1104.453979 123.295845,1122.270752 104.896805,1125.475464 
	C90.240265,1128.028442 77.253403,1123.629272 67.854706,1112.093384 
	C56.212002,1097.803223 55.806908,1079.937378 66.125679,1064.900513 
	C70.161949,1059.018677 75.659180,1054.468750 82.824142,1051.637939 
z"/>
</svg>