<svg xmlns="http://www.w3.org/2000/svg" width="31" height="30" viewBox="0 0 31 30" fill="none">
<path fill-rule="evenodd" clip-rule="evenodd" d="M6.82389 7.43938C8.13562 5.69674 9.21239 3.75629 10.2421 1.86811C10.4624 1.46086 10.3222 0.947943 9.91776 0.754541C9.52498 0.53045 9.02428 0.687293 8.81591 1.06398C7.8196 2.89471 6.7824 4.77974 5.52692 6.43864C5.25737 6.7914 5.32492 7.31143 5.68132 7.59178C6.03742 7.87201 6.55403 7.79202 6.82389 7.43938Z" fill="#000"/>
<path fill-rule="evenodd" clip-rule="evenodd" d="M12.2564 16.4002C16.6871 14.5027 20.8613 12.0468 25.3538 10.244C25.7682 10.0889 25.9759 9.60622 25.809 9.18853C25.6419 8.77071 25.1716 8.55172 24.7453 8.73742C20.2433 10.5365 16.06 12.9888 11.6199 14.8826C11.2008 15.0712 11.0054 15.5585 11.1805 15.9794C11.3672 16.3696 11.8374 16.5887 12.2564 16.4002Z" fill="#000"/>
<path fill-rule="evenodd" clip-rule="evenodd" d="M22.2536 27.1125C20.3866 26.4881 18.5197 25.8636 16.6523 25.2391C16.2329 25.0751 15.7655 25.3154 15.6186 25.7514C15.4719 26.1874 15.7095 26.6325 16.1292 26.7967C17.9993 27.4223 19.8689 28.0479 21.7387 28.6733C22.1701 28.8068 22.6353 28.5657 22.7798 28.1288C22.9124 27.7225 22.6847 27.2459 22.2536 27.1125Z" fill="#000"/>
</svg>