<svg xmlns="http://www.w3.org/2000/svg" style="display:none;">
    <symbol id="auto" viewBox="0 0 24 24">
        <path d="M12 21.9967C6.47715 21.9967 2 17.5196 2 11.9967C2 6.47386 6.47715 1.9967 12 1.9967C17.5228 1.9967 22 6.47386 22 11.9967C22 17.5196 17.5228 21.9967 12 21.9967ZM12 19.9967C16.4183 19.9967 20 16.415 20 11.9967C20 7.57843 16.4183 3.9967 12 3.9967C7.58172 3.9967 4 7.57843 4 11.9967C4 16.415 7.58172 19.9967 12 19.9967ZM12 17.9967V5.9967C15.3137 5.9967 18 8.683 18 11.9967C18 15.3104 15.3137 17.9967 12 17.9967Z"></path>
    </symbol>
    <symbol id="drop" viewBox="0 0 24 24">
        <path d="M12 16L6 10H18L12 16Z"></path>
        <!-- <path d="M12 15.0006L7.75732 10.758L9.17154 9.34375L12 12.1722L14.8284 9.34375L16.2426 10.758L12 15.0006Z"></path> -->
        <!-- <path d="M11.9999 13.1714L16.9497 8.22168L18.3639 9.63589L11.9999 15.9999L5.63599 9.63589L7.0502 8.22168L11.9999 13.1714Z"></path> -->
        <!-- <path d="M12 15.6315L20.9679 10.8838L20.0321 9.11619L12 13.3685L3.9679 9.11619L3.03212 10.8838L12 15.6315Z"></path> -->
    </symbol>
    <symbol id="check" viewBox="0 0 24 24">
        <path d="M9.9997 15.1709L19.1921 5.97852L20.6063 7.39273L9.9997 17.9993L3.63574 11.6354L5.04996 10.2212L9.9997 15.1709Z"></path>
    </symbol>
    <symbol id="light" viewBox="0 0 24 24">
        <path d="M12 18C8.68629 18 6 15.3137 6 12C6 8.68629 8.68629 6 12 6C15.3137 6 18 8.68629 18 12C18 15.3137 15.3137 18 12 18ZM12 16C14.2091 16 16 14.2091 16 12C16 9.79086 14.2091 8 12 8C9.79086 8 8 9.79086 8 12C8 14.2091 9.79086 16 12 16ZM11 1H13V4H11V1ZM11 20H13V23H11V20ZM3.51472 4.92893L4.92893 3.51472L7.05025 5.63604L5.63604 7.05025L3.51472 4.92893ZM16.9497 18.364L18.364 16.9497L20.4853 19.0711L19.0711 20.4853L16.9497 18.364ZM19.0711 3.51472L20.4853 4.92893L18.364 7.05025L16.9497 5.63604L19.0711 3.51472ZM5.63604 16.9497L7.05025 18.364L4.92893 20.4853L3.51472 19.0711L5.63604 16.9497ZM23 11V13H20V11H23ZM4 11V13H1V11H4Z"></path>
    </symbol>
    <symbol id="night" viewBox="0 0 24 24">
        <path d="M10 7C10 10.866 13.134 14 17 14C18.9584 14 20.729 13.1957 21.9995 11.8995C22 11.933 22 11.9665 22 12C22 17.5228 17.5228 22 12 22C6.47715 22 2 17.5228 2 12C2 6.47715 6.47715 2 12 2C12.0335 2 12.067 2 12.1005 2.00049C10.8043 3.27098 10 5.04157 10 7ZM4 12C4 16.4183 7.58172 20 12 20C15.0583 20 17.7158 18.2839 19.062 15.7621C18.3945 15.9187 17.7035 16 17 16C12.0294 16 8 11.9706 8 7C8 6.29648 8.08133 5.60547 8.2379 4.938C5.71611 6.28423 4 8.9417 4 12Z"></path>
    </symbol>
    <symbol id="flash" viewBox="0 0 24 24">
        <path d="M9.97308 18H14.0269C14.1589 16.7984 14.7721 15.8065 15.7676 14.7226C15.8797 14.6006 16.5988 13.8564 16.6841 13.7501C17.5318 12.6931 18 11.385 18 10C18 6.68629 15.3137 4 12 4C8.68629 4 6 6.68629 6 10C6 11.3843 6.46774 12.6917 7.31462 13.7484C7.40004 13.855 8.12081 14.6012 8.23154 14.7218C9.22766 15.8064 9.84103 16.7984 9.97308 18ZM14 20H10V21H14V20ZM5.75395 14.9992C4.65645 13.6297 4 11.8915 4 10C4 5.58172 7.58172 2 12 2C16.4183 2 20 5.58172 20 10C20 11.8925 19.3428 13.6315 18.2443 15.0014C17.624 15.7748 16 17 16 18.5V21C16 22.1046 15.1046 23 14 23H10C8.89543 23 8 22.1046 8 21V18.5C8 17 6.37458 15.7736 5.75395 14.9992ZM13 10.0048H15.5L11 16.0048V12.0048H8.5L13 6V10.0048Z"></path>
    </symbol>
    <symbol id="shake" viewBox="0 0 24 24">
        <path d="M19.2914 5.99994H20.0002C20.5525 5.99994 21.0002 6.44766 21.0002 6.99994V13.9999C21.0002 14.5522 20.5525 14.9999 20.0002 14.9999H18.0002L13.8319 9.16427C13.3345 8.46797 12.4493 8.16522 11.6297 8.41109L9.14444 9.15668C8.43971 9.3681 7.6758 9.17551 7.15553 8.65524L6.86277 8.36247C6.41655 7.91626 6.49011 7.17336 7.01517 6.82332L12.4162 3.22262C13.0752 2.78333 13.9312 2.77422 14.5994 3.1994L18.7546 5.8436C18.915 5.94571 19.1013 5.99994 19.2914 5.99994ZM5.02708 14.2947L3.41132 15.7085C2.93991 16.1209 2.95945 16.8603 3.45201 17.2474L8.59277 21.2865C9.07284 21.6637 9.77592 21.5264 10.0788 20.9963L10.7827 19.7645C11.2127 19.012 11.1091 18.0682 10.5261 17.4269L7.82397 14.4545C7.09091 13.6481 5.84722 13.5771 5.02708 14.2947ZM7.04557 5H3C2.44772 5 2 5.44772 2 6V13.5158C2 13.9242 2.12475 14.3173 2.35019 14.6464C2.3741 14.6238 2.39856 14.6015 2.42357 14.5796L4.03933 13.1658C5.47457 11.91 7.65103 12.0343 8.93388 13.4455L11.6361 16.4179C12.6563 17.5401 12.8376 19.1918 12.0851 20.5087L11.4308 21.6538C11.9937 21.8671 12.635 21.819 13.169 21.4986L17.5782 18.8531C18.0786 18.5528 18.2166 17.8896 17.8776 17.4146L12.6109 10.0361C12.4865 9.86205 12.2652 9.78636 12.0603 9.84783L9.57505 10.5934C8.34176 10.9634 7.00492 10.6264 6.09446 9.7159L5.80169 9.42313C4.68615 8.30759 4.87005 6.45035 6.18271 5.57524L7.04557 5Z"></path>
    </symbol>
    <symbol id="instagram" viewBox="0 0 24 24">
        <path d="M12.001 9C10.3436 9 9.00098 10.3431 9.00098 12C9.00098 13.6573 10.3441 15 12.001 15C13.6583 15 15.001 13.6569 15.001 12C15.001 10.3427 13.6579 9 12.001 9ZM12.001 7C14.7614 7 17.001 9.2371 17.001 12C17.001 14.7605 14.7639 17 12.001 17C9.24051 17 7.00098 14.7629 7.00098 12C7.00098 9.23953 9.23808 7 12.001 7ZM18.501 6.74915C18.501 7.43926 17.9402 7.99917 17.251 7.99917C16.5609 7.99917 16.001 7.4384 16.001 6.74915C16.001 6.0599 16.5617 5.5 17.251 5.5C17.9393 5.49913 18.501 6.0599 18.501 6.74915ZM12.001 4C9.5265 4 9.12318 4.00655 7.97227 4.0578C7.18815 4.09461 6.66253 4.20007 6.17416 4.38967C5.74016 4.55799 5.42709 4.75898 5.09352 5.09255C4.75867 5.4274 4.55804 5.73963 4.3904 6.17383C4.20036 6.66332 4.09493 7.18811 4.05878 7.97115C4.00703 9.0752 4.00098 9.46105 4.00098 12C4.00098 14.4745 4.00753 14.8778 4.05877 16.0286C4.0956 16.8124 4.2012 17.3388 4.39034 17.826C4.5591 18.2606 4.7605 18.5744 5.09246 18.9064C5.42863 19.2421 5.74179 19.4434 6.17187 19.6094C6.66619 19.8005 7.19148 19.9061 7.97212 19.9422C9.07618 19.9939 9.46203 20 12.001 20C14.4755 20 14.8788 19.9934 16.0296 19.9422C16.8117 19.9055 17.3385 19.7996 17.827 19.6106C18.2604 19.4423 18.5752 19.2402 18.9074 18.9085C19.2436 18.5718 19.4445 18.2594 19.6107 17.8283C19.8013 17.3358 19.9071 16.8098 19.9432 16.0289C19.9949 14.9248 20.001 14.5389 20.001 12C20.001 9.52552 19.9944 9.12221 19.9432 7.97137C19.9064 7.18906 19.8005 6.66149 19.6113 6.17318C19.4434 5.74038 19.2417 5.42635 18.9084 5.09255C18.573 4.75715 18.2616 4.55693 17.8271 4.38942C17.338 4.19954 16.8124 4.09396 16.0298 4.05781C14.9258 4.00605 14.5399 4 12.001 4ZM12.001 2C14.7176 2 15.0568 2.01 16.1235 2.06C17.1876 2.10917 17.9135 2.2775 18.551 2.525C19.2101 2.77917 19.7668 3.1225 20.3226 3.67833C20.8776 4.23417 21.221 4.7925 21.476 5.45C21.7226 6.08667 21.891 6.81333 21.941 7.8775C21.9885 8.94417 22.001 9.28333 22.001 12C22.001 14.7167 21.991 15.0558 21.941 16.1225C21.8918 17.1867 21.7226 17.9125 21.476 18.55C21.2218 19.2092 20.8776 19.7658 20.3226 20.3217C19.7668 20.8767 19.2076 21.22 18.551 21.475C17.9135 21.7217 17.1876 21.89 16.1235 21.94C15.0568 21.9875 14.7176 22 12.001 22C9.28431 22 8.94514 21.99 7.87848 21.94C6.81431 21.8908 6.08931 21.7217 5.45098 21.475C4.79264 21.2208 4.23514 20.8767 3.67931 20.3217C3.12348 19.7658 2.78098 19.2067 2.52598 18.55C2.27848 17.9125 2.11098 17.1867 2.06098 16.1225C2.01348 15.0558 2.00098 14.7167 2.00098 12C2.00098 9.28333 2.01098 8.94417 2.06098 7.8775C2.11014 6.8125 2.27848 6.0875 2.52598 5.45C2.78014 4.79167 3.12348 4.23417 3.67931 3.67833C4.23514 3.1225 4.79348 2.78 5.45098 2.525C6.08848 2.2775 6.81348 2.11 7.87848 2.06C8.94514 2.0125 9.28431 2 12.001 2Z"></path>
    </symbol>
    <symbol id="linkedin" viewBox="0 0 24 24">
        <path d="M18.3362 18.339H15.6707V14.1622C15.6707 13.1662 15.6505 11.8845 14.2817 11.8845C12.892 11.8845 12.6797 12.9683 12.6797 14.0887V18.339H10.0142V9.75H12.5747V10.9207H12.6092C12.967 10.2457 13.837 9.53325 15.1367 9.53325C17.8375 9.53325 18.337 11.3108 18.337 13.6245V18.339H18.3362ZM7.00373 8.57475C6.14573 8.57475 5.45648 7.88025 5.45648 7.026C5.45648 6.1725 6.14648 5.47875 7.00373 5.47875C7.85873 5.47875 8.55173 6.1725 8.55173 7.026C8.55173 7.88025 7.85798 8.57475 7.00373 8.57475ZM8.34023 18.339H5.66723V9.75H8.34023V18.339ZM19.6697 3H4.32923C3.59498 3 3.00098 3.5805 3.00098 4.29675V19.7033C3.00098 20.4202 3.59498 21 4.32923 21H19.6675C20.401 21 21.001 20.4202 21.001 19.7033V4.29675C21.001 3.5805 20.401 3 19.6675 3H19.6697Z"></path>
    </symbol>
    <symbol id="facebook" viewBox="0 0 24 24">
        <path d="M12.001 2C6.47813 2 2.00098 6.47715 2.00098 12C2.00098 16.9913 5.65783 21.1283 10.4385 21.8785V14.8906H7.89941V12H10.4385V9.79688C10.4385 7.29063 11.9314 5.90625 14.2156 5.90625C15.3097 5.90625 16.4541 6.10156 16.4541 6.10156V8.5625H15.1931C13.9509 8.5625 13.5635 9.33334 13.5635 10.1242V12H16.3369L15.8936 14.8906H13.5635V21.8785C18.3441 21.1283 22.001 16.9913 22.001 12C22.001 6.47715 17.5238 2 12.001 2Z"></path>
    </symbol>
    <symbol id="twitter" viewBox="0 0 24 24">
        <path d="M10.4883 14.651L15.25 21H22.25L14.3917 10.5223L20.9308 3H18.2808L13.1643 8.88578L8.75 3H1.75L9.26086 13.0145L2.31915 21H4.96917L10.4883 14.651ZM16.25 19L5.75 5H7.75L18.25 19H16.25Z"></path>
    </symbol>
    <symbol id="repairs">
        <path d="M5.32943 3.27158C6.56252 2.8332 7.9923 3.10749 8.97927 4.09446C9.96652 5.08171 10.2407 6.51202 9.80178 7.74535L20.6465 18.5902L18.5252 20.7115L7.67936 9.86709C6.44627 10.3055 5.01649 10.0312 4.02952 9.04421C3.04227 8.05696 2.7681 6.62665 3.20701 5.39332L5.44373 7.63C6.02952 8.21578 6.97927 8.21578 7.56505 7.63C8.15084 7.04421 8.15084 6.09446 7.56505 5.50868L5.32943 3.27158ZM15.6968 5.15512L18.8788 3.38736L20.293 4.80157L18.5252 7.98355L16.7574 8.3371L14.6361 10.4584L13.2219 9.04421L15.3432 6.92289L15.6968 5.15512ZM8.62572 12.9333L10.747 15.0546L5.79729 20.0044C5.2115 20.5902 4.26175 20.5902 3.67597 20.0044C3.12464 19.453 3.09221 18.5793 3.57867 17.99L3.67597 17.883L8.62572 12.9333Z"></path>
    </symbol>
    <symbol id="macbook">
        <path d="M2 4.00685C2 3.45078 2.45531 3 2.9918 3H21.0082C21.556 3 22 3.44995 22 4.00685V17H2V4.00685ZM1 19H23V21H1V19Z"></path>
    </symbol>
    <symbol id="palette">
        <path d="M12 2C17.5222 2 22 5.97778 22 10.8889C22 13.9556 19.5111 16.4444 16.4444 16.4444H14.4778C13.5556 16.4444 12.8111 17.1889 12.8111 18.1111C12.8111 18.5333 12.9778 18.9222 13.2333 19.2111C13.5 19.5111 13.6667 19.9 13.6667 20.3333C13.6667 21.2556 12.9 22 12 22C6.47778 22 2 17.5222 2 12C2 6.47778 6.47778 2 12 2ZM7.5 12C8.32843 12 9 11.3284 9 10.5C9 9.67157 8.32843 9 7.5 9C6.67157 9 6 9.67157 6 10.5C6 11.3284 6.67157 12 7.5 12ZM16.5 12C17.3284 12 18 11.3284 18 10.5C18 9.67157 17.3284 9 16.5 9C15.6716 9 15 9.67157 15 10.5C15 11.3284 15.6716 12 16.5 12ZM12 9C12.8284 9 13.5 8.32843 13.5 7.5C13.5 6.67157 12.8284 6 12 6C11.1716 6 10.5 6.67157 10.5 7.5C10.5 8.32843 11.1716 9 12 9Z"></path>
    </symbol>
    <symbol id="terminal">
        <path d="M3 3H21C21.5523 3 22 3.44772 22 4V20C22 20.5523 21.5523 21 21 21H3C2.44772 21 2 20.5523 2 20V4C2 3.44772 2.44772 3 3 3ZM12 15V17H18V15H12ZM8.41421 12L5.58579 14.8284L7 16.2426L11.2426 12L7 7.75736L5.58579 9.17157L8.41421 12Z"></path>
    </symbol>
    <symbol id="arrow-prev">
        <path d="M7.82843 10.9999H20V12.9999H7.82843L13.1924 18.3638L11.7782 19.778L4 11.9999L11.7782 4.22168L13.1924 5.63589L7.82843 10.9999Z"></path>
    </symbol>
    <symbol id="arrow-next">
        <path d="M16.1716 10.9999L10.8076 5.63589L12.2218 4.22168L20 11.9999L12.2218 19.778L10.8076 18.3638L16.1716 12.9999H4V10.9999H16.1716Z"></path>
    </symbol>
    <symbol id="about-icon-1">
        <path fill-rule="evenodd" clip-rule="evenodd" d="M11.5 2C7.35786 2 4 5.43595 4 9.67442C4 11.9468 4.96602 13.9892 6.49859 15.3934C7.0094 15.8614 7.38782 16.2082 7.65601 16.4598C7.7901 16.5855 7.89262 16.6838 7.9683 16.7592C8.00601 16.7968 8.03486 16.8266 8.05635 16.8496C8.06699 16.861 8.07499 16.8699 8.0808 16.8766C8.08649 16.8831 8.0892 16.8864 8.0892 16.8864C8.32571 17.1851 8.3769 17.2622 8.40739 17.332C8.43787 17.4018 8.45982 17.4922 8.51949 17.8717C8.54305 18.0216 8.54545 18.2782 8.54545 18.9767L8.54545 19.0067C8.54544 19.4158 8.54543 19.7687 8.57107 20.0583C8.5982 20.3645 8.65825 20.6677 8.81949 20.9535C8.99902 21.2717 9.25723 21.5359 9.56818 21.7196C9.84747 21.8846 10.1438 21.946 10.443 21.9738C10.726 22 11.0709 22 11.4707 22H11.5293C11.9291 22 12.274 22 12.557 21.9738C12.8562 21.946 13.1525 21.8846 13.4318 21.7196C13.7428 21.5359 14.001 21.2717 14.1805 20.9535C14.3418 20.6677 14.4018 20.3645 14.4289 20.0583C14.4546 19.7687 14.4546 19.4158 14.4545 19.0067V18.9767C14.4545 18.2782 14.457 18.0216 14.4805 17.8717C14.5402 17.4922 14.5621 17.4018 14.5926 17.332C14.6231 17.2622 14.6743 17.1851 14.9108 16.8864C14.9108 16.8864 14.9133 16.8834 14.9192 16.8766C14.925 16.8699 14.933 16.861 14.9436 16.8496C14.9651 16.8266 14.994 16.7968 15.0317 16.7592C15.1074 16.6838 15.2099 16.5855 15.344 16.4598C15.6122 16.2082 15.9906 15.8614 16.5014 15.3934C18.034 13.9892 19 11.9468 19 9.67442C19 5.43595 15.6421 2 11.5 2ZM13.0851 19.6744H9.91494C9.91791 19.7714 9.92239 19.8561 9.92914 19.9323C9.94769 20.1418 9.97899 20.2178 10.0004 20.2558C10.0603 20.3619 10.1463 20.4499 10.25 20.5112C10.2871 20.5331 10.3615 20.5651 10.5661 20.5841C10.7802 20.604 11.0626 20.6047 11.5 20.6047C11.9374 20.6047 12.2198 20.604 12.4339 20.5841C12.6385 20.5651 12.7129 20.5331 12.75 20.5112C12.8537 20.4499 12.9397 20.3619 12.9996 20.2558C13.021 20.2178 13.0523 20.1418 13.0709 19.9323C13.0776 19.8561 13.0821 19.7714 13.0851 19.6744ZM12.6105 8.17647C12.9169 8.40043 12.9878 8.83616 12.769 9.1497L11.591 10.8372H12.9934C13.2488 10.8372 13.4828 10.9833 13.5996 11.2156C13.7165 11.448 13.6966 11.7277 13.5482 11.9404L11.6001 14.7311C11.3813 15.0446 10.9554 15.1173 10.649 14.8933C10.3426 14.6693 10.2716 14.2336 10.4905 13.9201L11.6685 12.2326H10.2661C10.0107 12.2326 9.77673 12.0865 9.65986 11.8541C9.54299 11.6218 9.56284 11.342 9.71129 11.1294L11.6593 8.33867C11.8782 8.02513 12.304 7.95251 12.6105 8.17647Z" />
    </symbol>
    <symbol id="about-icon-2">
        <path d='M7.21 16.067a6.687 6.687 0 0 1-.664.772c-1.172 1.171-2.94 1.525-5.303 1.06-.465-2.363-.111-4.131 1.06-5.303.247-.247.506-.468.772-.663a8.975 8.975 0 0 0-2.599-.81A5.974 5.974 0 0 1 1.95 8.707a5.977 5.977 0 0 1 3.81-1.742 13.637 13.637 0 0 1 2.2-2.854c3.32-3.32 7.593-4.428 9.546-2.475 1.953 1.953.845 6.227-2.475 9.546a13.637 13.637 0 0 1-2.854 2.2 5.977 5.977 0 0 1-1.742 3.81c-.7.701-1.532 1.193-2.416 1.474a8.975 8.975 0 0 0-.81-2.599zM13.262 5.88a1 1 0 1 0 1.415-1.415 1 1 0 0 0-1.415 1.415zm-7.778 7.778c-.109-.11-.286-.277-.53-.503-.432.15-.944.574-1.414 1.033-.371.363-.497.973-.5 1.92.946-.004 1.62-.22 1.914-.506.471-.459.89-.917 1.04-1.35-.112-.194-.346-.43-.51-.594z' />
    </symbol>
    <symbol id="about-icon-3">
        <path d="M622.34 153.2L343.4 67.5c-15.2-4.67-31.6-4.67-46.79 0L17.66 153.2c-23.54 7.23-23.54 38.36 0 45.59l48.63 14.94c-10.67 13.19-17.23 29.28-17.88 46.9C38.78 266.15 32 276.11 32 288c0 10.78 5.68 19.85 13.86 25.65L20.33 428.53C18.11 438.52 25.71 448 35.94 448h56.11c10.24 0 17.84-9.48 15.62-19.47L82.14 313.65C90.32 307.85 96 298.78 96 288c0-11.57-6.47-21.25-15.66-26.87.76-15.02 8.44-28.3 20.69-36.72L296.6 284.5c9.06 2.78 26.44 6.25 46.79 0l278.95-85.7c23.55-7.24 23.55-38.36 0-45.6zM352.79 315.09c-28.53 8.76-52.84 3.92-65.59 0l-145.02-44.55L128 384c0 35.35 85.96 64 192 64s192-28.65 192-64l-14.18-113.47-145.03 44.56z"/>
    </symbol>
    <symbol id="about-icon-4">
        <path d="M15.94,9.67h6.67A7.68,7.68,0,0,0,30.27,2a1,1,0,0,0-1-1H25.94a7.67,7.67,0,0,0-6.67,3.89A7.65,7.65,0,0,0,12.61,1H9.27a1,1,0,0,0-1,1A7.68,7.68,0,0,0,15.94,9.67Z"/><path d="M30.86,24A2.48,2.48,0,0,0,28,22.45l-4,.82a5.72,5.72,0,0,0,0-.58,3,3,0,0,0-3.1-2.92h0a8.08,8.08,0,0,1-3.76-.8l-1.89-.83A2.56,2.56,0,0,0,13.64,18a.66.66,0,0,0-.2.06l-1.24.56a6,6,0,0,1,.28,3.11L11.3,28.07c0,.15-.08.29-.12.44l5.35,2.06a6.09,6.09,0,0,0,2.26.43,6.17,6.17,0,0,0,2.31-.45l8.29-3.36A2.57,2.57,0,0,0,30.86,24Z"/><path d="M8,17.29l-5.82-.88A1,1,0,0,0,1,17.4v12a1,1,0,0,0,1,1H6.4a3.08,3.08,0,0,0,2.93-2.69l1.18-6.35a3.76,3.76,0,0,0-.61-2.84A2.88,2.88,0,0,0,8,17.29Z"/><path d="M28,21.64A5,5,0,0,0,24,18.26a5,5,0,0,0-3.69-3.14V11.67h-2v3.45a5.06,5.06,0,0,0-2.94,1.81,2.88,2.88,0,0,1,.9.21l1.89.83a8.36,8.36,0,0,0,3.41.81h.35A3,3,0,0,1,25,21.69a5.72,5.72,0,0,1,0,.58Z"/>
    </symbol>
    <!-- <symbol id=""></symbol> -->
</svg>